<?xml version="1.0" encoding="UTF-8" standalone="no"?>
<!-- Created with Inkscape (http://www.inkscape.org/) -->
<svg
   xmlns:dc="http://purl.org/dc/elements/1.1/"
   xmlns:cc="http://web.resource.org/cc/"
   xmlns:rdf="http://www.w3.org/1999/02/22-rdf-syntax-ns#"
   xmlns:svg="http://www.w3.org/2000/svg"
   xmlns="http://www.w3.org/2000/svg"
   xmlns:xlink="http://www.w3.org/1999/xlink"
   xmlns:sodipodi="http://sodipodi.sourceforge.net/DTD/sodipodi-0.dtd"
   xmlns:inkscape="http://www.inkscape.org/namespaces/inkscape"
   version="1.0"
   width="44"
   height="44"
   id="svg2"
   sodipodi:version="0.32"
   inkscape:version="0.45"
   sodipodi:docname="N_math_physics.svg"
   inkscape:output_extension="org.inkscape.output.svg.inkscape"
   sodipodi:docbase="C:\Documents and Settings\masanobu\My Documents\My Pictures\メインページ素材\old_fashion"
   sodipodi:modified="true">
  <metadata
     id="metadata60">
    <rdf:RDF>
      <cc:Work
         rdf:about="">
        <dc:format>image/svg+xml</dc:format>
        <dc:type
           rdf:resource="http://purl.org/dc/dcmitype/StillImage" />
      </cc:Work>
    </rdf:RDF>
  </metadata>
  <sodipodi:namedview
     inkscape:window-height="680"
     inkscape:window-width="1024"
     inkscape:pageshadow="2"
     inkscape:pageopacity="0.0"
     guidetolerance="10.0"
     gridtolerance="10.0"
     objecttolerance="10.0"
     borderopacity="1.0"
     bordercolor="#666666"
     pagecolor="#ffffff"
     id="base"
     inkscape:zoom="12.130476"
     inkscape:cx="27.204568"
     inkscape:cy="19.024357"
     inkscape:window-x="-4"
     inkscape:window-y="-4"
     inkscape:current-layer="svg2"
     width="44px"
     height="44px" />
  <defs
     id="defs5">
    <linearGradient
       id="linearGradient2779">
      <stop
         offset="0"
         id="stop2781"
         style="stop-color:#4169e1;stop-opacity:1;" />
      <stop
         offset="1"
         id="stop2783"
         style="stop-color:#f5f5f5;stop-opacity:1;" />
    </linearGradient>
    <linearGradient
       inkscape:collect="always"
       id="linearGradient7168"
       x1="47.76152"
       y1="18.860083"
       gradientTransform="translate(-9.2531969,6.3468942)"
       x2="10.598763"
       gradientUnits="userSpaceOnUse"
       xlink:href="#linearGradient2779"
       y2="26.461481" />
    <linearGradient
       id="linearGradient3065">
      <stop
         style="stop-color:#c8c8c8;stop-opacity:1"
         offset="0"
         id="stop3067" />
      <stop
         style="stop-color:#646464;stop-opacity:1"
         offset="1"
         id="stop3069" />
    </linearGradient>
    <linearGradient
       id="linearGradient3055">
      <stop
         style="stop-color:#d7d7d7;stop-opacity:1"
         offset="0"
         id="stop3057" />
      <stop
         style="stop-color:#c8c8c8;stop-opacity:1"
         offset="1"
         id="stop3059" />
    </linearGradient>
    <linearGradient
       id="linearGradient3041">
      <stop
         style="stop-color:#d7d7d7;stop-opacity:1"
         offset="0"
         id="stop3043" />
      <stop
         style="stop-color:white;stop-opacity:1"
         offset="1"
         id="stop3045" />
    </linearGradient>
    <linearGradient
       id="linearGradient2889">
      <stop
         style="stop-color:#a0a3e1;stop-opacity:1"
         offset="0"
         id="stop2891" />
      <stop
         style="stop-color:#dedcfa;stop-opacity:1"
         offset="1"
         id="stop2893" />
    </linearGradient>
    <linearGradient
       id="linearGradient2812">
      <stop
         style="stop-color:black;stop-opacity:1"
         offset="0"
         id="stop2814" />
      <stop
         style="stop-color:white;stop-opacity:0"
         offset="1"
         id="stop2816" />
    </linearGradient>
    <mask
       id="mask2799">
      <path
         d="M 168.99397,144.76334 C 168.99397,144.76334 214.49314,156.63269 246.14473,148.71979 C 277.79633,140.80689 309.44793,103.22062 309.44793,103.22062 C 309.44793,103.22062 344.06686,191.25162 348.02331,221.91411 C 351.97976,252.57659 350.00153,289.17375 327.25195,311.92334 C 304.50236,334.67292 255.67246,325.40751 232.29716,302.03221 C 218.4143,288.14936 204.60201,261.4786 192.73266,233.78346 C 180.86331,206.08831 168.00485,143.77423 168.99397,144.76334 z "
         style="fill:#e8e7fe;fill-opacity:1;fill-rule:evenodd;stroke:#000000;stroke-width:3.125;stroke-linecap:butt;stroke-linejoin:round;stroke-miterlimit:4;stroke-dasharray:none;stroke-opacity:1"
         id="use2796" />
    </mask>
    <mask
       id="mask2858">
      <path
         d="M 100,24 C 100,24 88.5,66.5 134,76 C 179.5,85.5 217,67 217,67 C 217,67 211,163.46447 196,192.46447 C 181,221.46447 141.5,254 118,254 C 94.5,254 76,238.5 70,223.5 C 64,208.5 60.5,128 71,102 C 78.202941,84.164147 73,78.5 82,49.5 C 87.643273,31.316121 100.5,23 100,24 z "
         style="fill:#e8e7fe;fill-opacity:1;fill-rule:evenodd;stroke:#000000;stroke-width:3.125;stroke-linecap:butt;stroke-linejoin:miter;stroke-miterlimit:4;stroke-dasharray:none;stroke-opacity:1"
         id="use2848" />
    </mask>
    <linearGradient
       x1="92.604424"
       y1="304.50995"
       x2="263.82959"
       y2="26.290426"
       id="linearGradient2895"
       xlink:href="#linearGradient2889"
       gradientUnits="userSpaceOnUse" />
    <linearGradient
       x1="24.04163"
       y1="215.04311"
       x2="340.82547"
       y2="215.04311"
       id="linearGradient3047"
       xlink:href="#linearGradient3041"
       gradientUnits="userSpaceOnUse" />
    <linearGradient
       x1="24.04163"
       y1="215.04311"
       x2="340.82547"
       y2="215.04311"
       id="linearGradient3051"
       xlink:href="#linearGradient3041"
       gradientUnits="userSpaceOnUse"
       gradientTransform="translate(-218.9322,-174.2077)" />
    <linearGradient
       x1="51.5"
       y1="197.3537"
       x2="51.5"
       y2="137.49948"
       id="linearGradient3061"
       xlink:href="#linearGradient3055"
       gradientUnits="userSpaceOnUse"
       gradientTransform="translate(-0.5,6.75)" />
    <linearGradient
       x1="58"
       y1="157"
       x2="371.5"
       y2="157"
       id="linearGradient3071"
       xlink:href="#linearGradient3065"
       gradientUnits="userSpaceOnUse" />
    <linearGradient
       x1="24.04163"
       y1="215.04311"
       x2="340.82547"
       y2="215.04311"
       id="linearGradient3084"
       xlink:href="#linearGradient3041"
       gradientUnits="userSpaceOnUse" />
    <linearGradient
       x1="51.5"
       y1="197.3537"
       x2="51.5"
       y2="137.49948"
       id="linearGradient3086"
       xlink:href="#linearGradient3055"
       gradientUnits="userSpaceOnUse"
       gradientTransform="translate(-0.5,6.75)" />
    <linearGradient
       x1="58"
       y1="157"
       x2="371.5"
       y2="157"
       id="linearGradient3088"
       xlink:href="#linearGradient3065"
       gradientUnits="userSpaceOnUse" />
    <linearGradient
       x1="24.04163"
       y1="215.04311"
       x2="340.82547"
       y2="215.04311"
       id="linearGradient3108"
       xlink:href="#linearGradient3041"
       gradientUnits="userSpaceOnUse" />
    <linearGradient
       x1="51.5"
       y1="197.3537"
       x2="51.5"
       y2="137.49948"
       id="linearGradient3110"
       xlink:href="#linearGradient3055"
       gradientUnits="userSpaceOnUse"
       gradientTransform="translate(-0.5,6.75)" />
    <linearGradient
       x1="58"
       y1="157"
       x2="371.5"
       y2="157"
       id="linearGradient3112"
       xlink:href="#linearGradient3065"
       gradientUnits="userSpaceOnUse" />
    <linearGradient
       x1="24.04163"
       y1="215.04311"
       x2="340.82547"
       y2="215.04311"
       id="linearGradient3120"
       xlink:href="#linearGradient3041"
       gradientUnits="userSpaceOnUse" />
    <linearGradient
       x1="51.5"
       y1="197.3537"
       x2="51.5"
       y2="137.49948"
       id="linearGradient3122"
       xlink:href="#linearGradient3055"
       gradientUnits="userSpaceOnUse"
       gradientTransform="translate(-0.5,6.75)" />
    <linearGradient
       x1="58"
       y1="157"
       x2="371.5"
       y2="157"
       id="linearGradient3124"
       xlink:href="#linearGradient3065"
       gradientUnits="userSpaceOnUse" />
    <mask
       id="mask3114">
      <g
         id="g3073">
        <rect
           width="316.78384"
           height="33.941124"
           x="24.04163"
           y="198.07254"
           style="opacity:1;fill:url(#linearGradient3120);fill-opacity:1;fill-rule:nonzero;stroke:none;stroke-width:15;stroke-linecap:round;stroke-linejoin:round;stroke-miterlimit:4;stroke-dasharray:none;stroke-dashoffset:0;stroke-opacity:1"
           id="rect3039" />
        <rect
           width="41"
           height="59.75"
           x="24"
           y="144.25"
           style="opacity:1;fill:url(#linearGradient3122);fill-opacity:1;fill-rule:nonzero;stroke:none;stroke-width:15;stroke-linecap:round;stroke-linejoin:round;stroke-miterlimit:4;stroke-dasharray:none;stroke-dashoffset:0;stroke-opacity:1"
           id="rect3053" />
        <rect
           width="313.5"
           height="78"
           x="58"
           y="118"
           style="opacity:1;fill:url(#linearGradient3124);fill-opacity:1;fill-rule:nonzero;stroke:none;stroke-width:15;stroke-linecap:round;stroke-linejoin:round;stroke-miterlimit:4;stroke-dasharray:none;stroke-dashoffset:0;stroke-opacity:1"
           id="rect3063" />
      </g>
    </mask>
    <linearGradient
       x1="24.04163"
       y1="215.04311"
       x2="340.82547"
       y2="215.04311"
       id="linearGradient1923"
       xlink:href="#linearGradient3041"
       gradientUnits="userSpaceOnUse" />
    <linearGradient
       x1="51.5"
       y1="197.3537"
       x2="51.5"
       y2="137.49948"
       id="linearGradient1925"
       xlink:href="#linearGradient3055"
       gradientUnits="userSpaceOnUse"
       gradientTransform="translate(-0.5,6.75)" />
    <linearGradient
       x1="58"
       y1="157"
       x2="371.5"
       y2="157"
       id="linearGradient1927"
       xlink:href="#linearGradient3065"
       gradientUnits="userSpaceOnUse" />
    <linearGradient
       x1="24.04163"
       y1="215.04311"
       x2="340.82547"
       y2="215.04311"
       id="linearGradient1935"
       xlink:href="#linearGradient3041"
       gradientUnits="userSpaceOnUse" />
    <linearGradient
       x1="51.5"
       y1="197.3537"
       x2="51.5"
       y2="137.49948"
       id="linearGradient1937"
       xlink:href="#linearGradient3055"
       gradientUnits="userSpaceOnUse"
       gradientTransform="translate(-0.5,6.75)" />
    <linearGradient
       x1="58"
       y1="157"
       x2="371.5"
       y2="157"
       id="linearGradient1939"
       xlink:href="#linearGradient3065"
       gradientUnits="userSpaceOnUse" />
    <mask
       id="mask1929">
      <g
         transform="matrix(1,0,0,-1,216,226.0137)"
         id="g1915">
        <rect
           width="316.78384"
           height="33.941124"
           x="24.04163"
           y="198.07254"
           style="opacity:1;fill:url(#linearGradient1935);fill-opacity:1;fill-rule:nonzero;stroke:none;stroke-width:15;stroke-linecap:round;stroke-linejoin:round;stroke-miterlimit:4;stroke-dasharray:none;stroke-dashoffset:0;stroke-opacity:1"
           id="rect1917" />
        <rect
           width="41"
           height="59.75"
           x="24"
           y="144.25"
           style="opacity:1;fill:url(#linearGradient1937);fill-opacity:1;fill-rule:nonzero;stroke:none;stroke-width:15;stroke-linecap:round;stroke-linejoin:round;stroke-miterlimit:4;stroke-dasharray:none;stroke-dashoffset:0;stroke-opacity:1"
           id="rect1919" />
        <rect
           width="313.5"
           height="78"
           x="58"
           y="118"
           style="opacity:1;fill:url(#linearGradient1939);fill-opacity:1;fill-rule:nonzero;stroke:none;stroke-width:15;stroke-linecap:round;stroke-linejoin:round;stroke-miterlimit:4;stroke-dasharray:none;stroke-dashoffset:0;stroke-opacity:1"
           id="rect1921" />
      </g>
    </mask>
  </defs>
  <path
     id="path1882"
     d="M 10.333543,36.658685 C 11.781763,42.017045 11.351583,43.656735 17.739873,43.024815 C 23.778133,42.427515 26.386523,39.426925 23.312613,37.729275 C 20.171203,35.994345 23.031203,34.302455 24.965273,33.583885 C 26.899343,32.865305 29.410893,32.083105 30.932783,33.112125 C 32.454673,34.141155 29.343633,35.875885 31.024713,37.859145 C 32.727483,39.868005 39.809373,35.941335 42.237443,34.683425 C 44.595573,33.461755 42.478413,29.872015 40.963483,27.351625 C 39.409713,24.766615 37.429733,24.575505 35.918573,26.680255 C 34.448973,28.727105 32.961523,27.714425 31.880103,25.046655 C 30.829383,22.454615 32.295513,21.626425 34.186053,22.694795 C 36.076603,23.763155 39.524153,22.508135 36.009923,17.228735 C 32.455023,11.888254 32.547893,16.714585 26.661733,17.236195 C 20.687873,17.765575 26.802463,11.882114 17.894043,13.580145 C 9.0709233,15.261905 20.837763,18.918455 14.725043,19.689415 C 8.5253231,20.471345 4.4643931,20.214525 6.5752431,22.428975 C 8.6444931,24.599775 9.6623233,27.661445 7.6342831,28.691695 C 5.6062531,29.721935 -0.6997969,25.875935 0.66168306,33.384245 C 2.0202731,40.876545 8.8911633,31.321965 10.333543,36.658685 z "
     style="fill:url(#linearGradient7168);fill-opacity:1;fill-rule:evenodd;stroke:none;stroke-width:1;stroke-linecap:butt;stroke-linejoin:miter;stroke-miterlimit:4;stroke-dasharray:none;stroke-opacity:1" />
  <g
     id="g3189">
    <path
       id="path3096"
       style="fill:#000080;fill-opacity:1;fill-rule:evenodd;stroke:none;stroke-width:15;stroke-linecap:round;stroke-linejoin:round;stroke-miterlimit:4;stroke-dashoffset:0;stroke-opacity:1"
       d="M 31.464101,14.219206 C 31.464101,15.274906 30.607301,16.361285 29.551601,16.644159 C 28.495901,16.927033 27.639101,16.299812 27.639101,15.244112 C 27.639101,14.188412 28.495901,13.102033 29.551601,12.819159 C 30.607301,12.536285 31.464101,13.163506 31.464101,14.219206 z M 29.007851,14.296106 C 28.768482,14.664977 28.660362,15.317431 28.365203,15.049621 C 28.221542,14.919272 28.424638,14.247382 28.651601,13.979063 C 28.860618,13.731958 29.366166,13.264064 29.584145,13.363209 C 29.984235,13.545186 29.270871,13.890789 29.007851,14.296106 z " />
    <path
       transform="matrix(7.5e-2,-2.0096189e-2,0,7.5e-2,14.589101,5.1658485)"
       id="path3154"
       mask="url(#mask3114)"
       style="fill:#000080;fill-opacity:1;fill-rule:evenodd;stroke:none;stroke-width:1px;stroke-linecap:butt;stroke-linejoin:miter;stroke-opacity:1"
       d="M 354,202 C 380,178 385,128 197,128 C 102.49868,128 27.499008,151.61959 27.499008,178.5 C 27.499008,200.77248 66.5,229 200,229 C 274.9808,229 298.32116,222.58113 304.67142,221.61764 C 309.2269,220.92646 339.04662,224.54785 337.53009,209.22013 C 336.53371,199.14966 320.10476,206.45848 311.41421,210.82843 C 297.19147,217.98018 270.11052,222.35355 200,222.35355 C -31.175983,222.35355 -7.7903763,134 197,134 C 421.0558,134 354,204 354,202 z " />
    <path
       id="path3168"
       mask="url(#mask3114)"
       style="fill:#000080;fill-opacity:1;fill-rule:evenodd;stroke:none;stroke-width:1px;stroke-linecap:butt;stroke-linejoin:miter;stroke-opacity:1"
       transform="matrix(0,7.5e-2,-7.5e-2,2.0096189e-2,42.925233,-3.8379284)"
       d="M 354,202 C 380,178 385,128 197,128 C 102.49868,128 27.499008,151.61959 27.499008,178.5 C 27.499008,200.77248 66.5,229 200,229 C 274.9808,229 298.32116,222.58113 304.67142,221.61764 C 309.2269,220.92646 339.04662,224.54785 337.53009,209.22013 C 336.53371,199.14966 320.10476,206.45848 311.41421,210.82843 C 297.19147,217.98018 270.11052,222.35355 200,222.35355 C -31.175983,222.35355 -7.7903763,134 197,134 C 421.0558,134 354,204 354,202 z " />
  </g>
  <path
     d="M 19.206981,33.95871 C 17.020469,42.400046 10.525731,40.634844 13.881981,25.035538 C 12.062849,25.522973 10.544849,25.92972 8.6319806,26.442272 C 8.4819806,31.094964 8.2463006,35.50432 7.5819806,38.123619 C 6.1596885,43.731493 2.2552035,41.680827 5.3319805,37.976505 C 7.2224455,35.700459 7.4781505,29.2958 7.5819806,26.723618 C 4.6816105,27.50077 4.1757285,28.198821 2.3319805,30.830352 C 2.3319805,30.830352 3.1127235,25.671152 7.7882306,24.418354 L 19.431981,21.29842 L 19.431981,23.54842 C 19.431981,23.54842 16.713231,24.276907 15.081981,24.713999 C 13.488231,36.728544 15.632969,38.159326 19.206981,33.95871 z "
     style="fill:#000080;fill-opacity:1;fill-rule:evenodd;stroke:none;stroke-width:1px;stroke-linecap:butt;stroke-linejoin:miter;stroke-opacity:1"
     id="path2988" />
</svg>
