<?xml version="1.0" encoding="UTF-8" standalone="no"?>
<svg
   version="1.1"
   width="350"
   height="350"
   viewBox="0 0 350 350"
   xml:space="preserve"
   id="svg11"
   sodipodi:docname="balance.svg"
   inkscape:version="1.2-dev (8a200a5f, 2021-09-02)"
   xmlns:inkscape="http://www.inkscape.org/namespaces/inkscape"
   xmlns:sodipodi="http://sodipodi.sourceforge.net/DTD/sodipodi-0.dtd"
   xmlns:xlink="http://www.w3.org/1999/xlink"
   xmlns="http://www.w3.org/2000/svg"
   xmlns:svg="http://www.w3.org/2000/svg"><sodipodi:namedview
   id="namedview13"
   pagecolor="#ffffff"
   bordercolor="#666666"
   borderopacity="1.0"
   inkscape:pageshadow="2"
   inkscape:pageopacity="0.0"
   inkscape:pagecheckerboard="0"
   showgrid="false"
   inkscape:zoom="1.1685714"
   inkscape:cx="78.728606"
   inkscape:cy="98.838631"
   inkscape:window-width="1920"
   inkscape:window-height="1001"
   inkscape:window-x="-9"
   inkscape:window-y="-9"
   inkscape:window-maximized="1"
   inkscape:current-layer="svg11" />
<desc
   id="desc2">Created with Fabric.js 1.7.22</desc>
<defs
   id="defs4"><linearGradient
   inkscape:collect="always"
   id="linearGradient37998"><stop
     style="stop-color:#d4085d;stop-opacity:1;"
     offset="0"
     id="stop37994" /><stop
     style="stop-color:#ff6f0f;stop-opacity:1;"
     offset="1"
     id="stop37996" /></linearGradient><linearGradient
   inkscape:collect="always"
   id="linearGradient857"><stop
     style="stop-color:#d4085d;stop-opacity:1;"
     offset="0"
     id="stop853" /><stop
     style="stop-color:#ff6f0f;stop-opacity:1;"
     offset="1"
     id="stop855" /></linearGradient>
<radialGradient
   inkscape:collect="always"
   xlink:href="#linearGradient857"
   id="radialGradient861"
   cx="45.0005"
   cy="45.0005"
   fx="45.0005"
   fy="45.0005"
   r="45.5005"
   gradientTransform="matrix(1,0,0,0.70215712,0,13.403079)"
   gradientUnits="userSpaceOnUse" /><radialGradient
   inkscape:collect="always"
   xlink:href="#linearGradient857"
   id="radialGradient863"
   gradientUnits="userSpaceOnUse"
   gradientTransform="matrix(1,0,0,0.70215712,0,13.403079)"
   cx="45.0005"
   cy="45.0005"
   fx="45.0005"
   fy="45.0005"
   r="45.5005" /><radialGradient
   inkscape:collect="always"
   xlink:href="#linearGradient857"
   id="radialGradient865"
   gradientUnits="userSpaceOnUse"
   gradientTransform="matrix(1,0,0,0.70215712,0,13.403079)"
   cx="45.0005"
   cy="45.0005"
   fx="45.0005"
   fy="45.0005"
   r="45.5005" /><linearGradient
   inkscape:collect="always"
   xlink:href="#linearGradient857"
   id="linearGradient30257"
   x1="27.643641"
   y1="46.049812"
   x2="324.14365"
   y2="46.049812"
   gradientUnits="userSpaceOnUse"
   gradientTransform="matrix(1.0805613,0,0,1.0805613,-1.1107388,-2.5496289)" /><linearGradient
   inkscape:collect="always"
   xlink:href="#linearGradient37998"
   id="linearGradient38000"
   x1="27.143641"
   y1="46.049812"
   x2="324.64364"
   y2="46.049812"
   gradientUnits="userSpaceOnUse"
   gradientTransform="matrix(1.59511,0,0,1.5951099,-42.022059,-34.956828)" /></defs>
<g
   id="icon"
   style="opacity:1;fill:none;fill-rule:nonzero;stroke:url(#radialGradient861);stroke-width:2.74807;stroke-linecap:butt;stroke-linejoin:miter;stroke-miterlimit:10;stroke-dasharray:none"
   transform="matrix(3.7979203,0,0,3.7854516,3.9106815,52.183267)">
	<path
   d="m 45,23.124 c -1.654,0 -3,-1.346 -3,-3 0,-1.654 1.346,-3 3,-3 1.654,0 3,1.346 3,3 0,1.654 -1.346,3 -3,3 z m 0,-4 c -0.551,0 -1,0.449 -1,1 0,0.551 0.449,1 1,1 0.551,0 1,-0.449 1,-1 0,-0.551 -0.449,-1 -1,-1 z"
   style="opacity:1;fill:#000000;fill-rule:nonzero;stroke:url(#radialGradient863);stroke-width:2.74807;stroke-linecap:butt;stroke-linejoin:miter;stroke-miterlimit:10;stroke-dasharray:none"
   stroke-linecap="round"
   id="path6" />
	<path
   d="M 89,47.864 H 86.667 L 78.689,22.775 c 0.826,-0.594 1.37,-1.558 1.37,-2.651 0,-1.803 -1.467,-3.271 -3.271,-3.271 -1.452,0 -2.672,0.958 -3.097,2.27 L 51.484,19.1 C 50.989,15.962 48.275,13.552 45,13.552 c -3.275,0 -5.99,2.41 -6.484,5.548 l -22.207,0.024 c -0.426,-1.312 -1.645,-2.27 -3.097,-2.27 -1.803,0 -3.271,1.467 -3.271,3.271 0,1.093 0.544,2.056 1.37,2.651 L 3.333,47.866 H 1 c -0.552,0 -1,0.447 -1,1 v 3.084 c 0,2.652 2.158,4.811 4.811,4.811 h 16.802 c 2.653,0 4.811,-2.158 4.811,-4.811 v -3.084 c 0,-0.553 -0.448,-1 -1,-1 H 23.091 L 15.113,22.777 c 0.561,-0.404 0.98,-0.981 1.197,-1.652 L 38.508,21.1 c 0.304,2.025 1.53,3.75 3.241,4.729 v 32.855 c -5.503,0.571 -9.868,5.007 -10.344,10.537 h -2.863 c -0.552,0 -1,0.447 -1,1 v 5.228 c 0,0.553 0.448,1 1,1 h 32.916 c 0.553,0 1,-0.447 1,-1 v -5.228 c 0,-0.553 -0.447,-1 -1,-1 H 58.595 C 58.12,63.69 53.755,59.254 48.251,58.684 V 25.828 c 1.711,-0.979 2.937,-2.703 3.241,-4.729 l 22.198,0.024 c 0.217,0.671 0.636,1.248 1.197,1.651 l -7.978,25.09 h -2.333 c -0.553,0 -1,0.447 -1,1 v 3.084 c 0,2.652 2.158,4.811 4.811,4.811 H 85.19 c 2.652,0 4.811,-2.158 4.811,-4.811 V 48.864 C 90,48.312 89.553,47.864 89,47.864 Z M 76.788,18.854 c 0.7,0 1.271,0.57 1.271,1.271 0,0.701 -0.57,1.271 -1.271,1.271 -0.701,0 -1.271,-0.57 -1.271,-1.271 0,-0.701 0.571,-1.271 1.271,-1.271 z m -63.576,0 c 0.701,0 1.271,0.57 1.271,1.271 0,0.701 -0.57,1.271 -1.271,1.271 -0.701,0 -1.271,-0.57 -1.271,-1.271 0,-0.701 0.57,-1.271 1.271,-1.271 z m 11.212,33.094 c 0,1.55 -1.261,2.811 -2.811,2.811 H 4.811 C 3.261,54.759 2,53.498 2,51.948 v -2.084 h 22.424 z m -18.992,-4.084 7.78,-24.465 7.78,24.465 z M 60.458,74.448 H 29.542 V 71.22 h 2.813 25.291 2.813 v 3.228 z M 56.594,69.221 H 33.406 c 0.501,-4.825 4.592,-8.601 9.548,-8.601 h 4.091 c 4.957,0 9.047,3.776 9.549,8.601 z M 46.251,58.62 H 43.749 V 26.573 c 0.405,0.078 0.823,0.123 1.251,0.123 0.428,0 0.846,-0.044 1.251,-0.123 z M 45,24.696 c -2.521,0 -4.572,-2.051 -4.572,-4.572 0,-2.521 2.051,-4.572 4.572,-4.572 2.521,0 4.572,2.051 4.572,4.572 0,2.521 -2.051,4.572 -4.572,4.572 z m 31.788,-1.298 7.78,24.466 H 69.008 Z M 88,51.948 c 0,1.55 -1.261,2.811 -2.811,2.811 H 68.387 c -1.55,0 -2.811,-1.261 -2.811,-2.811 V 49.864 H 88 Z"
   style="opacity:1;fill:#000000;fill-rule:nonzero;stroke:url(#radialGradient865);stroke-width:2.74807;stroke-linecap:butt;stroke-linejoin:miter;stroke-miterlimit:10;stroke-dasharray:none"
   stroke-linecap="round"
   id="path8" />
</g>
<text
   xml:space="preserve"
   style="font-style:normal;font-weight:normal;font-size:102.087px;line-height:2.25;font-family:sans-serif;fill:url(#linearGradient38000);fill-opacity:1;fill-rule:evenodd;stroke:#000000;stroke-width:1.172;stroke-miterlimit:4;stroke-dasharray:none;stroke-opacity:0.407843"
   x="-7.896843"
   y="75.608978"
   id="text7005"
   transform="scale(0.80034896,1.249455)"><tspan
     sodipodi:role="line"
     id="tspan7003"
     x="-7.896843"
     y="75.608978"
     style="font-style:normal;font-variant:normal;font-weight:normal;font-stretch:normal;font-size:102.087px;font-family:'Yu Gothic UI';-inkscape-font-specification:'Yu Gothic UI';fill:url(#linearGradient38000);fill-opacity:1;fill-rule:evenodd;stroke:#000000;stroke-width:1.172;stroke-miterlimit:4;stroke-dasharray:none;stroke-opacity:0.407843">DYNAMIC</tspan></text></svg>
