<?xml version="1.0" encoding="iso-8859-1"?>
<!-- Uploaded to: SVG Repo, www.svgrepo.com, Generator: SVG Repo Mixer Tools -->
<svg height="800px" width="800px" version="1.1" id="Layer_1" xmlns="http://www.w3.org/2000/svg" xmlns:xlink="http://www.w3.org/1999/xlink" 
	 viewBox="0 0 512 512" xml:space="preserve">
<path style="fill:#F20013;" d="M139.542,450.595H17.049c-7.543,0-13.659-6.115-13.659-13.659v-47.731
	c0-7.543,6.115-13.659,13.659-13.659h122.493c7.543,0,13.659,6.115,13.659,13.659v47.731
	C153.201,444.48,147.086,450.595,139.542,450.595z"/>
<g>
	<path style="fill:#FF4B00;" d="M319.35,450.595H196.857c-7.543,0-13.659-6.115-13.659-13.659v-47.731
		c0-7.543,6.115-13.659,13.659-13.659H319.35c7.543,0,13.659,6.115,13.659,13.659v47.731
		C333.009,444.48,326.894,450.595,319.35,450.595z"/>
	<path style="fill:#FF4B00;" d="M228.701,345.771H106.207c-7.543,0-13.659-6.115-13.659-13.659v-47.731
		c0-7.543,6.115-13.659,13.659-13.659H228.7c7.543,0,13.659,6.115,13.659,13.659v47.731
		C242.36,339.657,236.244,345.771,228.701,345.771z"/>
	<path style="fill:#FF4B00;" d="M50.447,270.723H0v75.049h50.447c6.59,0,11.933-5.343,11.933-11.933v-51.183
		C62.38,276.065,57.037,270.723,50.447,270.723z"/>
</g>
<path style="fill:#F20013;" d="M409.67,345.771H287.177c-7.543,0-13.659-6.115-13.659-13.659v-47.731
	c0-7.543,6.115-13.659,13.659-13.659H409.67c7.543,0,13.659,6.115,13.659,13.659v47.731
	C423.329,339.657,417.213,345.771,409.67,345.771z"/>
<path style="fill:#FF4B00;" d="M498.341,450.595H375.848c-7.543,0-13.659-6.115-13.659-13.659v-47.731
	c0-7.543,6.115-13.659,13.659-13.659h122.493c7.543,0,13.659,6.115,13.659,13.659v47.731
	C512,444.48,505.885,450.595,498.341,450.595z"/>
<path style="fill:#F20013;" d="M136.246,241.278H13.753c-7.543,0-13.659-6.115-13.659-13.659v-47.731
	c0-7.543,6.115-13.659,13.659-13.659h122.493c7.543,0,13.659,6.115,13.659,13.659v47.731
	C149.905,235.162,143.789,241.278,136.246,241.278z"/>
<path style="fill:#FF4B00;" d="M316.054,241.278H193.56c-7.543,0-13.659-6.115-13.659-13.659v-47.731
	c0-7.543,6.115-13.659,13.659-13.659h122.493c7.543,0,13.659,6.115,13.659,13.659v47.731
	C329.713,235.162,323.598,241.278,316.054,241.278z"/>
<path style="fill:#F20013;" d="M225.405,136.454H102.911c-7.543,0-13.659-6.115-13.659-13.659V75.064
	c0-7.543,6.115-13.659,13.659-13.659h122.493c7.543,0,13.659,6.115,13.659,13.659v47.731
	C239.063,130.339,232.948,136.454,225.405,136.454z"/>
<path style="fill:#FF4B00;" d="M47.151,61.405H0v75.049h47.151c6.59,0,11.933-5.343,11.933-11.933V73.338
	C59.083,66.748,53.741,61.405,47.151,61.405z"/>
</svg>