<?xml version="1.0" encoding="iso-8859-1"?>
<!-- Uploaded to: SVG Repo, www.svgrepo.com, Generator: SVG Repo Mixer Tools -->
<svg height="800px" width="800px" version="1.1" id="Layer_1" xmlns="http://www.w3.org/2000/svg" xmlns:xlink="http://www.w3.org/1999/xlink" 
	 viewBox="0 0 408.759 408.759" xml:space="preserve">
<g>
	<path style="fill:#FFBE00;" d="M204.385,408.759c-58.121,0-113.675-24.868-152.418-68.227
		C18.46,303.057,0.005,254.703,0.005,204.379C0.005,91.683,91.689,0,204.385,0c50.317,0,98.674,18.453,136.163,51.964
		c43.348,38.761,68.207,94.315,68.207,152.415C408.755,317.074,317.075,408.759,204.385,408.759"/>
	<path style="fill:#F4502A;" d="M377.759,204.379c0,9.08-0.7,17.999-2.05,26.7c-1.331,8.62-3.3,17.039-5.861,25.199
		c-19.48,62.179-73.03,109.291-138.779,119.43c-3.08,0.48-6.181,0.87-9.3,1.18c-5.721,0.58-11.51,0.87-17.38,0.87
		c-51.39,0-97.561-22.361-129.301-57.881c-0.26-0.29-0.519-0.589-0.79-0.879c-26.95-30.56-43.289-70.681-43.289-114.62
		c0-95.751,77.619-173.381,173.38-173.381c43.95,0,84.069,16.35,114.629,43.29c0.29,0.27,0.591,0.53,0.881,0.79
		C355.409,106.838,377.759,152.989,377.759,204.379"/>
	<path style="fill:#C29100;" d="M74.342,319.046c3.837,4.347,7.885,8.496,12.136,12.439c-3.973-3.689-7.776-7.564-11.389-11.607
		C74.842,319.603,74.597,319.321,74.342,319.046 M65.406,308.053c0.011,0.014,0.021,0.027,0.031,0.042
		C65.427,308.081,65.417,308.067,65.406,308.053 M65.054,307.58c0.032,0.044,0.066,0.089,0.099,0.133
		C65.12,307.669,65.087,307.624,65.054,307.58 M64.725,307.135c0.068,0.092,0.139,0.188,0.207,0.28
		C64.864,307.323,64.793,307.228,64.725,307.135 M64.441,306.749c0.073,0.1,0.142,0.193,0.215,0.293
		C64.584,306.943,64.513,306.847,64.441,306.749 M64.143,306.34c0.09,0.124,0.176,0.241,0.267,0.365
		C64.321,306.585,64.231,306.461,64.143,306.34 M163.56,35.832C87.503,54.187,31.004,122.679,31.004,204.37
		c0,38.107,12.288,73.34,33.125,101.952c-20.836-28.615-33.12-63.843-33.12-101.943C31.009,122.689,87.503,54.189,163.56,35.832"/>
	<path style="fill:#BA3D20;" d="M204.383,30.999c-14.062,0-27.731,1.673-40.823,4.833C87.503,54.189,31.009,122.689,31.009,204.379
		c0,38.1,12.284,73.328,33.12,101.943c0.004,0.005,0.01,0.014,0.014,0.019c0.088,0.121,0.178,0.245,0.267,0.365
		c0.009,0.012,0.023,0.031,0.032,0.043c0.072,0.099,0.143,0.194,0.215,0.293c0.023,0.031,0.046,0.063,0.069,0.094
		c0.068,0.092,0.139,0.188,0.207,0.28c0.041,0.056,0.081,0.109,0.122,0.165c0.033,0.044,0.066,0.089,0.099,0.133
		c0.084,0.114,0.169,0.227,0.254,0.341c0.01,0.014,0.021,0.028,0.031,0.042c2.82,3.771,5.792,7.425,8.904,10.951
		c0.255,0.275,0.5,0.558,0.747,0.832c3.613,4.043,7.416,7.919,11.389,11.607c1.953,1.812,3.952,3.583,5.988,5.304
		c-25.531-30.2-40.921-69.239-40.921-111.88c0-95.751,77.621-173.37,173.381-173.37c42.629,0,81.68,15.39,111.869,40.919
		C305.004,54.869,257.484,30.999,204.383,30.999"/>
	<path style="fill:#BA3D20;" d="M276.012,131.382L131.383,276.013l99.686,99.695c65.749-10.14,119.299-57.251,138.779-119.43
		c2.561-8.16,4.53-16.579,5.861-25.199l-91.242-91.242"/>
	<polygon style="fill:#FFFFFF;" points="284.473,139.843 268.917,124.286 204.379,188.823 139.842,124.286 124.286,139.843 
		188.823,204.379 124.286,268.916 139.842,284.472 204.379,219.936 268.917,284.472 284.473,268.916 219.936,204.379 	"/>
</g>
</svg>