<?xml version="1.0" encoding="iso-8859-1"?>
<!-- Uploaded to: SVG Repo, www.svgrepo.com, Generator: SVG Repo Mixer Tools -->
<svg version="1.1" id="Layer_1" xmlns="http://www.w3.org/2000/svg" xmlns:xlink="http://www.w3.org/1999/xlink" 
	 viewBox="0 0 512.002 512.002" xml:space="preserve">
<rect x="493.1" y="280.577" style="fill:#1D1D1F;" width="18.902" height="89.856"/>
<path style="fill:#DFDEE1;" d="M127.382,296.35c47.558,16.304,94.786,19.81,133.826,12.382c5.671-1.079,10.327-5.122,12.199-10.583
	l49.713-145.011c1.87-5.454,0.671-11.516-3.14-15.842c-26.271-29.818-65.715-56.026-113.273-72.33s-94.786-19.81-133.826-12.381
	c-5.671,1.079-10.327,5.122-12.199,10.583L10.969,208.178c-1.87,5.454-0.671,11.516,3.14,15.842
	C40.379,253.838,79.824,280.046,127.382,296.35z"/>
<g>
	<path style="fill:#BFBDC3;" d="M102.016,49.173L35.022,244.589c8.486,7.3,17.793,14.251,27.845,20.73l73.856-215.432
		C124.81,48.837,113.197,48.614,102.016,49.173z"/>
	<path style="fill:#BFBDC3;" d="M267.361,93.557L192.82,310.987c11.812,1.241,23.353,1.678,34.49,1.348l68.114-198.682
		C286.831,106.559,277.449,99.823,267.361,93.557z"/>
</g>
<rect x="71.086" y="250.124" style="fill:#006D71;" width="33.063" height="85.415"/>
<path style="fill:#00A3AA;" d="M16.221,311.297h360.577v76.045H0v-59.824C0,318.559,7.263,311.297,16.221,311.297z"/>
<path style="fill:#A8DA64;" d="M506.967,371.28c0,8.871-7.191,16.062-16.062,16.062H336.141V155.431
	c0-8.871,7.191-16.062,16.062-16.062h81.012c5.443,0,10.516,2.757,13.477,7.324l57.69,88.98c1.687,2.602,2.584,5.636,2.584,8.737
	V371.28z"/>
<polygon style="fill:#FFFFFF;" points="361.955,161.922 361.955,233.048 474.151,233.048 427.127,161.922 "/>
<polygon style="fill:#006D71;" points="435.326,174.322 427.127,161.922 361.955,161.922 361.955,174.322 "/>
<path style="fill:#7FA24D;" d="M403.285,274.376h-30.308c-6.086,0-11.021-4.935-11.021-11.021s4.935-11.021,11.021-11.021h30.308
	c6.086,0,11.021,4.935,11.021,11.021S409.371,274.376,403.285,274.376z"/>
<path style="fill:#FFFFFF;" d="M403.285,270.506h-30.308c-6.086,0-11.021-4.935-11.021-11.021c0-6.086,4.935-11.021,11.021-11.021
	h30.308c6.086,0,11.021,4.935,11.021,11.021S409.371,270.506,403.285,270.506z"/>
<path style="fill:#006D71;" d="M174.204,338.849c-21.998,0-41.692,10.046-54.742,25.789c-13.049-15.743-32.744-25.789-54.742-25.789
	c-28.735,0-53.525,17.149-64.72,41.74v6.752h241.587C232.123,359.191,205.502,338.849,174.204,338.849z"/>
<path style="fill:#7FA24D;" d="M421.554,338.849c-31.299,0-57.919,20.342-67.384,48.492h134.766
	C479.472,359.191,452.853,338.849,421.554,338.849z"/>
<circle style="fill:#1A1B1C;" cx="64.723" cy="409.935" r="53.198"/>
<circle style="fill:#DFDEE1;" cx="64.723" cy="409.935" r="16.729"/>
<circle style="fill:#1A1B1C;" cx="173.991" cy="409.935" r="53.198"/>
<circle style="fill:#DFDEE1;" cx="173.991" cy="409.935" r="16.729"/>
<circle style="fill:#1A1B1C;" cx="421.554" cy="409.935" r="53.198"/>
<circle style="fill:#DFDEE1;" cx="421.554" cy="409.935" r="16.729"/>
<g>
	<path style="fill:#BFBDC3;" d="M64.72,399.179c8.216,0,15.034,5.929,16.443,13.739c0.175-0.971,0.28-1.965,0.28-2.984
		c0-9.236-7.487-16.723-16.723-16.723s-16.723,7.487-16.723,16.723c0,1.021,0.106,2.015,0.28,2.984
		C49.686,405.11,56.504,399.179,64.72,399.179z"/>
	<path style="fill:#BFBDC3;" d="M173.991,399.179c8.215,0,15.034,5.929,16.443,13.739c0.175-0.971,0.28-1.965,0.28-2.984
		c0-9.236-7.487-16.723-16.723-16.723c-9.236,0-16.723,7.487-16.723,16.723c0,1.021,0.106,2.015,0.28,2.984
		C158.957,405.11,165.774,399.179,173.991,399.179z"/>
	<path style="fill:#BFBDC3;" d="M421.554,399.179c8.215,0,15.034,5.929,16.443,13.739c0.175-0.971,0.28-1.965,0.28-2.984
		c0-9.236-7.487-16.723-16.723-16.723c-9.236,0-16.723,7.487-16.723,16.723c0,1.021,0.106,2.015,0.28,2.984
		C406.52,405.11,413.338,399.179,421.554,399.179z"/>
</g>
<g>
	<path style="fill:#006D71;" d="M469.872,218.008h-9.168c-2.363,0-4.277-1.916-4.277-4.277l0,0c0-2.363,1.916-4.277,4.277-4.277
		h9.168c2.363,0,4.277,1.916,4.277,4.277l0,0C474.151,216.094,472.235,218.008,469.872,218.008z"/>
	<path style="fill:#006D71;" d="M469.872,249.225h-9.168c-2.363,0-4.277-1.916-4.277-4.277l0,0c0-2.363,1.916-4.277,4.277-4.277
		h9.168c2.363,0,4.277,1.916,4.277,4.277l0,0C474.151,247.31,472.235,249.225,469.872,249.225z"/>
</g>
<path style="fill:#7FA24D;" d="M451.657,259.485h-7.176c-6.496,0-11.762-5.266-11.762-11.762v-38.477
	c0-6.496,5.266-11.762,11.762-11.762h7.176c6.496,0,11.762,5.266,11.762,11.762v38.477
	C463.419,254.219,458.153,259.485,451.657,259.485z"/>
<rect x="469.159" y="270.504" style="fill:#FFDC35;" width="37.803" height="37.803"/>
<rect x="495.738" y="308.314" style="fill:#7FA24D;" width="11.219" height="62.118"/>
<rect x="469.159" y="270.504" style="fill:#FF9900;" width="9.87" height="37.803"/>
<rect x="469.159" y="270.504" style="fill:#FFEA8D;" width="37.803" height="7.205"/>
<rect x="310.205" y="255.589" style="fill:#7FA24D;" width="25.931" height="131.751"/>
</svg>