<?xml version="1.0" encoding="UTF-8" standalone="no"?>
<!-- Svg Vector Icons : http://www.onlinewebfonts.com/icon -->

<svg
   version="1.1"
   x="0px"
   y="0px"
   viewBox="0 0 1000 1000"
   enable-background="new 0 0 1000 1000"
   xml:space="preserve"
   id="svg16"
   sodipodi:docname="connect.svg"
   inkscape:version="1.2-dev (8a200a5f, 2021-09-02)"
   xmlns:inkscape="http://www.inkscape.org/namespaces/inkscape"
   xmlns:sodipodi="http://sodipodi.sourceforge.net/DTD/sodipodi-0.dtd"
   xmlns:xlink="http://www.w3.org/1999/xlink"
   xmlns="http://www.w3.org/2000/svg"
   xmlns:svg="http://www.w3.org/2000/svg"><defs
   id="defs20"><linearGradient
     inkscape:collect="always"
     id="linearGradient964"><stop
       style="stop-color:#ff6f0f;stop-opacity:1;"
       offset="0"
       id="stop960" /><stop
       style="stop-color:#d4075c;stop-opacity:1;"
       offset="1"
       id="stop962" /></linearGradient><radialGradient
     inkscape:collect="always"
     xlink:href="#linearGradient964"
     id="radialGradient966"
     cx="500"
     cy="500"
     fx="500"
     fy="500"
     r="466.32785"
     gradientTransform="matrix(1,0,0,1.0508226,0,-25.411307)"
     gradientUnits="userSpaceOnUse" /></defs><sodipodi:namedview
   id="namedview18"
   pagecolor="#ffffff"
   bordercolor="#666666"
   borderopacity="1.0"
   inkscape:pageshadow="2"
   inkscape:pageopacity="0.0"
   inkscape:pagecheckerboard="0"
   showgrid="false"
   inkscape:zoom="0.818"
   inkscape:cx="500"
   inkscape:cy="500.61125"
   inkscape:window-width="1920"
   inkscape:window-height="1001"
   inkscape:window-x="-9"
   inkscape:window-y="-9"
   inkscape:window-maximized="1"
   inkscape:current-layer="svg16" />
<metadata
   id="metadata2"> Svg Vector Icons : http://www.onlinewebfonts.com/icon </metadata>
<g
   id="g14"
   style="fill:url(#radialGradient966);fill-opacity:1"><path
     d="M724.1,477.8l76.1,80.3c67.3,71,35.3,210.7-6.7,250.6c-41.9,39.7-183.2,64.4-250.6-6.7l-76.1-80.2L724.1,477.8z"
     id="path4"
     style="fill:url(#radialGradient966);fill-opacity:1" /><path
     d="M521.7,595.8c13.1,13.8,12.6,35.7-1.3,48.9l0,0c-13.8,13.2-35.7,12.5-48.9-1.3l-91.8-96.8c-13.2-13.8-12.6-35.7,1.3-48.9l0,0c13.9-13.1,35.7-12.5,48.9,1.3L521.7,595.8z"
     id="path6"
     style="fill:url(#radialGradient966);fill-opacity:1" /><path
     d="M652.8,471.6c13.2,13.9,12.6,35.7-1.3,48.9l0,0c-13.9,13.2-35.7,12.5-48.9-1.3l-91.8-96.8c-13.2-13.8-12.6-35.7,1.3-48.9l0,0c13.9-13.1,35.7-12.5,48.9,1.3L652.8,471.6z"
     id="path8"
     style="fill:url(#radialGradient966);fill-opacity:1" /><path
     d="M247,167.7c-7.8-5.9-17-12.9-27.5-24L105,22.9C89.3,6.3,63.1,5.6,46.6,21.3C30,37,29.3,63.2,45,79.7l114.5,120.8c11.7,12.4,16.9,21.3,22.7,29.2c-25.9,59-33.9,155.9,18.6,211.3l76.1,80.2l257.3-243.9l-76.1-80.3C405.3,141.5,307.2,144.7,247,167.7z"
     id="path10"
     style="fill:url(#radialGradient966);fill-opacity:1" /><path
     d="M817.9,770.7c5.4,8.1,12,17.7,22.5,28.8L955,920.3c15.7,16.6,15,42.7-1.6,58.4c-16.6,15.7-42.7,15-58.4-1.6L780.5,856.3c-11.7-12.4-20.3-18.1-28-24.2c-60.3,22.7-157.5,25.5-210-29.9L466.5,722l257.3-243.9l76.1,80.2C852.6,614,844.2,711.8,817.9,770.7z"
     id="path12"
     style="fill:url(#radialGradient966);fill-opacity:1" /></g>
</svg>
