<?xml version="1.0" encoding="UTF-8" standalone="no"?>
<svg
   enable-background="new 0 0 24 24"
   height="24px"
   id="Layer_1"
   version="1.1"
   viewBox="0 0 24 24"
   width="24px"
   xml:space="preserve"
   sodipodi:docname="create_25percent_file.svg"
   inkscape:version="1.2.2 (732a01da63, 2022-12-09)"
   xmlns:inkscape="http://www.inkscape.org/namespaces/inkscape"
   xmlns:sodipodi="http://sodipodi.sourceforge.net/DTD/sodipodi-0.dtd"
   xmlns="http://www.w3.org/2000/svg"
   xmlns:svg="http://www.w3.org/2000/svg"><defs
     id="defs2042"><rect
       x="1562.6471"
       y="-12713.061"
       width="25982.318"
       height="12236.321"
       id="rect982" /><rect
       x="1562.6471"
       y="-12713.061"
       width="25982.318"
       height="12236.321"
       id="rect982-4" /></defs><sodipodi:namedview
     id="namedview2040"
     pagecolor="#ffffff"
     bordercolor="#000000"
     borderopacity="0.25"
     inkscape:showpageshadow="2"
     inkscape:pageopacity="0.0"
     inkscape:pagecheckerboard="0"
     inkscape:deskcolor="#d1d1d1"
     showgrid="false"
     inkscape:zoom="20.33239"
     inkscape:cx="10.574261"
     inkscape:cy="12.516974"
     inkscape:window-width="2400"
     inkscape:window-height="1321"
     inkscape:window-x="-9"
     inkscape:window-y="-9"
     inkscape:window-maximized="1"
     inkscape:current-layer="text980" /><g
     id="Structure"
     transform="matrix(0.00501558,0,0,-0.00727343,-76.370291,94.907697)"><path
       id="Structure_f0000"
       d="m 15897.476,10146.817 h -500 v 0 z"
       stroke="#191919"
       stroke-width="0.35 px"
       style="fill:#54ff00;fill-opacity:1;fill-rule:evenodd;stroke-width:0.35;stroke-miterlimit:4;stroke-dasharray:none" /><path
       id="Structure_f0001"
       d="m 15897.476,10646.817 v -500 0 z"
       stroke="#191919"
       stroke-width="0.35 px"
       style="fill:#54ff00;fill-opacity:1;fill-rule:evenodd;stroke-width:0.35;stroke-miterlimit:4;stroke-dasharray:none" /><path
       id="Structure_f0002"
       d="m 15397.476,10646.817 h 500 v 0 z"
       stroke="#191919"
       stroke-width="0.35 px"
       style="fill:#54ff00;fill-opacity:1;fill-rule:evenodd;stroke-width:0.35;stroke-miterlimit:4;stroke-dasharray:none" /><path
       id="Structure_f0003"
       d="m 15397.476,10146.817 v 500 0 z"
       stroke="#191919"
       stroke-width="0.35 px"
       style="fill:#54ff00;fill-opacity:1;fill-rule:evenodd;stroke-width:0.35;stroke-miterlimit:4;stroke-dasharray:none" /><path
       id="Structure_f0004"
       d="m 15897.476,10146.817 v 500 h -500 v -500 z"
       stroke="#191919"
       stroke-width="0.35 px"
       style="fill:#54ff00;fill-opacity:1;fill-rule:evenodd;stroke-width:0.35;stroke-miterlimit:4;stroke-dasharray:none" /><path
       id="Structure_f0005"
       d="m 15397.476,10146.817 h 500 v 500 h -500 z"
       stroke="#191919"
       stroke-width="0.35 px"
       style="fill:#54ff00;fill-opacity:1;fill-rule:evenodd;stroke-width:0.35;stroke-miterlimit:4;stroke-dasharray:none" /><title
       id="title8">b'Column'</title></g><g
     id="Structure001"
     transform="matrix(0.00501558,0,0,-0.00727343,-76.370291,94.907697)"><path
       id="Structure001_f0000"
       d="m 19897.476,10146.817 h -500 v 0 z"
       stroke="#191919"
       stroke-width="0.35 px"
       style="fill:#54ff00;fill-opacity:1;fill-rule:evenodd;stroke-width:0.35;stroke-miterlimit:4;stroke-dasharray:none" /><path
       id="Structure001_f0001"
       d="m 19897.476,10646.817 v -500 0 z"
       stroke="#191919"
       stroke-width="0.35 px"
       style="fill:#54ff00;fill-opacity:1;fill-rule:evenodd;stroke-width:0.35;stroke-miterlimit:4;stroke-dasharray:none" /><path
       id="Structure001_f0002"
       d="m 19397.476,10646.817 h 500 v 0 z"
       stroke="#191919"
       stroke-width="0.35 px"
       style="fill:#54ff00;fill-opacity:1;fill-rule:evenodd;stroke-width:0.35;stroke-miterlimit:4;stroke-dasharray:none" /><path
       id="Structure001_f0003"
       d="m 19397.476,10146.817 v 500 0 z"
       stroke="#191919"
       stroke-width="0.35 px"
       style="fill:#54ff00;fill-opacity:1;fill-rule:evenodd;stroke-width:0.35;stroke-miterlimit:4;stroke-dasharray:none" /><path
       id="Structure001_f0004"
       d="m 19897.476,10146.817 v 500 h -500 v -500 z"
       stroke="#191919"
       stroke-width="0.35 px"
       style="fill:#54ff00;fill-opacity:1;fill-rule:evenodd;stroke-width:0.35;stroke-miterlimit:4;stroke-dasharray:none" /><path
       id="Structure001_f0005"
       d="m 19397.476,10146.817 h 500 v 500 h -500 z"
       stroke="#191919"
       stroke-width="0.35 px"
       style="fill:#54ff00;fill-opacity:1;fill-rule:evenodd;stroke-width:0.35;stroke-miterlimit:4;stroke-dasharray:none" /><title
       id="title17">b'Column001'</title></g><g
     id="Wall"
     transform="matrix(0.00501558,0,0,-0.00727343,-76.370291,94.907697)"><path
       id="Wall_f0000"
       d="m 15897.476,10246.817 v 300 0 z"
       stroke="#191919"
       stroke-width="0.35 px"
       style="fill:#aa0000;fill-opacity:1;fill-rule:evenodd;stroke-width:0.35;stroke-miterlimit:4;stroke-dasharray:none" /><path
       id="Wall_f0001"
       d="m 16397.476,10246.817 h -500 v 0 z"
       stroke="#191919"
       stroke-width="0.35 px"
       style="fill:#aa0000;fill-opacity:1;fill-rule:evenodd;stroke-width:0.35;stroke-miterlimit:4;stroke-dasharray:none" /><path
       id="Wall_f0002"
       d="m 16397.476,10546.817 v -300 0 z"
       stroke="#191919"
       stroke-width="0.35 px"
       style="fill:#aa0000;fill-opacity:1;fill-rule:evenodd;stroke-width:0.35;stroke-miterlimit:4;stroke-dasharray:none" /><path
       id="Wall_f0003"
       d="m 15897.476,10546.817 v 0 h 500 v 0 z"
       stroke="#191919"
       stroke-width="0.35 px"
       style="fill:#aa0000;fill-opacity:1;fill-rule:evenodd;stroke-width:0.35;stroke-miterlimit:4;stroke-dasharray:none" /><path
       id="Wall_f0004"
       d="m 16397.476,10246.817 v 300 h -500 v -300 z"
       stroke="#191919"
       stroke-width="0.35 px"
       style="fill:#aa0000;fill-opacity:1;fill-rule:evenodd;stroke-width:0.35;stroke-miterlimit:4;stroke-dasharray:none" /><path
       id="Wall_f0005"
       d="m 16397.476,10246.817 h -500 v 300 h 500 z"
       stroke="#191919"
       stroke-width="0.35 px"
       style="fill:#aa0000;fill-opacity:1;fill-rule:evenodd;stroke-width:0.35;stroke-miterlimit:4;stroke-dasharray:none" /><path
       id="Wall_f0006"
       d="m 16397.476,10246.817 v 0 300 0 z"
       stroke="#191919"
       stroke-width="0.35 px"
       style="fill:#aa0000;fill-opacity:1;fill-rule:evenodd;stroke-width:0.35;stroke-miterlimit:4;stroke-dasharray:none" /><path
       id="Wall_f0007"
       d="m 16897.476,10246.817 h -500 v 0 z"
       stroke="#191919"
       stroke-width="0.35 px"
       style="fill:#aa0000;fill-opacity:1;fill-rule:evenodd;stroke-width:0.35;stroke-miterlimit:4;stroke-dasharray:none" /><path
       id="Wall_f0008"
       d="m 16897.476,10546.817 v -300 0 z"
       stroke="#191919"
       stroke-width="0.35 px"
       style="fill:#aa0000;fill-opacity:1;fill-rule:evenodd;stroke-width:0.35;stroke-miterlimit:4;stroke-dasharray:none" /><path
       id="Wall_f0009"
       d="m 16397.476,10546.817 v 0 h 500 v 0 z"
       stroke="#191919"
       stroke-width="0.35 px"
       style="fill:#aa0000;fill-opacity:1;fill-rule:evenodd;stroke-width:0.35;stroke-miterlimit:4;stroke-dasharray:none" /><path
       id="Wall_f0010"
       d="m 16397.476,10246.817 v 300 h 500 v -300 z"
       stroke="#191919"
       stroke-width="0.35 px"
       style="fill:#aa0000;fill-opacity:1;fill-rule:evenodd;stroke-width:0.35;stroke-miterlimit:4;stroke-dasharray:none" /><path
       id="Wall_f0011"
       d="m 16897.476,10246.817 h -500 v 300 h 500 z"
       stroke="#191919"
       stroke-width="0.35 px"
       style="fill:#aa0000;fill-opacity:1;fill-rule:evenodd;stroke-width:0.35;stroke-miterlimit:4;stroke-dasharray:none" /><path
       id="Wall_f0012"
       d="m 16897.476,10246.817 v 0 300 0 z"
       stroke="#191919"
       stroke-width="0.35 px"
       style="fill:#aa0000;fill-opacity:1;fill-rule:evenodd;stroke-width:0.35;stroke-miterlimit:4;stroke-dasharray:none" /><path
       id="Wall_f0013"
       d="m 17397.476,10246.817 h -500 v 0 z"
       stroke="#191919"
       stroke-width="0.35 px"
       style="fill:#aa0000;fill-opacity:1;fill-rule:evenodd;stroke-width:0.35;stroke-miterlimit:4;stroke-dasharray:none" /><path
       id="Wall_f0014"
       d="m 17397.476,10546.817 v -300 0 z"
       stroke="#191919"
       stroke-width="0.35 px"
       style="fill:#aa0000;fill-opacity:1;fill-rule:evenodd;stroke-width:0.35;stroke-miterlimit:4;stroke-dasharray:none" /><path
       id="Wall_f0015"
       d="m 16897.476,10546.817 v 0 h 500 v 0 z"
       stroke="#191919"
       stroke-width="0.35 px"
       style="fill:#aa0000;fill-opacity:1;fill-rule:evenodd;stroke-width:0.35;stroke-miterlimit:4;stroke-dasharray:none" /><path
       id="Wall_f0016"
       d="m 16897.476,10246.817 v 300 h 500 v -300 z"
       stroke="#191919"
       stroke-width="0.35 px"
       style="fill:#aa0000;fill-opacity:1;fill-rule:evenodd;stroke-width:0.35;stroke-miterlimit:4;stroke-dasharray:none" /><path
       id="Wall_f0017"
       d="m 17397.476,10246.817 h -500 v 300 h 500 z"
       stroke="#191919"
       stroke-width="0.35 px"
       style="fill:#aa0000;fill-opacity:1;fill-rule:evenodd;stroke-width:0.35;stroke-miterlimit:4;stroke-dasharray:none" /><path
       id="Wall_f0018"
       d="m 17397.476,10246.817 v 0 300 0 z"
       stroke="#191919"
       stroke-width="0.35 px"
       style="fill:#aa0000;fill-opacity:1;fill-rule:evenodd;stroke-width:0.35;stroke-miterlimit:4;stroke-dasharray:none" /><path
       id="Wall_f0019"
       d="m 17897.476,10246.817 h -500 v 0 z"
       stroke="#191919"
       stroke-width="0.35 px"
       style="fill:#aa0000;fill-opacity:1;fill-rule:evenodd;stroke-width:0.35;stroke-miterlimit:4;stroke-dasharray:none" /><path
       id="Wall_f0020"
       d="m 17897.476,10546.817 v -300 0 z"
       stroke="#191919"
       stroke-width="0.35 px"
       style="fill:#aa0000;fill-opacity:1;fill-rule:evenodd;stroke-width:0.35;stroke-miterlimit:4;stroke-dasharray:none" /><path
       id="Wall_f0021"
       d="m 17397.476,10546.817 v 0 h 500 v 0 z"
       stroke="#191919"
       stroke-width="0.35 px"
       style="fill:#aa0000;fill-opacity:1;fill-rule:evenodd;stroke-width:0.35;stroke-miterlimit:4;stroke-dasharray:none" /><path
       id="Wall_f0022"
       d="m 17397.476,10246.817 v 300 h 500 v -300 z"
       stroke="#191919"
       stroke-width="0.35 px"
       style="fill:#aa0000;fill-opacity:1;fill-rule:evenodd;stroke-width:0.35;stroke-miterlimit:4;stroke-dasharray:none" /><path
       id="Wall_f0023"
       d="m 17897.476,10246.817 h -500 v 300 h 500 z"
       stroke="#191919"
       stroke-width="0.35 px"
       style="fill:#aa0000;fill-opacity:1;fill-rule:evenodd;stroke-width:0.35;stroke-miterlimit:4;stroke-dasharray:none" /><path
       id="Wall_f0024"
       d="m 17897.476,10246.817 v 0 300 0 z"
       stroke="#191919"
       stroke-width="0.35 px"
       style="fill:#aa0000;fill-opacity:1;fill-rule:evenodd;stroke-width:0.35;stroke-miterlimit:4;stroke-dasharray:none" /><path
       id="Wall_f0025"
       d="m 18397.476,10246.817 h -500 v 0 z"
       stroke="#191919"
       stroke-width="0.35 px"
       style="fill:#aa0000;fill-opacity:1;fill-rule:evenodd;stroke-width:0.35;stroke-miterlimit:4;stroke-dasharray:none" /><path
       id="Wall_f0026"
       d="m 18397.476,10546.817 v -300 0 z"
       stroke="#191919"
       stroke-width="0.35 px"
       style="fill:#aa0000;fill-opacity:1;fill-rule:evenodd;stroke-width:0.35;stroke-miterlimit:4;stroke-dasharray:none" /><path
       id="Wall_f0027"
       d="m 17897.476,10546.817 v 0 h 500 v 0 z"
       stroke="#191919"
       stroke-width="0.35 px"
       style="fill:#aa0000;fill-opacity:1;fill-rule:evenodd;stroke-width:0.35;stroke-miterlimit:4;stroke-dasharray:none" /><path
       id="Wall_f0028"
       d="m 17897.476,10246.817 v 300 h 500 v -300 z"
       stroke="#191919"
       stroke-width="0.35 px"
       style="fill:#aa0000;fill-opacity:1;fill-rule:evenodd;stroke-width:0.35;stroke-miterlimit:4;stroke-dasharray:none" /><path
       id="Wall_f0029"
       d="m 18397.476,10246.817 h -500 v 300 h 500 z"
       stroke="#191919"
       stroke-width="0.35 px"
       style="fill:#aa0000;fill-opacity:1;fill-rule:evenodd;stroke-width:0.35;stroke-miterlimit:4;stroke-dasharray:none" /><path
       id="Wall_f0030"
       d="m 18397.476,10246.817 v 0 300 0 z"
       stroke="#191919"
       stroke-width="0.35 px"
       style="fill:#aa0000;fill-opacity:1;fill-rule:evenodd;stroke-width:0.35;stroke-miterlimit:4;stroke-dasharray:none" /><path
       id="Wall_f0031"
       d="m 18897.476,10246.817 h -500 v 0 z"
       stroke="#191919"
       stroke-width="0.35 px"
       style="fill:#aa0000;fill-opacity:1;fill-rule:evenodd;stroke-width:0.35;stroke-miterlimit:4;stroke-dasharray:none" /><path
       id="Wall_f0032"
       d="m 18897.476,10546.817 v -300 0 z"
       stroke="#191919"
       stroke-width="0.35 px"
       style="fill:#aa0000;fill-opacity:1;fill-rule:evenodd;stroke-width:0.35;stroke-miterlimit:4;stroke-dasharray:none" /><path
       id="Wall_f0033"
       d="m 18397.476,10546.817 v 0 h 500 v 0 z"
       stroke="#191919"
       stroke-width="0.35 px"
       style="fill:#aa0000;fill-opacity:1;fill-rule:evenodd;stroke-width:0.35;stroke-miterlimit:4;stroke-dasharray:none" /><path
       id="Wall_f0034"
       d="m 18397.476,10246.817 v 300 h 500 v -300 z"
       stroke="#191919"
       stroke-width="0.35 px"
       style="fill:#aa0000;fill-opacity:1;fill-rule:evenodd;stroke-width:0.35;stroke-miterlimit:4;stroke-dasharray:none" /><path
       id="Wall_f0035"
       d="m 18897.476,10246.817 h -500 v 300 h 500 z"
       stroke="#191919"
       stroke-width="0.35 px"
       style="fill:#aa0000;fill-opacity:1;fill-rule:evenodd;stroke-width:0.35;stroke-miterlimit:4;stroke-dasharray:none" /><path
       id="Wall_f0036"
       d="m 18897.476,10246.817 v 0 300 0 z"
       stroke="#191919"
       stroke-width="0.35 px"
       style="fill:#aa0000;fill-opacity:1;fill-rule:evenodd;stroke-width:0.35;stroke-miterlimit:4;stroke-dasharray:none" /><path
       id="Wall_f0037"
       d="m 19397.476,10246.817 h -500 v 0 z"
       stroke="#191919"
       stroke-width="0.35 px"
       style="fill:#aa0000;fill-opacity:1;fill-rule:evenodd;stroke-width:0.35;stroke-miterlimit:4;stroke-dasharray:none" /><path
       id="Wall_f0038"
       d="m 19397.476,10546.817 v 0 -300 0 z"
       stroke="#191919"
       stroke-width="0.35 px"
       style="fill:#aa0000;fill-opacity:1;fill-rule:evenodd;stroke-width:0.35;stroke-miterlimit:4;stroke-dasharray:none" /><path
       id="Wall_f0039"
       d="m 18897.476,10546.817 v 0 h 500 v 0 z"
       stroke="#191919"
       stroke-width="0.35 px"
       style="fill:#aa0000;fill-opacity:1;fill-rule:evenodd;stroke-width:0.35;stroke-miterlimit:4;stroke-dasharray:none" /><path
       id="Wall_f0040"
       d="m 18897.476,10246.817 v 300 h 500 v -300 z"
       stroke="#191919"
       stroke-width="0.35 px"
       style="fill:#aa0000;fill-opacity:1;fill-rule:evenodd;stroke-width:0.35;stroke-miterlimit:4;stroke-dasharray:none" /><path
       id="Wall_f0041"
       d="m 19397.476,10246.817 h -500 v 300 h 500 z"
       stroke="#191919"
       stroke-width="0.35 px"
       style="fill:#aa0000;fill-opacity:1;fill-rule:evenodd;stroke-width:0.35;stroke-miterlimit:4;stroke-dasharray:none" /><title
       id="title62">b'Wall'</title></g><g
     aria-label="25%"
     transform="matrix(8.8542051e-4,0,0,0.0011812,1.3926753,16.831451)"
     id="text980"
     style="font-size:10666.7px;font-family:Arial;-inkscape-font-specification:Arial;white-space:pre;shape-inside:url(#rect982-4);display:inline;fill:#ef2a00;fill-rule:evenodd;stroke-width:40;stroke-linecap:round;stroke-linejoin:round;stroke-dashoffset:2.02542;paint-order:stroke fill markers"><path
       d="m 12605.587,-3897.6358 v 915.48 H 6625.5354 q -12.3432,-343.9664 129.5984,-661.474 228.3408,-523.8874 728.2228,-1031.8995 506.0518,-508.012 1456.443,-1174.7778 1474.9574,-1037.1914 1993.3514,-1640.4556 518.393,-608.5561 518.393,-1148.319 0,-566.2217 -475.194,-952.5226 -469.023,-391.5926 -1228.1003,-391.5926 -802.2779,0 -1283.6447,412.7598 -481.3676,412.7598 -487.5385,1143.0272 l -1141.7043,-100.5442 q 117.2565,-1095.401 882.5062,-1666.9149 765.2507,-576.805 2055.0675,-576.805 1302.1561,0 2061.2321,619.14 759.077,619.1395 759.077,1534.6195 0,465.6778 -222.17,915.4801 -222.168,449.8023 -740.562,947.2308 -512.223,497.4285 -1709.4644,1365.2824 -999.763,719.6838 -1283.6461,978.9815 -283.883,254.0061 -469.0245,513.3039 z"
       id="path905"
       style="stroke-width:43.8886" /><path
       d="m 13796.664,-5014.204 1166.389,-84.6687 q 129.598,730.2674 598.623,1100.6929 475.195,365.1336 1141.703,365.1336 802.279,0 1357.702,-518.5957 555.425,-518.5955 555.425,-1375.8659 0,-814.936 -536.911,-1285.9056 -530.738,-470.9695 -1394.73,-470.9695 -536.909,0 -968.905,211.6717 -431.996,206.3799 -678.851,539.7629 l -1042.962,-116.4195 876.334,-3984.7192 h 4498.932 v 910.1879 H 15759.16 l -487.539,2084.9662 q 814.621,-486.8449 1709.47,-486.8449 1184.904,0 1999.526,703.8083 814.621,703.8084 814.621,1809.793 0,1053.0667 -715.88,1820.3765 -870.163,941.9391 -2375.979,941.9391 -1234.274,0 -2018.038,-592.6808 -777.593,-592.6807 -888.677,-1571.6623 z"
       id="path907"
       style="stroke-width:43.8886" /><path
       d="m 1548.9477,-7171.0159 q 0,-326.8966 247.1798,-555.9323 247.1792,-229.0362 716.5078,-229.0362 431.7818,0 713.3791,206.1326 284.7254,204.0499 284.7254,601.7394 0,387.2787 -287.8546,597.5752 -284.726,208.2144 -703.992,208.2144 -416.1381,0 -694.6061,-206.1323 -275.3394,-206.1322 -275.3394,-622.5608 z m 979.332,-526.7822 q -209.6337,0 -350.4323,120.7642 -137.6693,120.7643 -137.6693,443.4965 0,293.5822 140.7986,414.3466 140.7986,118.6822 347.303,118.6822 212.7617,0 350.4317,-120.7643 140.7986,-120.7644 140.7986,-441.4145 0,-295.6644 -140.7986,-414.3465 -140.7986,-120.7642 -350.4317,-120.7642 z m 3.1287,2958.7258 2509.342,-3216.9121 h 456.8134 l -2499.9561,3216.9121 z m 1983.6948,-828.6932 q 0,-328.9786 247.1791,-555.9322 247.1799,-229.0358 719.6371,-229.0358 431.7818,0 713.3791,206.1322 284.7254,204.05 284.7254,601.7395 0,387.2787 -287.8546,597.5751 -284.7259,208.2144 -707.1213,208.2144 -416.1374,0 -694.606,-206.1322 -275.3388,-208.2144 -275.3388,-622.561 z m 982.4606,-526.7822 q -212.7623,0 -353.5609,120.7643 -137.6694,120.7643 -137.6694,443.4966 0,291.5001 140.798,412.2644 140.7987,120.7643 347.3031,120.7643 215.8909,0 353.5609,-120.7643 140.7981,-120.7643 140.7981,-441.4145 0,-295.6643 -140.7981,-414.3465 -140.7987,-120.7643 -350.4317,-120.7643 z"
       id="path909"
       style="stroke-width:19.6023" /></g></svg>
