<?xml version="1.0" encoding="UTF-8" standalone="no"?>
<!-- Svg Vector Icons : http://www.onlinewebfonts.com/icon -->

<svg
   version="1.1"
   x="0px"
   y="0px"
   viewBox="0 0 1000 1000"
   enable-background="new 0 0 1000 1000"
   xml:space="preserve"
   id="svg10"
   sodipodi:docname="cut.svg"
   inkscape:version="1.2-dev (8a200a5f, 2021-09-02)"
   xmlns:inkscape="http://www.inkscape.org/namespaces/inkscape"
   xmlns:sodipodi="http://sodipodi.sourceforge.net/DTD/sodipodi-0.dtd"
   xmlns:xlink="http://www.w3.org/1999/xlink"
   xmlns="http://www.w3.org/2000/svg"
   xmlns:svg="http://www.w3.org/2000/svg"><defs
   id="defs14"><linearGradient
     inkscape:collect="always"
     id="linearGradient1008"><stop
       style="stop-color:#ff700f;stop-opacity:1;"
       offset="0"
       id="stop1004" /><stop
       style="stop-color:#d4085d;stop-opacity:1;"
       offset="1"
       id="stop1006" /></linearGradient><linearGradient
     inkscape:collect="always"
     xlink:href="#linearGradient1008"
     id="linearGradient1010"
     x1="9.5194975"
     y1="499.9"
     x2="990.55793"
     y2="499.9"
     gradientUnits="userSpaceOnUse" /></defs><sodipodi:namedview
   id="namedview12"
   pagecolor="#ffffff"
   bordercolor="#666666"
   borderopacity="1.0"
   inkscape:pageshadow="2"
   inkscape:pageopacity="0.0"
   inkscape:pagecheckerboard="0"
   showgrid="false"
   inkscape:zoom="0.818"
   inkscape:cx="500"
   inkscape:cy="500.61125"
   inkscape:window-width="1920"
   inkscape:window-height="1001"
   inkscape:window-x="-9"
   inkscape:window-y="-9"
   inkscape:window-maximized="1"
   inkscape:current-layer="svg10" />
<metadata
   id="metadata2"> Svg Vector Icons : http://www.onlinewebfonts.com/icon </metadata>
<path
   d="m 535,465 c 9.5,0 17.7,3.5 24.6,10.4 6.9,6.9 10.4,15.1 10.4,24.6 0,9.5 -3.5,17.7 -10.4,24.6 -6.9,6.9 -15.1,10.4 -24.6,10.4 -9.5,0 -17.7,-3.5 -24.6,-10.4 -6.9,-6.9 -10.4,-15.1 -10.4,-24.6 0,-9.5 3.5,-17.7 10.4,-24.6 6.9,-6.9 15.1,-10.4 24.6,-10.4 z m 164,35 277.2,217.6 c 10.2,7.3 14.8,17.5 13.7,30.6 -1.8,12.8 -8.2,22.1 -19.1,27.9 l -70,35 c -4.7,2.6 -10,3.8 -15.9,3.8 -6.2,0 -11.8,-1.5 -16.9,-4.4 L 490.7,599 430.5,635 c -2.9,1.5 -5.1,2.4 -6.6,2.7 5.1,17.9 6.9,35.5 5.5,53 -2.6,28.1 -12.8,54.9 -30.6,80.6 -17.9,25.7 -41.9,48.2 -72.2,67.5 -48.1,30.6 -98.6,45.9 -151.4,45.9 -49.6,0 -90,-14.2 -121.4,-42.6 C 21,811.6 6.6,773.9 10.7,729.1 13.3,701.4 23.5,674.6 41.3,648.7 59.2,622.8 83,600.2 112.9,580.9 161,550.3 211.7,535 264.9,535 c 30.3,0 57.8,5.6 82.6,16.9 3.3,-4.7 7.3,-8.7 12,-12 L 426.2,500 359.5,460.1 c -4.7,-3.3 -8.7,-7.3 -12,-12 C 322.7,459.4 295.2,465 264.9,465 211.7,465 161,449.7 112.9,419.1 83,399.8 59.1,377.2 41.3,351.3 23.4,325.4 13.2,298.6 10.7,270.9 c -1.8,-21.5 1,-42.1 8.5,-61.8 7.5,-19.7 19,-36.6 34.7,-50.8 31,-28.8 71.4,-43.2 121.4,-43.2 52.9,0 103.3,15.3 151.4,45.9 30.3,19 54.3,41.4 72.2,67.2 17.9,25.9 28.1,52.9 30.6,80.9 1.5,17.5 -0.4,35.2 -5.5,53 1.5,0.4 3.6,1.3 6.6,2.7 l 60.1,36.1 377.2,-211.6 c 5.1,-2.9 10.8,-4.4 16.9,-4.4 5.8,0 11.1,1.3 15.9,3.8 l 70,35 c 10.9,5.8 17.3,15.1 19.1,27.9 1.1,13.1 -3.5,23.3 -13.7,30.6 z M 326.7,357.9 c 16.8,-15.3 20.6,-35 11.5,-59 -9.1,-24 -28.4,-45.4 -58,-64 -33.5,-21.5 -68.5,-32.3 -105,-32.3 -27,0 -47.6,6.6 -61.8,19.7 -16.8,15.3 -20.6,35 -11.5,59 9.1,24.1 28.4,45.4 58,64 33.5,21.5 68.5,32.3 105,32.3 27,-0.1 47.5,-6.6 61.8,-19.7 z m -46.5,407.3 c 29.5,-18.6 48.8,-39.9 58,-64 9.1,-24.1 5.3,-43.7 -11.5,-59 -14.2,-13.1 -34.8,-19.7 -61.8,-19.7 -36.4,0 -71.4,10.8 -105,32.3 -29.5,18.6 -48.8,39.9 -58,64 -9.2,24.1 -5.3,43.7 11.5,59 14.2,13.1 34.8,19.7 61.8,19.7 36.5,-0.1 71.5,-10.8 105,-32.3 z M 377.5,430 430,461.7 v -6 c 0,-13.1 6,-23.3 18,-30.6 l 7.7,-4.4 -43.2,-25.7 -14.2,14.2 c -1.1,1.1 -2.9,3.1 -5.5,6 -2.6,2.9 -4.7,5.1 -6.6,6.6 -0.7,0.7 -1.5,1.4 -2.2,1.9 -0.7,0.5 -1.3,1 -1.6,1.4 z M 500,552.5 552.5,570 954.9,255.1 884.9,220.1 465,455.7 v 61.8 l -87.5,52.5 4.9,4.4 c 0.7,0.7 2,1.8 3.8,3.3 1.5,1.5 3.5,3.6 6,6.6 2.6,2.9 4.6,5.1 6,6.6 l 14.2,14.2 z m 384.9,227.4 70,-35 -284.3,-223 -96.8,75.4 c -0.7,1.1 -3.1,2.4 -7.1,3.8 z"
   id="path4"
   style="stroke:#fdfa15;stroke-opacity:1;fill:url(#linearGradient1010);fill-opacity:1;stroke-width:8.49999962;stroke-miterlimit:4;stroke-dasharray:none" />
</svg>
