<?xml version="1.0" encoding="UTF-8" standalone="no"?>
<svg
   class="svg-icon"
   style="width: 1em; height: 1em;vertical-align: middle;fill: currentColor;overflow: hidden;"
   viewBox="0 0 1024 1024"
   version="1.1"
   id="svg4"
   sodipodi:docname="distance.svg"
   inkscape:version="1.2-dev (8a200a5f, 2021-09-02)"
   xmlns:inkscape="http://www.inkscape.org/namespaces/inkscape"
   xmlns:sodipodi="http://sodipodi.sourceforge.net/DTD/sodipodi-0.dtd"
   xmlns:xlink="http://www.w3.org/1999/xlink"
   xmlns="http://www.w3.org/2000/svg"
   xmlns:svg="http://www.w3.org/2000/svg">
  <defs
     id="defs8">
    <linearGradient
       inkscape:collect="always"
       id="linearGradient883">
      <stop
         style="stop-color:#ff6f0f;stop-opacity:1;"
         offset="0"
         id="stop879" />
      <stop
         style="stop-color:#d4085d;stop-opacity:1;"
         offset="1"
         id="stop881" />
    </linearGradient>
    <linearGradient
       inkscape:collect="always"
       id="linearGradient852">
      <stop
         style="stop-color:#000000;stop-opacity:1;"
         offset="0"
         id="stop848" />
      <stop
         style="stop-color:#000000;stop-opacity:0;"
         offset="1"
         id="stop850" />
    </linearGradient>
    <linearGradient
       inkscape:collect="always"
       xlink:href="#linearGradient852"
       id="linearGradient854"
       x1="0"
       y1="512"
       x2="1024"
       y2="512"
       gradientUnits="userSpaceOnUse" />
    <linearGradient
       inkscape:collect="always"
       xlink:href="#linearGradient883"
       id="linearGradient885"
       x1="-0.5"
       y1="512"
       x2="1024.5"
       y2="512"
       gradientUnits="userSpaceOnUse" />
  </defs>
  <sodipodi:namedview
     id="namedview6"
     pagecolor="#ffffff"
     bordercolor="#666666"
     borderopacity="1.0"
     inkscape:pageshadow="2"
     inkscape:pageopacity="0.0"
     inkscape:pagecheckerboard="0"
     showgrid="false"
     inkscape:zoom="0.79882812"
     inkscape:cx="512"
     inkscape:cy="512.62592"
     inkscape:window-width="1920"
     inkscape:window-height="1001"
     inkscape:window-x="-9"
     inkscape:window-y="-9"
     inkscape:window-maximized="1"
     inkscape:current-layer="svg4" />
  <path
     d="M977.454545 512H46.545455c-23.272727 0-46.545455 23.272727-46.545455 46.545455v232.727272c0 23.272727 23.272727 46.545455 46.545455 46.545455h930.90909c23.272727 0 46.545455-23.272727 46.545455-46.545455v-232.727272c0-23.272727-23.272727-46.545455-46.545455-46.545455z m0 251.345455c0 13.963636-13.963636 27.927273-27.927272 27.927272H884.363636v-116.363636c0-13.963636-9.309091-23.272727-23.272727-23.272727s-23.272727 9.309091-23.272727 23.272727V791.272727h-93.090909v-162.909091c0-13.963636-9.309091-23.272727-23.272728-23.272727s-23.272727 9.309091-23.272727 23.272727V791.272727h-93.090909v-116.363636c0-13.963636-9.309091-23.272727-23.272727-23.272727s-23.272727 9.309091-23.272727 23.272727V791.272727h-93.09091v-116.363636c0-13.963636-9.309091-23.272727-23.272727-23.272727s-23.272727 9.309091-23.272727 23.272727V791.272727H325.818182v-116.363636c0-13.963636-9.309091-23.272727-23.272727-23.272727s-23.272727 9.309091-23.272728 23.272727V791.272727H186.181818v-116.363636c0-13.963636-9.309091-23.272727-23.272727-23.272727s-23.272727 9.309091-23.272727 23.272727V791.272727H74.472727c-13.963636 0-27.927273-13.963636-27.927272-27.927272v-176.872728c0-13.963636 13.963636-27.927273 27.927272-27.927272h875.054546c13.963636 0 27.927273 13.963636 27.927272 27.927272v176.872728zM1000.727273 186.181818c-13.963636 0-23.272727 9.309091-23.272728 23.272727V279.272727H46.545455V209.454545C46.545455 195.490909 37.236364 186.181818 23.272727 186.181818s-23.272727 9.309091-23.272727 23.272727v186.181819c0 13.963636 9.309091 23.272727 23.272727 23.272727s23.272727-9.309091 23.272728-23.272727V325.818182h930.90909v69.818182c0 13.963636 9.309091 23.272727 23.272728 23.272727s23.272727-9.309091 23.272727-23.272727v-186.181819c0-13.963636-9.309091-23.272727-23.272727-23.272727z"
     fill=""
     id="path2"
     style="stroke:url(#linearGradient854);fill-opacity:1;fill:url(#linearGradient885)" />
</svg>
