<?xml version="1.0" encoding="UTF-8"?>
<svg viewBox="0 0 24 24" xmlns="http://www.w3.org/2000/svg">
  <g>
    <path d="M6 2C4.9 2 4 2.9 4 4V20C4 21.1 4.9 22 6 22H18C19.1 22 20 21.1 20 20V8L14 2H6ZM13 3.5L18.5 9H13V3.5ZM6 4H12V10H18V20H6V4Z" fill="#333333"/>
    <path d="M8 11H10V13H8V11Z" fill="#0077B6"/>
    <path d="M8 15H10V17H8V15Z" fill="#0077B6"/>
    <path d="M14 11H16V17H14V11Z" fill="#E42B2E"/>
    <path d="M12 10L15 13L12 16" stroke="#333333" stroke-width="1.5" fill="none" stroke-linecap="round" stroke-linejoin="round"/>
  </g>
</svg>