<?xml version="1.0" encoding="UTF-8" standalone="no"?>
<svg
   version="1.1"
   x="0px"
   y="0px"
   viewBox="0 0 100.003 79.997"
   enable-background="new 0 0 100.003 79.997"
   xml:space="preserve"
   id="svg4"
   sodipodi:docname="earthquake.svg"
   inkscape:version="1.2-dev (8a200a5f, 2021-09-02)"
   xmlns:inkscape="http://www.inkscape.org/namespaces/inkscape"
   xmlns:sodipodi="http://sodipodi.sourceforge.net/DTD/sodipodi-0.dtd"
   xmlns:xlink="http://www.w3.org/1999/xlink"
   xmlns="http://www.w3.org/2000/svg"
   xmlns:svg="http://www.w3.org/2000/svg"><defs
     id="defs8"><linearGradient
       inkscape:collect="always"
       id="linearGradient852"><stop
         style="stop-color:#ff6f0f;stop-opacity:1;"
         offset="0"
         id="stop848" /><stop
         style="stop-color:#d3085d;stop-opacity:1;"
         offset="1"
         id="stop850" /></linearGradient><linearGradient
       inkscape:collect="always"
       xlink:href="#linearGradient852"
       id="linearGradient856"
       x1="0"
       y1="39.998474"
       x2="100.003"
       y2="39.998474"
       gradientUnits="userSpaceOnUse" /></defs><sodipodi:namedview
     id="namedview6"
     pagecolor="#ffffff"
     bordercolor="#666666"
     borderopacity="1.0"
     inkscape:pageshadow="2"
     inkscape:pageopacity="0.0"
     inkscape:pagecheckerboard="0"
     showgrid="false"
     inkscape:zoom="10.225383"
     inkscape:cx="49.973677"
     inkscape:cy="40.047399"
     inkscape:window-width="1920"
     inkscape:window-height="1001"
     inkscape:window-x="-9"
     inkscape:window-y="-9"
     inkscape:window-maximized="1"
     inkscape:current-layer="svg4" /><path
     d="M81.653,42.94c-1.387,0-2.666,0.767-3.315,1.992L72.942,55.1l-6.649-19.479c-0.508-1.472-1.865-2.48-3.423-2.534  c-1.602-0.046-2.983,0.859-3.589,2.292l-4.561,10.834l-7.2-43.128c-0.33-1.812-2.029-3.188-3.77-3.079  c-1.843,0.042-3.384,1.252-3.635,3.079l-6.357,50.052l-5.156-26.864c-0.303-1.589-1.594-2.803-3.201-3.01  c-1.577-0.21-3.162,0.635-3.862,2.097l-8.435,17.58H0v7.497h15.466c1.443,0,2.756-0.825,3.381-2.129l4.536-9.45l7.312,38.098  c0.339,1.771,1.887,3.041,3.682,3.041c0.032,0,0.066,0,0.1,0c1.836-0.049,3.367-1.421,3.616-3.241l6.259-49.182l5.247,32.385  c0.295,1.631,1.631,2.876,3.276,3.057c1.67,0.161,3.223-0.742,3.867-2.275l5.635-13.374l6.27,18.359  c0.483,1.411,1.763,2.407,3.251,2.524c1.494,0.083,2.91-0.659,3.613-1.982l8.398-15.83h16.094V42.94H81.653z"
     id="path2"
     style="fill-opacity:1;fill:url(#linearGradient856)" /></svg>
