<?xml version="1.0" encoding="UTF-8" standalone="no"?>
<!-- Created with Inkscape (http://www.inkscape.org/) -->

<svg
   width="800px"
   height="200px"
   viewBox="0 0 800 200"
   version="1.1"
   id="SVGRoot"
   sodipodi:docname="ec1_copy.svg"
   inkscape:version="1.2.2 (732a01da63, 2022-12-09)"
   xmlns:inkscape="http://www.inkscape.org/namespaces/inkscape"
   xmlns:sodipodi="http://sodipodi.sourceforge.net/DTD/sodipodi-0.dtd"
   xmlns="http://www.w3.org/2000/svg"
   xmlns:svg="http://www.w3.org/2000/svg">
  <sodipodi:namedview
     id="namedview3332"
     pagecolor="#ffffff"
     bordercolor="#000000"
     borderopacity="0.25"
     inkscape:showpageshadow="2"
     inkscape:pageopacity="0.0"
     inkscape:pagecheckerboard="0"
     inkscape:deskcolor="#d1d1d1"
     inkscape:document-units="px"
     showgrid="false"
     inkscape:zoom="0.71624579"
     inkscape:cx="569.63686"
     inkscape:cy="226.87742"
     inkscape:window-width="1920"
     inkscape:window-height="991"
     inkscape:window-x="-9"
     inkscape:window-y="-9"
     inkscape:window-maximized="1"
     inkscape:current-layer="g11204" />
  <defs
     id="defs3327" />
  <g
     inkscape:label="Layer 1"
     inkscape:groupmode="layer"
     id="layer1">
    <g
       id="g11204"
       transform="matrix(1.1328246,0,0,1.315942,-18.798361,-253.99092)">
      <g
         aria-label="EC = 0.043wC1.5    f'c"
         transform="scale(0.90762708,1.1017741)"
         id="text4598"
         style="font-weight:500;font-size:122.632px;line-height:1.25;font-family:aakar;-inkscape-font-specification:'aakar, Medium';letter-spacing:0.18px;word-spacing:0.14px;stroke:#000000;stroke-width:1.00157">
        <path
           d="m 84.760617,260.21354 q -0.479032,2.63468 -1.496973,7.24535 -1.07782,4.91007 -1.616731,6.94596 H 37.695795 v -2.51492 q 6.04777,-0.41915 7.484863,-1.85624 1.377215,-1.37722 1.377215,-6.76632 v -34.31062 q 0,-5.86813 -1.257457,-7.24534 -1.07782,-1.1377 -6.466922,-1.61673 V 217.46 h 40.5979 l 0.838305,12.99373 -2.75443,0.35927 q -0.598789,-2.51491 -1.377215,-4.43104 -0.598789,-1.55685 -1.556852,-3.17358 -1.736488,-2.51491 -9.939899,-2.51491 h -6.646558 q -2.155641,0 -2.634672,0.41915 -0.479032,0.47903 -0.479032,2.45503 v 19.64029 h 8.203411 q 5.928012,0 7.484863,-1.07783 1.377215,-1.01794 2.275399,-5.56873 h 2.694551 v 17.18524 h -2.694551 q -0.958063,-4.79031 -2.395156,-5.86813 -1.496973,-1.01794 -7.365106,-1.01794 h -8.203411 v 16.10742 q 0,5.80826 2.155641,7.18547 1.137699,0.65867 3.712492,0.89819 l 2.514915,0.11976 h 2.934066 q 8.682442,0 11.257235,-2.87419 2.514914,-2.99395 4.550797,-8.44293 z"
           style="font-weight:normal;font-family:'Adobe Arabic';-inkscape-font-specification:'Adobe Arabic'"
           id="path31762" />
        <path
           d="m 125.44271,289.162 q -0.62274,2.21852 -1.59577,4.86517 -1.0898,2.88017 -1.79038,4.16457 l -1.86823,0.42814 q -1.44008,0.31137 -2.72449,0.50597 -1.75145,0.31137 -3.26938,0.46706 -1.79038,0.23353 -3.30831,0.23353 -5.41006,0 -9.73033,-1.67362 -3.969967,-1.55685 -6.7723,-4.3981 -2.568805,-2.64665 -3.93105,-6.11065 -1.284403,-3.23046 -1.284403,-6.73338 0,-8.91297 6.538777,-14.4398 6.422016,-5.41006 16.658316,-5.41006 1.71253,0 3.58075,0.23353 1.47901,0.15569 3.07479,0.46706 l 3.42507,0.77842 q 0.46706,0.11677 0.7395,0.15569 l 0.66167,4.43702 q 0.35029,2.49097 0.58382,4.47595 l -1.75146,0.38922 q -2.21852,-8.79622 -11.83207,-8.79622 -3.61968,0 -6.5777,1.40117 -2.76341,1.2844 -4.7484,3.6586 -3.892129,4.67056 -3.892129,11.44286 0,8.01779 4.437029,12.96079 4.35918,4.943 11.28717,4.943 4.32027,0 7.3172,-2.33527 2.64665,-2.10175 5.09869,-6.77231 z"
           style="font-weight:normal;font-size:79.7108px;font-family:'Adobe Arabic';-inkscape-font-specification:'Adobe Arabic';baseline-shift:sub"
           id="path31764" />
        <path
           d="m 156.7099,247.92178 v -4.61067 h 41.67572 v 4.61067 z m 0,15.86791 v -4.49091 h 41.67572 v 4.49091 z"
           style="font-weight:normal;font-family:'Adobe Arabic';-inkscape-font-specification:'Adobe Arabic'"
           id="path31766" />
        <path
           d="m 249.00426,220.37749 q 4.85019,0 8.56268,2.51491 3.35322,2.2754 5.62862,6.5268 2.09576,3.89213 3.17358,9.04172 0.95806,4.79031 0.95806,10.11953 0,5.02983 -0.95806,9.76026 -1.07782,5.20947 -3.17358,9.1016 -2.33528,4.37116 -5.6885,6.70644 -3.77237,2.63467 -8.62256,2.63467 -4.91007,0 -8.62256,-2.45504 -3.4131,-2.2754 -5.74838,-6.46692 -2.09576,-3.83225 -3.17358,-9.04171 -0.95806,-4.73044 -0.95806,-10.17942 0,-5.08971 0.95806,-9.82014 1.07782,-5.14959 3.17358,-9.10159 2.33528,-4.37116 5.74838,-6.70644 3.77237,-2.63467 8.62256,-2.63467 z m -0.17964,3.05382 q -5.32922,0 -7.78426,7.9639 -1.07782,3.35321 -1.55685,8.02377 -0.41915,4.13164 -0.41915,9.04171 0,4.8502 0.47903,9.04172 0.53891,4.67055 1.61673,8.08365 2.63467,8.14353 7.84414,8.14353 5.26934,0 7.72438,-8.08365 1.01794,-3.35322 1.49697,-8.08365 0.41915,-4.13165 0.41915,-9.1016 0,-4.96995 -0.41915,-9.10159 -0.53891,-4.67055 -1.55685,-8.02377 -2.51492,-7.90402 -7.78426,-7.90402 z"
           style="font-weight:normal;font-family:'Adobe Arabic';-inkscape-font-specification:'Adobe Arabic'"
           id="path31768" />
        <path
           d="m 280.8602,276.78342 q -5.14959,0 -5.14959,-5.3891 0,-5.20947 5.26934,-5.20947 5.20947,0 5.20947,5.20947 0,5.3891 -5.20947,5.3891 z"
           style="font-weight:normal;font-family:'Adobe Arabic';-inkscape-font-specification:'Adobe Arabic'"
           id="path31770" />
        <path
           d="m 313.19518,220.37749 q 4.85019,0 8.56268,2.51491 3.35322,2.2754 5.62862,6.5268 2.09576,3.89213 3.17358,9.04172 0.95806,4.79031 0.95806,10.11953 0,5.02983 -0.95806,9.76026 -1.07782,5.20947 -3.17358,9.1016 -2.33528,4.37116 -5.6885,6.70644 -3.77237,2.63467 -8.62256,2.63467 -4.91007,0 -8.62256,-2.45504 -3.4131,-2.2754 -5.74838,-6.46692 -2.09576,-3.83225 -3.17358,-9.04171 -0.95806,-4.73044 -0.95806,-10.17942 0,-5.08971 0.95806,-9.82014 1.07782,-5.14959 3.17358,-9.10159 2.33528,-4.37116 5.74838,-6.70644 3.77237,-2.63467 8.62256,-2.63467 z m -0.17964,3.05382 q -5.32922,0 -7.78426,7.9639 -1.07782,3.35321 -1.55685,8.02377 -0.41915,4.13164 -0.41915,9.04171 0,4.8502 0.47903,9.04172 0.53891,4.67055 1.61673,8.08365 2.63467,8.14353 7.84414,8.14353 5.26934,0 7.72438,-8.08365 1.01794,-3.35322 1.49697,-8.08365 0.41915,-4.13165 0.41915,-9.1016 0,-4.96995 -0.41915,-9.10159 -0.53891,-4.67055 -1.55685,-8.02377 -2.51492,-7.90402 -7.78426,-7.90402 z"
           style="font-weight:normal;font-family:'Adobe Arabic';-inkscape-font-specification:'Adobe Arabic'"
           id="path31772" />
        <path
           d="m 367.56558,260.31672 v 5.92801 q 0,4.43104 1.1377,5.50886 1.1377,1.07782 6.46693,1.55685 v 2.45504 h -23.65217 v -2.45504 q 5.86813,-0.47903 7.12559,-1.67661 1.19757,-1.01794 1.19757,-5.44898 v -5.86813 h -23.23301 v -2.75443 l 6.70644,-9.52075 6.70643,-9.34111 q 7.06572,-9.70038 13.53264,-18.08343 h 4.01188 v 35.32856 h 8.56269 v 4.37116 z m -7.72438,-29.58018 h -0.17963 q -8.50281,11.19735 -17.30501,25.20902 h 17.48464 z"
           style="font-weight:normal;font-family:'Adobe Arabic';-inkscape-font-specification:'Adobe Arabic'"
           id="path31774" />
        <path
           d="m 404.39147,242.89196 q 5.86813,1.01794 9.22135,4.79031 3.23346,3.59273 3.17359,8.56268 0,5.08971 -2.81431,9.34111 -2.45504,3.59274 -6.76632,6.34717 -3.59273,2.33527 -7.78426,3.65261 -3.65261,1.19758 -6.16753,1.19758 -2.87418,0 -5.68849,-1.07782 -2.39516,-0.89819 -3.59274,-1.97601 -1.67661,-1.37721 -1.49697,-3.29334 0.17964,-1.67661 2.21552,-3.05382 1.1377,-0.89818 2.2754,0 0.95806,0.8383 1.976,1.55685 1.25746,0.89818 2.5748,1.55685 3.29334,1.67661 6.70643,1.67661 4.67056,0 7.42499,-3.29334 2.87419,-3.53285 2.87419,-9.76026 0,-5.50886 -3.7125,-8.62256 -3.1137,-2.5748 -7.48486,-2.5748 -1.31734,0 -2.99395,0.2994 -1.37721,0.23951 -2.57479,0.59879 l -0.53891,-2.63467 q 3.23346,-1.01795 5.56874,-2.09577 2.63467,-1.19757 4.37116,-2.51491 3.95201,-3.1137 3.95201,-7.48486 0,-3.89213 -2.45504,-6.10765 -2.2754,-2.03589 -5.92801,-2.03589 -3.35322,0 -6.34716,2.21552 -2.33528,1.73649 -4.37116,4.79032 l -1.91613,-1.85625 4.01189,-5.62862 q 2.03588,-2.2754 4.85019,-3.59273 3.17358,-1.49697 6.64656,-1.49697 h 0.0599 q 6.10765,0 9.82014,3.29334 3.65261,3.23346 3.65261,8.32316 0,3.47298 -2.63467,6.10765 -2.51491,2.21552 -6.10765,4.61068 z"
           style="font-weight:normal;font-family:'Adobe Arabic';-inkscape-font-specification:'Adobe Arabic'"
           id="path31776" />
        <path
           d="m 484.21041,239.89801 q -3.29334,0.53891 -4.55079,1.73649 -1.1377,1.07782 -2.5748,4.67055 -0.95806,2.39516 -2.27539,5.98789 l -8.62257,24.4306 h -2.63467 l -2.75443,-6.94595 -8.20341,-19.76004 -5.20946,13.11348 q -1.55686,3.83225 -2.63468,6.70643 -1.43709,3.65262 -2.63467,6.88608 h -2.81431 q -2.27539,-7.36511 -5.02982,-15.50864 l -2.63468,-7.78426 q -1.25745,-3.77237 -2.69455,-7.84413 -1.19758,-3.35322 -2.2754,-4.31128 -1.1377,-0.95807 -4.2514,-1.37722 v -2.33528 H 441.397 v 2.33528 q -4.01189,0.65867 -4.73044,1.55685 -0.71855,0.83831 0.2994,3.77237 1.37721,4.5508 3.1137,9.82014 1.43709,4.43104 3.23346,9.70039 h 0.17964 l 2.51491,-6.22741 2.51492,-6.5268 q 1.13769,-2.93407 2.57479,-6.88607 l 2.69455,-7.12559 h 2.51491 q 2.33528,6.2274 5.20947,13.41287 l 5.50886,13.71227 h 0.17963 l 4.61068,-14.61045 q 0.77843,-2.75443 1.31734,-4.91007 0.8383,-3.17359 0,-4.13165 -0.89819,-0.95806 -5.14959,-1.55685 v -2.33528 h 16.22718 z"
           style="font-weight:normal;font-family:'Adobe Arabic';-inkscape-font-specification:'Adobe Arabic'"
           id="path31778" />
        <path
           d="m 521.95844,290.52263 q -0.62274,2.21852 -1.59577,4.86517 -1.0898,2.88017 -1.79038,4.16457 l -1.86822,0.42814 q -1.44009,0.31137 -2.72449,0.50597 -1.75146,0.31137 -3.26939,0.46706 -1.79038,0.23353 -3.30831,0.23353 -5.41006,0 -9.73032,-1.67362 -3.96998,-1.55685 -6.77231,-4.3981 -2.5688,-2.64665 -3.93105,-6.11065 -1.2844,-3.23046 -1.2844,-6.73338 0,-8.91297 6.53878,-14.4398 6.42201,-5.41006 16.65831,-5.41006 1.71253,0 3.58076,0.23353 1.47901,0.15569 3.07478,0.46706 l 3.42507,0.77842 q 0.46706,0.11677 0.73951,0.15569 l 0.66166,4.43702 q 0.35029,2.49097 0.58382,4.47595 l -1.75146,0.38922 q -2.21851,-8.79622 -11.83207,-8.79622 -3.61968,0 -6.5777,1.40117 -2.76341,1.2844 -4.7484,3.6586 -3.89213,4.67056 -3.89213,11.44286 0,8.01779 4.43703,12.96079 4.35918,4.943 11.28717,4.943 4.32027,0 7.31721,-2.33527 2.64664,-2.10175 5.09869,-6.77231 z"
           style="font-weight:normal;font-size:65%;font-family:'Adobe Arabic';-inkscape-font-specification:'Adobe Arabic';baseline-shift:sub"
           id="path31780" />
        <path
           d="m 529.65025,226.71267 v -1.63469 q 3.77536,-0.27245 4.67055,-1.12872 0.81735,-0.77842 0.81735,-3.93105 v -21.48455 q 0,-2.21851 -0.42814,-2.76341 -0.38921,-0.50598 -2.21851,-0.62274 l -3.03586,-0.11677 v -1.36224 q 2.68557,-0.42814 5.56574,-1.24548 2.41312,-0.66166 5.33222,-1.71254 v 29.30773 q 0,3.15263 0.85627,3.93105 0.89519,0.85627 4.70948,1.12872 v 1.63469 z"
           style="font-weight:normal;font-size:65%;font-family:'Adobe Arabic';-inkscape-font-specification:'Adobe Arabic';baseline-shift:super"
           id="path31782" />
        <path
           d="m 558.24281,227.37434 q -3.34724,0 -3.34724,-3.50292 0,-3.38615 3.42508,-3.38615 3.38615,0 3.38615,3.38615 0,3.50292 -3.38615,3.50292 z"
           style="font-weight:normal;font-size:65%;font-family:'Adobe Arabic';-inkscape-font-specification:'Adobe Arabic';baseline-shift:super"
           id="path31784" />
        <path
           d="m 572.62906,206.12331 q 2.02391,-0.77842 3.6586,-1.24548 2.02391,-0.5449 3.07478,-0.5449 5.21546,0 8.36808,3.03586 2.88018,2.72449 2.88018,6.53878 0,5.25437 -5.2933,9.53571 -5.13761,3.93106 -10.19738,3.93106 -1.8293,0 -3.6586,-0.66167 -1.55685,-0.58382 -2.33527,-1.32332 -1.20656,-1.12872 -1.05088,-2.02391 0,-1.05087 1.32332,-2.10175 0.77843,-0.58382 1.59578,0.0779 0.62274,0.54489 1.16764,0.97303 0.81734,0.58382 1.63469,1.01195 2.17959,1.12872 4.55379,1.12872 3.30831,0 5.21545,-2.52989 1.75146,-2.29635 1.75146,-5.64358 0,-3.89213 -2.3742,-6.18849 -2.45204,-2.3742 -6.96691,-2.3742 -1.63469,0 -3.46399,0.38922 -0.70059,0.15568 -1.44009,0.38921 l -0.93411,0.27245 q -0.0778,0.0389 -0.23353,0.0778 l 2.33528,-17.43674 h 16.93076 l 0.35029,0.42814 -1.59577,4.08673 h -13.77814 z"
           style="font-weight:normal;font-size:65%;font-family:'Adobe Arabic';-inkscape-font-specification:'Adobe Arabic';baseline-shift:super"
           id="path31786" />
        <path
           d="m 699.54436,237.56273 v -1.976 q 0,-4.01189 0.95807,-7.06571 0.29939,-0.95806 0.65866,-1.85625 0.53891,-1.31733 1.25746,-2.51491 0.89818,-1.49698 2.03588,-2.87419 1.37722,-1.61673 3.11371,-3.05382 4.67055,-4.13165 9.9399,-4.73044 4.61067,0.0599 7.18546,2.99395 1.37722,1.43709 0.47904,3.35322 -0.53891,1.1377 -1.79637,2.09576 -1.4371,1.07782 -2.57479,-0.17964 -1.55686,-1.49697 -3.23347,-2.39516 -2.09576,-1.07782 -4.07176,-1.07782 -2.93407,0 -4.5508,2.63468 -0.8383,1.31733 -1.31733,4.31128 -0.53891,3.53285 -0.41916,8.68244 v 3.65261 h 10.53869 q 0.41915,0.59879 0.11976,1.91613 -0.2994,1.31733 -1.07782,1.73649 h -9.58063 v 24.78986 q 0,4.73044 1.25746,5.86814 1.07782,1.07782 6.40704,1.61673 v 2.2754 H 693.1972 v -2.33528 q 4.2514,-0.41915 5.26934,-1.43709 1.07782,-1.1377 1.07782,-5.38911 v -25.38865 h -6.28728 l -0.41915,-1.01795 2.51491,-2.63467 z"
           style="font-weight:normal;font-family:'Adobe Arabic';-inkscape-font-specification:'Adobe Arabic'"
           id="path31788" />
        <path
           d="m 739.9031,214.03032 q -0.23952,2.09576 -1.07782,8.68244 l -0.77843,6.10765 q -0.35927,3.17358 -0.65867,5.14959 l -2.63467,1.1377 q -0.71854,-6.10765 -1.67661,-12.27518 -0.89818,-5.74837 -1.25745,-6.70644 l 7.48486,-2.45503 z"
           style="font-weight:normal;font-family:'Adobe Arabic';-inkscape-font-specification:'Adobe Arabic'"
           id="path31790" />
        <path
           d="m 780.92053,267.68182 q -3.05383,4.01189 -7.18547,6.5268 -4.25141,2.5748 -8.08366,2.5748 -8.32316,0 -13.53263,-5.62862 -4.79031,-5.26934 -4.79031,-12.63445 0,-10.29917 9.04171,-17.00561 3.4131,-2.51491 7.42499,-3.83225 3.4131,-1.1377 6.28728,-1.1377 h 0.11976 q 5.32922,0 8.02378,2.33528 1.43709,1.1377 1.43709,2.69455 0,1.43709 -1.1377,2.75443 -1.07782,1.25746 -1.976,1.25746 -0.71855,0 -1.73649,-1.01794 -4.19153,-3.77238 -9.1016,-3.77238 -4.43104,0 -7.30522,3.35322 -3.23346,3.77237 -3.23346,10.35905 0,4.25141 1.43709,7.54475 1.25746,2.93406 3.53285,4.91007 1.97601,1.73649 4.43104,2.69455 2.15564,0.77842 4.13165,0.77842 2.93407,0 5.26934,-0.95806 2.5748,-1.07782 5.44898,-3.77237 z"
           style="font-weight:normal;font-family:'Adobe Arabic';-inkscape-font-specification:'Adobe Arabic'"
           id="path31792" />
      </g>
      <path
         style="fill:none;fill-rule:evenodd;stroke:#000000;stroke-width:7.4692;stroke-linecap:round;stroke-linejoin:round;stroke-dasharray:none;stroke-dashoffset:2.02542;stroke-opacity:1;paint-order:stroke fill markers"
         d="m 540.33842,275.39624 14.30773,-10.68949 27.42316,57.72323 13.11542,-103.68802 h 114.46188"
         id="path11193" />
    </g>
  </g>
</svg>
