<?xml version="1.0" encoding="UTF-8" standalone="no"?>
<!-- Created with Inkscape (http://www.inkscape.org/) -->

<svg
   width="800px"
   height="200px"
   viewBox="0 0 800 200"
   version="1.1"
   id="SVGRoot"
   sodipodi:docname="ec2.svg"
   inkscape:version="1.2.2 (732a01da63, 2022-12-09)"
   xmlns:inkscape="http://www.inkscape.org/namespaces/inkscape"
   xmlns:sodipodi="http://sodipodi.sourceforge.net/DTD/sodipodi-0.dtd"
   xmlns="http://www.w3.org/2000/svg"
   xmlns:svg="http://www.w3.org/2000/svg">
  <sodipodi:namedview
     id="namedview3332"
     pagecolor="#ffffff"
     bordercolor="#000000"
     borderopacity="0.25"
     inkscape:showpageshadow="2"
     inkscape:pageopacity="0.0"
     inkscape:pagecheckerboard="0"
     inkscape:deskcolor="#d1d1d1"
     inkscape:document-units="px"
     showgrid="false"
     inkscape:zoom="0.71624579"
     inkscape:cx="569.63686"
     inkscape:cy="226.87742"
     inkscape:window-width="1920"
     inkscape:window-height="991"
     inkscape:window-x="-9"
     inkscape:window-y="-9"
     inkscape:window-maximized="1"
     inkscape:current-layer="layer1" />
  <defs
     id="defs3327" />
  <g
     inkscape:label="Layer 1"
     inkscape:groupmode="layer"
     id="layer1">
    <g
       aria-label="EC = 4700    f'c"
       transform="scale(0.84211307,1.187489)"
       id="text4598"
       style="font-weight:500;font-size:149.728px;line-height:1.25;font-family:aakar;-inkscape-font-specification:'aakar, Medium';letter-spacing:0.219772px;word-spacing:0.170934px;stroke:#000000;stroke-width:1.22287">
      <path
         d="m 85.529481,101.97773 q -0.584875,3.21681 -1.827734,8.84623 -1.315969,5.99497 -1.973953,8.48069 h -53.66228 v -3.07059 q 7.384047,-0.51177 9.138672,-2.26639 1.681515,-1.68152 1.681515,-8.26136 V 63.814635 q 0,-7.164719 -1.535297,-8.846234 -1.315968,-1.389078 -7.895812,-1.973953 v -3.216813 h 49.568155 l 1.023531,15.864734 -3.363031,0.438656 Q 75.952154,63.010432 75.001732,60.670932 74.270638,58.770088 73.100888,56.796135 70.980716,53.725541 60.964732,53.725541 h -8.11514 q -2.631938,0 -3.216813,0.511766 -0.584875,0.584875 -0.584875,2.997484 v 23.979875 h 10.015984 q 7.237828,0 9.138672,-1.315969 1.681516,-1.242859 2.778156,-6.799172 h 3.289922 v 20.982391 h -3.289922 q -1.16975,-5.84875 -2.924375,-7.164719 -1.827734,-1.242859 -8.992453,-1.242859 H 49.047904 v 19.666422 q 0,7.09161 2.631938,8.77312 1.389078,0.80421 4.532781,1.09664 l 3.070593,0.14622 h 3.58236 q 10.600859,0 13.744562,-3.50925 3.070594,-3.65547 5.556312,-10.30842 z"
         style="font-weight:normal;font-family:'Adobe Arabic';-inkscape-font-specification:'Adobe Arabic'"
         id="path33765" />
      <path
         d="m 135.20049,137.32244 q -0.76034,2.70871 -1.94837,5.94014 -1.33059,3.51657 -2.18597,5.08477 l -2.28102,0.52273 q -1.75828,0.38017 -3.32648,0.61777 -2.13845,0.38017 -3.99177,0.57026 -2.18598,0.28512 -4.0393,0.28512 -6.60544,0 -11.88029,-2.0434 -4.84715,-1.90085 -8.268677,-5.36989 -3.136395,-3.23144 -4.799635,-7.46082 -1.568198,-3.94426 -1.568198,-8.22116 0,-10.88234 7.983552,-17.63035 7.840988,-6.60544 20.339048,-6.60544 2.09093,0 4.37195,0.28513 1.8058,0.19009 3.75417,0.57026 l 4.18186,0.95042 q 0.57025,0.14256 0.9029,0.19008 l 0.80786,5.41741 q 0.42769,3.04136 0.71282,5.46493 l -2.13845,0.47522 q -2.70871,-10.73978 -14.44643,-10.73978 -4.41947,0 -8.03108,1.71076 -3.374,1.5682 -5.79758,4.46699 -4.75211,5.70253 -4.75211,13.97121 0,9.78936 5.41741,15.82454 5.32237,6.03519 13.78113,6.03519 5.27485,0 8.93398,-2.85127 3.23144,-2.56614 6.22527,-8.26868 z"
         style="font-weight:normal;font-size:97.3233px;font-family:'Adobe Arabic';-inkscape-font-specification:'Adobe Arabic';baseline-shift:sub"
         id="path33767" />
      <path
         d="m 173.37628,86.970059 v -5.629422 h 50.88413 v 5.629422 z m 0,19.373981 v -5.4832 h 50.88413 v 5.4832 z"
         style="font-weight:normal;font-family:'Adobe Arabic';-inkscape-font-specification:'Adobe Arabic'"
         id="path33769" />
      <path
         d="m 299.44244,102.1037 v 7.23783 q 0,5.41009 1.38908,6.72606 1.38908,1.31597 7.89582,1.90084 v 2.99749 h -28.87821 v -2.99749 q 7.16472,-0.58487 8.70002,-2.04706 1.46219,-1.24286 1.46219,-6.65295 V 102.1037 H 261.6449 v -3.363032 l 8.18825,-11.62439 8.18825,-11.405063 q 8.6269,-11.843718 16.52272,-22.07903 h 4.89832 v 43.13453 h 10.45465 v 5.336985 z m -9.4311,-36.116031 h -0.21933 Q 279.41048,79.659122 268.6634,96.766715 h 21.34794 z"
         style="font-weight:normal;font-family:'Adobe Arabic';-inkscape-font-specification:'Adobe Arabic'"
         id="path33771" />
      <path
         d="m 362.90182,55.898575 q -1.82774,3.801688 -3.8748,8.115141 -1.75463,3.582359 -3.8748,8.11514 l -23.32189,48.910174 -8.6269,1.16975 -0.80421,-1.24286 q 4.31346,-6.57985 8.84624,-14.037 4.31345,-7.164721 8.6269,-14.841205 8.48069,-14.987421 15.27986,-28.951312 h -23.68744 q -5.33698,0 -7.0185,1.315969 -1.6084,1.242859 -3.72857,6.652953 h -3.21682 l 1.31597,-8.992453 0.87732,-7.457156 h 42.33032 z"
         style="font-weight:normal;font-family:'Adobe Arabic';-inkscape-font-specification:'Adobe Arabic'"
         id="path33773" />
      <path
         d="m 392.07292,53.339747 q 5.92186,0 10.45464,3.070594 4.09413,2.778156 6.87228,7.968922 2.55883,4.752109 3.8748,11.039515 1.16975,5.84875 1.16975,12.355484 0,6.141187 -1.16975,11.916828 -1.31597,6.36052 -3.8748,11.11262 -2.85126,5.33699 -6.94539,8.18825 -4.60589,3.21682 -10.52775,3.21682 -5.99497,0 -10.52775,-2.99749 -4.16723,-2.77815 -7.0185,-7.89581 -2.55883,-4.679 -3.87479,-11.03952 -1.16975,-5.775636 -1.16975,-12.428589 0,-6.214296 1.16975,-11.989937 1.31596,-6.287406 3.87479,-11.112625 2.85127,-5.336984 7.0185,-8.188249 4.60589,-3.216813 10.52775,-3.216813 z m -0.21933,3.728578 q -6.50673,0 -9.50422,9.723547 -1.31596,4.094125 -1.90084,9.796656 -0.51177,5.044547 -0.51177,11.039515 0,5.92186 0.58488,11.039516 0.65798,5.702531 1.97395,9.869761 3.21681,9.94288 9.57733,9.94288 6.43363,0 9.43111,-9.86977 1.24286,-4.09412 1.82773,-9.869762 0.51177,-5.044547 0.51177,-11.112625 0,-6.068078 -0.51177,-11.112624 -0.65798,-5.702532 -1.90084,-9.796657 -3.07059,-9.650437 -9.50422,-9.650437 z"
         style="font-weight:normal;font-family:'Adobe Arabic';-inkscape-font-specification:'Adobe Arabic'"
         id="path33775" />
      <path
         d="m 445.07765,53.339747 q 5.92186,0 10.45464,3.070594 4.09413,2.778156 6.87228,7.968922 2.55883,4.752109 3.8748,11.039515 1.16975,5.84875 1.16975,12.355484 0,6.141187 -1.16975,11.916828 -1.31597,6.36052 -3.8748,11.11262 -2.85126,5.33699 -6.94539,8.18825 -4.60589,3.21682 -10.52775,3.21682 -5.99497,0 -10.52775,-2.99749 -4.16723,-2.77815 -7.0185,-7.89581 -2.55883,-4.679 -3.87479,-11.03952 -1.16975,-5.775636 -1.16975,-12.428589 0,-6.214296 1.16975,-11.989937 1.31596,-6.287406 3.87479,-11.112625 2.85127,-5.336984 7.0185,-8.188249 4.60589,-3.216813 10.52775,-3.216813 z m -0.21933,3.728578 q -6.50673,0 -9.50422,9.723547 -1.31596,4.094125 -1.90084,9.796656 -0.51177,5.044547 -0.51177,11.039515 0,5.92186 0.58488,11.039516 0.65798,5.702531 1.97395,9.869761 3.21682,9.94288 9.57733,9.94288 6.43363,0 9.43111,-9.86977 1.24286,-4.09412 1.82773,-9.869762 0.51177,-5.044547 0.51177,-11.112625 0,-6.068078 -0.51177,-11.112624 -0.65798,-5.702532 -1.90084,-9.796657 -3.07059,-9.650437 -9.50422,-9.650437 z"
         style="font-weight:normal;font-family:'Adobe Arabic';-inkscape-font-specification:'Adobe Arabic'"
         id="path33777" />
      <path
         d="m 601.0479,74.322137 v -2.412609 q 0,-4.898328 1.16975,-8.626906 0.36554,-1.16975 0.8042,-2.266391 0.65798,-1.608406 1.5353,-3.070593 1.09664,-1.827735 2.48571,-3.50925 1.68152,-1.973953 3.80169,-3.728578 5.70253,-5.044547 12.13616,-5.775641 5.62942,0.07311 8.77312,3.655469 1.68152,1.754625 0.58488,4.094125 -0.65799,1.389078 -2.19328,2.558828 -1.75463,1.315969 -3.14371,-0.219328 -1.90084,-1.827735 -3.9479,-2.924375 -2.55883,-1.315969 -4.97144,-1.315969 -3.58236,0 -5.55631,3.216813 -1.02353,1.608406 -1.60841,5.263874 -0.65798,4.313453 -0.51176,10.60086 v 4.459671 h 12.86725 q 0.51176,0.731094 0.14621,2.3395 -0.36554,1.608406 -1.31596,2.120172 h -11.6975 v 30.267281 q 0,5.77564 1.53529,7.16472 1.31597,1.31597 7.82271,1.97395 v 2.77816 h -26.4656 v -2.85127 q 5.19077,-0.51176 6.43363,-1.75462 1.31597,-1.38908 1.31597,-6.57985 V 78.781809 h -7.67649 l -0.51176,-1.242859 3.07059,-3.216813 z"
         style="font-weight:normal;font-family:'Adobe Arabic';-inkscape-font-specification:'Adobe Arabic'"
         id="path33779" />
      <path
         d="m 650.32408,45.590154 q -0.29243,2.558828 -1.31596,10.600859 l -0.95043,7.457156 q -0.43865,3.874797 -0.8042,6.287406 l -3.21681,1.389078 q -0.87731,-7.457156 -2.04706,-14.987422 -1.09664,-7.018499 -1.5353,-8.188249 l 9.13867,-2.997485 z"
         style="font-weight:normal;font-family:'Adobe Arabic';-inkscape-font-specification:'Adobe Arabic'"
         id="path33781" />
      <path
         d="m 700.40447,111.09615 q -3.72858,4.89833 -8.77312,7.96892 -5.19077,3.14371 -9.86977,3.14371 -10.1622,0 -16.52272,-6.87228 -5.84875,-6.43363 -5.84875,-15.426082 0,-12.574812 11.03952,-20.763062 4.16723,-3.070594 9.06556,-4.679 4.16724,-1.389078 7.67649,-1.389078 h 0.14621 q 6.50674,0 9.79666,2.851266 1.75463,1.389078 1.75463,3.289921 0,1.754625 -1.38908,3.363032 -1.31597,1.535296 -2.41261,1.535296 -0.87731,0 -2.12017,-1.242859 -5.11766,-4.605891 -11.11263,-4.605891 -5.41009,0 -8.91934,4.094125 -3.94791,4.605891 -3.94791,12.647922 0,5.19077 1.75463,9.21178 1.53529,3.58236 4.31345,5.99497 2.41261,2.12017 5.41009,3.28992 2.63194,0.95042 5.04455,0.95042 3.58236,0 6.43362,-1.16975 3.14371,-1.31597 6.65296,-4.60589 z"
         style="font-weight:normal;font-family:'Adobe Arabic';-inkscape-font-specification:'Adobe Arabic'"
         id="path33783" />
    </g>
    <path
       style="fill:none;fill-rule:evenodd;stroke:#000000;stroke-width:9.11956;stroke-linecap:round;stroke-linejoin:round;stroke-dasharray:none;stroke-dashoffset:2.02542;stroke-opacity:1;paint-order:stroke fill markers"
       d="M 414.11869,99.27012 430.32683,85.203374 461.39246,161.1638 476.24993,24.716384 h 129.66524"
       id="path11193" />
  </g>
</svg>
