<?xml version="1.0" encoding="UTF-8" standalone="no"?>
<svg
   enable-background="new 0 0 24 24"
   height="24px"
   id="Layer_1"
   version="1.1"
   viewBox="0 0 24 24"
   width="24px"
   xml:space="preserve"
   sodipodi:docname="freecad.svg"
   inkscape:version="1.2-dev (8a200a5f, 2021-09-02)"
   xmlns:inkscape="http://www.inkscape.org/namespaces/inkscape"
   xmlns:sodipodi="http://sodipodi.sourceforge.net/DTD/sodipodi-0.dtd"
   xmlns:xlink="http://www.w3.org/1999/xlink"
   xmlns="http://www.w3.org/2000/svg"
   xmlns:svg="http://www.w3.org/2000/svg"><defs
     id="defs1141"><filter
       inkscape:collect="always"
       style="color-interpolation-filters:sRGB"
       id="filter44227"
       x="-0.069597327"
       y="-0.081312062"
       width="1.1391947"
       height="1.1626241"><feGaussianBlur
         inkscape:collect="always"
         stdDeviation="1.070778"
         id="feGaussianBlur44229" /></filter><linearGradient
       inkscape:collect="always"
       xlink:href="#linearGradient36265"
       id="linearGradient44735"
       gradientUnits="userSpaceOnUse"
       x1="80.458176"
       y1="58.145203"
       x2="84.262848"
       y2="65.47599" /><linearGradient
       inkscape:collect="always"
       id="linearGradient36265"><stop
         style="stop-color:#23477c;stop-opacity:1"
         offset="0"
         id="stop36261" /><stop
         style="stop-color:#729fcf;stop-opacity:1"
         offset="1"
         id="stop36263" /></linearGradient><linearGradient
       inkscape:collect="always"
       xlink:href="#linearGradient21819"
       id="linearGradient44739"
       gradientUnits="userSpaceOnUse"
       x1="408.96964"
       y1="202.416"
       x2="408.96964"
       y2="106.33333" /><linearGradient
       inkscape:collect="always"
       id="linearGradient21819"><stop
         style="stop-color:#ce0808;stop-opacity:1"
         offset="0"
         id="stop21815" /><stop
         style="stop-color:#fe5e5e;stop-opacity:1"
         offset="1"
         id="stop21817" /></linearGradient><linearGradient
       inkscape:collect="always"
       xlink:href="#linearGradient21819"
       id="linearGradient44737"
       gradientUnits="userSpaceOnUse"
       x1="406.58124"
       y1="202.67191"
       x2="408.96964"
       y2="106.33333" /><linearGradient
       inkscape:collect="always"
       xlink:href="#linearGradient29857"
       id="linearGradient44741"
       gradientUnits="userSpaceOnUse"
       gradientTransform="matrix(0.94133601,0,0,0.94133601,-20.382828,-73.28259)"
       x1="97.61628"
       y1="122.13236"
       x2="91.822784"
       y2="156.19769" /><linearGradient
       inkscape:collect="always"
       id="linearGradient29857"><stop
         style="stop-color:#d73114;stop-opacity:1"
         offset="0"
         id="stop29853" /><stop
         style="stop-color:#e3a969;stop-opacity:1"
         offset="1"
         id="stop29855" /></linearGradient><linearGradient
       inkscape:collect="always"
       xlink:href="#linearGradient35760"
       id="linearGradient44743"
       gradientUnits="userSpaceOnUse"
       gradientTransform="matrix(0.94133601,0,0,0.94133601,-20.382828,-73.28259)"
       x1="98.043861"
       y1="139.31293"
       x2="85.544617"
       y2="112.61123" /><linearGradient
       inkscape:collect="always"
       id="linearGradient35760"><stop
         style="stop-color:#cf0909;stop-opacity:1"
         offset="0"
         id="stop35756" /><stop
         style="stop-color:#fc5b5b;stop-opacity:1"
         offset="1"
         id="stop35758" /></linearGradient><linearGradient
       inkscape:collect="always"
       xlink:href="#linearGradient27666"
       id="linearGradient44745"
       gradientUnits="userSpaceOnUse"
       gradientTransform="matrix(0.29084301,0,0,0.29084301,41.722061,37.933145)"
       x1="160.59903"
       y1="117.92632"
       x2="134.65163"
       y2="39.83345" /><linearGradient
       inkscape:collect="always"
       id="linearGradient27666"><stop
         style="stop-color:#21457a;stop-opacity:1"
         offset="0"
         id="stop27662" /><stop
         style="stop-color:#729fcf;stop-opacity:1"
         offset="1"
         id="stop27664" /></linearGradient><linearGradient
       inkscape:collect="always"
       xlink:href="#linearGradient11721"
       id="linearGradient44747"
       gradientUnits="userSpaceOnUse"
       gradientTransform="matrix(0.32479507,0,0,0.32479507,37.470393,34.611383)"
       x1="120.66092"
       y1="41.285828"
       x2="134.05861"
       y2="133.08781" /><linearGradient
       inkscape:collect="always"
       id="linearGradient11721"><stop
         style="stop-color:#729fcf;stop-opacity:1"
         offset="0"
         id="stop11717" /><stop
         style="stop-color:#204a87;stop-opacity:1"
         offset="1"
         id="stop11719" /></linearGradient><linearGradient
       inkscape:collect="always"
       xlink:href="#linearGradient16844"
       id="linearGradient44749"
       gradientUnits="userSpaceOnUse"
       gradientTransform="translate(-160.05695,-112.3346)"
       x1="242.72177"
       y1="165.92847"
       x2="235.88379"
       y2="187.96118" /><linearGradient
       inkscape:collect="always"
       id="linearGradient16844"><stop
         style="stop-color:#729fcf;stop-opacity:1"
         offset="0"
         id="stop16840" /><stop
         style="stop-color:#729fcf;stop-opacity:1"
         offset="1"
         id="stop16842" /></linearGradient></defs><sodipodi:namedview
     id="namedview1139"
     pagecolor="#ffffff"
     bordercolor="#666666"
     borderopacity="1.0"
     inkscape:pageshadow="2"
     inkscape:pageopacity="0.0"
     inkscape:pagecheckerboard="0"
     showgrid="false"
     inkscape:zoom="12.050278"
     inkscape:cx="3.5683824"
     inkscape:cy="2.8630045"
     inkscape:window-width="1920"
     inkscape:window-height="1001"
     inkscape:window-x="-9"
     inkscape:window-y="1341"
     inkscape:window-maximized="1"
     inkscape:current-layer="Layer_1" /><g
     id="g50668"
     transform="matrix(0.83714928,0,0,0.78572366,-85.371609,-104.05589)"><rect
       style="fill:#e3dbdb;fill-opacity:1;stroke:none;stroke-width:0.196382;stroke-miterlimit:4;stroke-dasharray:none;stroke-opacity:1"
       id="rect9693"
       width="48.36356"
       height="48.36356"
       x="93.974335"
       y="120.67688"
       ry="7.3999805"
       inkscape:export-filename="D:\ProMisac\g54809.png"
       inkscape:export-xdpi="300"
       inkscape:export-ydpi="300" /><circle
       id="circle9697"
       style="fill:#ffe6d5;stroke:#cf0909;stroke-width:0.159544"
       cx="129.79651"
       cy="127.13318"
       r="0.015361726"
       inkscape:export-filename="D:\ProMisac\g54809.png"
       inkscape:export-xdpi="300"
       inkscape:export-ydpi="300" /><circle
       id="circle9699"
       style="fill:#ffe6d5;stroke:#cf0909;stroke-width:0.159544"
       cx="129.79651"
       cy="127.13318"
       r="0.015361726"
       inkscape:export-filename="D:\ProMisac\g54809.png"
       inkscape:export-xdpi="300"
       inkscape:export-ydpi="300" /><g
       id="g44733"
       transform="translate(94.119524,50.096251)"><path
         style="opacity:0.427778;fill:#241c1c;fill-opacity:1;stroke:none;stroke-width:0.131663;stroke-miterlimit:4;stroke-dasharray:none;stroke-opacity:1;filter:url(#filter44227)"
         d="m 27.061083,108.16643 c -0.408303,-0.13747 -0.726027,-0.35316 -0.954,-0.64765 -0.161341,-0.20841 -0.290092,-0.85772 -0.449633,-2.26756 -0.110744,-0.97862 -0.477637,-1.46475 -1.478405,-1.95884 -0.60281,-0.29762 -1.38648,-0.27971 -2.409356,0.055 -1.131216,0.37022 -1.589662,0.32037 -2.126023,-0.23119 -0.570243,-0.58641 -0.839512,-1.41507 -0.639857,-1.96913 0.04212,-0.11688 0.40867,-0.60523 0.814557,-1.08523 0.587396,-0.694643 0.764876,-0.971643 0.86978,-1.357513 0.247669,-0.91097 -0.05081,-2.04417 -0.699087,-2.65412 -0.180544,-0.16986 -0.699413,-0.501998 -1.153044,-0.73807 l -0.824787,-0.429221 -2.298645,-0.01574 -2.298646,-0.01574 -0.01058,2.662011 c -0.0058,1.4641 -0.0032,4.316403 0.0058,6.338443 0.009,2.02203 -9.53e-4,3.88265 -0.02206,4.13471 l -0.0384,0.45828 -0.541791,-0.0409 c -3.5072233,-0.26459 -6.4816673,-2.20734 -7.0921723,-4.63225 -0.121984,-0.48452 -0.137769,-2.02395 -0.140366,-13.689542 -0.0016,-7.228996 0.0078,-13.157506 0.02102,-13.174466 0.01317,-0.01696 3.542558,-0.02889 7.8430873,-0.02651 4.300529,0.0024 8.669631,-0.01095 9.709115,-0.02963 1.039485,-0.01868 2.253644,-0.01453 2.698131,0.0092 l 0.808162,0.04321 -0.05063,0.228079 c -0.02785,0.125444 -0.16282,0.481899 -0.299935,0.79212 -1.066953,2.41395 -3.640232,4.182716 -6.873922,4.724847 -0.754103,0.126429 -1.49582,0.164971 -3.495527,0.18165 l -2.538313,0.02117 -0.0099,0.520615 c -0.0054,0.28634 -0.0042,1.631463 0.0028,2.989162 l 0.01274,2.468544 0.443929,0.03783 c 0.244161,0.0208 2.313721,0.05554 4.59902,0.07718 l 4.155093,0.03935 0.06451,0.217726 0.06451,0.217726 0.0045,-0.24266 c 0.0024,-0.133464 -0.07663,-0.526019 -0.175773,-0.87234 -0.20138,-0.703431 -0.383656,-1.585804 -0.388829,-1.882251 -0.01246,-0.713983 1.120206,-1.689594 1.983613,-1.708565 0.419039,-0.0092 0.688729,0.142438 1.48586,0.835512 0.98043,0.85244 1.305314,0.995542 2.222524,0.978953 0.639477,-0.01159 0.814504,-0.04962 1.247272,-0.271174 0.513374,-0.262819 0.755846,-0.577771 1.686153,-2.190168 0.421555,-0.730639 0.993145,-0.933847 1.949055,-0.692918 1.022533,0.257721 1.375683,0.71758 1.397331,1.819543 0.01437,0.731742 0.179229,1.577834 0.381436,1.957668 0.397555,0.746783 1.463895,1.3781 2.305416,1.364898 0.464846,-0.0073 0.703479,-0.06114 1.883886,-0.425059 0.726162,-0.223877 1.081571,-0.15372 1.559541,0.307851 0.47217,0.455967 0.802024,1.098127 0.810395,1.577665 0.0075,0.427982 -0.153276,0.699032 -0.919239,1.55003 -0.580713,0.645181 -0.81579,1.083426 -0.898496,1.675048 -0.06876,0.491837 0.07169,1.317509 0.295693,1.738273 0.237382,0.44591 0.870162,0.98323 1.529162,1.29848 0.726361,0.34747 1.103429,0.62518 1.271236,0.93625 0.267441,0.49578 0.135683,1.60434 -0.25907,2.17971 -0.250005,0.3644 -0.728276,0.51914 -1.977136,0.63968 -0.903853,0.0872 -1.123857,0.139483 -1.510257,0.358613 -0.723289,0.41019 -1.25271,1.24189 -1.330883,2.09076 -0.03113,0.33806 0.01328,0.659 0.161025,1.16359 0.340781,1.16384 0.399992,1.47318 0.344559,1.80004 -0.09265,0.54633 -0.968447,1.27442 -1.754754,1.4588 -0.413586,0.097 -0.927322,-0.15981 -1.727396,-0.86346 -0.976638,-0.85894 -1.29971,-0.99181 -2.25295,-0.92659 -1.177623,0.0806 -1.76008,0.45586 -2.322894,1.49671 -0.851061,1.57394 -0.981336,1.69693 -1.806172,1.70517 -0.283152,0.003 -0.671037,-0.0474 -0.861965,-0.11173 z m 4.300386,-8.08655 c 2.301113,-0.754973 3.498755,-3.324453 2.632842,-5.64862 -0.712695,-1.912911 -2.919933,-3.064957 -4.970451,-2.594274 -3.304569,0.758542 -4.490424,4.784001 -2.117138,7.186751 1.125527,1.139503 2.910708,1.562733 4.454747,1.056143 z"
         id="path44705" /><g
         id="g44731"
         transform="translate(-53.579316,34.040344)"><path
           style="color:#000000;fill:url(#linearGradient44735);fill-opacity:1;-inkscape-stroke:none"
           d="m 82.59375,55.759766 c -3.070773,0 -5.580078,2.489304 -5.580078,5.546875 0,3.05757 2.509305,5.544921 5.580078,5.544921 3.070773,0 5.578125,-2.487351 5.578125,-5.544921 0,-3.057571 -2.507352,-5.546875 -5.578125,-5.546875 z m 0,1.298828 c 2.373871,0 4.279297,1.896585 4.279297,4.248047 0,2.351461 -1.905426,4.248046 -4.279297,4.248046 -2.373871,0 -4.28125,-1.896585 -4.28125,-4.248046 0,-2.351462 1.907379,-4.248047 4.28125,-4.248047 z"
           id="path44707" /><circle
           id="circle44709"
           style="fill:#ffe6d5;stroke:#cf0909;stroke-width:0.159544"
           cx="87.200546"
           cy="43.199921"
           r="0.015361726"
           inkscape:export-filename="D:\ProMisac\g54809.png"
           inkscape:export-xdpi="300"
           inkscape:export-ydpi="300" /><circle
           id="circle44711"
           style="fill:#ffe6d5;stroke:#cf0909;stroke-width:0.159544"
           cx="87.200546"
           cy="43.199921"
           r="0.015361726"
           inkscape:export-filename="D:\ProMisac\g54809.png"
           inkscape:export-xdpi="300"
           inkscape:export-ydpi="300" /><g
           aria-label="F"
           id="g44715"
           style="font-weight:bold;font-size:132.154px;line-height:1.25;font-family:'Simple Indust Outline';-inkscape-font-specification:'Simple Indust Outline Bold';fill:url(#linearGradient44739);fill-opacity:1;stroke-width:3.30386"
           transform="matrix(0.32906883,0,0,0.32906883,-76.425048,7.143131)"><path
             d="m 462.93006,116.81831 -29.95587,7.84106 v 18.13246 l 28.16374,0.33736 v 18.32604 l -28.16374,-0.33736 v 41.29813 0 c -13.13681,-0.0161 -23.91924,-7.88289 -24.00454,-16.91041 v -79.17226 h 64.33474 z"
             id="path44713"
             sodipodi:nodetypes="cccccccccccc"
             style="fill:url(#linearGradient44737);fill-opacity:1" /></g><path
           id="path44717"
           style="fill:url(#linearGradient44741);fill-opacity:1;stroke:none;stroke-width:0.087066px;stroke-linecap:butt;stroke-linejoin:miter;stroke-opacity:1"
           d="m 70.134432,48.164643 h -4.08117 c 0,0 -2.30505,2.74394 -1.32317,6.68703 1.45757,5.85345 10.59098,5.42134 10.59098,5.42134 l -9.26781,-0.11102 v 13.58993 c -8.34885,-2.2349 -12.32625,-32.88797 13.27142,-31.61781 h -10e-6 c -0.27486,1.98534 -2.92642,5.91125 -9.19024,6.03053 z"
           sodipodi:nodetypes="ccscccccc" /><path
           id="path44719"
           style="fill:url(#linearGradient44743);fill-opacity:1;stroke:none;stroke-width:0.087066px;stroke-linecap:butt;stroke-linejoin:miter;stroke-opacity:1"
           d="m 64.730092,54.851673 c -0.98188,-3.94309 1.32317,-6.68703 1.32317,-6.68703 v 5.96683 l 9.26781,0.11101 v 6.03053 c 0,0 -9.13341,0.43211 -10.59098,-5.42134 z"
           sodipodi:nodetypes="sccccs" /><path
           style="color:#000000;fill:#f6ac7d;-inkscape-stroke:none"
           d="m 79.324672,42.134113 c -6.42337,-0.31706 -11.01597,1.22679 -14.14139,3.98246 -3.12678,2.75687 -4.78053,6.57269 -5.36523,10.49024 -0.5847,3.91754 -0.10304,7.94033 1.05273,11.13281 1.15578,3.19247 3.01886,5.43313 5.18248,6.01231 v 0 c -2.0108,-0.53828 -3.77478,-2.96613 -4.91295,-6.10997 -1.13817,-3.14384 -1.61213,-7.1578 -1.03508,-11.02411 0.57706,-3.8663 2.20559,-7.61517 5.27149,-10.31835 3.06589,-2.70319 7.57689,-4.48152 13.94795,-4.16539 m -13.27141,6.03053 c 0,0 -2.46015,2.71213 -1.46177,6.72146 0.74596,2.99572 3.45552,4.37998 5.94531,5.00977 2.48979,0.62978 4.79102,0.51953 4.79102,0.51953 l -0.0137,-0.28516 c 0,0 -2.26572,0.10581 -4.70703,-0.51172 -2.4413,-0.61752 -5.02668,-1.94305 -5.73828,-4.80078 -0.96538,-3.87684 1.18445,-6.6531 1.18445,-6.6531 z"
           id="path44721"
           sodipodi:nodetypes="csssccsssccssccsscc" /><path
           id="path44723"
           style="fill:url(#linearGradient44745);fill-opacity:1;stroke:#000000;stroke-width:0;stroke-miterlimit:4;stroke-dasharray:none"
           inkscape:transform-center-x="-0.27500529"
           inkscape:transform-center-y="-3.276762"
           d="m 84.726494,48.514321 c -2.054547,-0.03822 -1.192757,2.776071 -3.803875,3.252581 -2.832396,0.5169 -2.813464,-2.983123 -5.232447,-1.421662 -2.418987,1.561462 0.778202,2.985433 -0.859104,5.353743 -1.637305,2.368306 -4.098697,-0.119919 -4.705058,2.694677 -0.60636,2.814605 2.661293,1.560649 3.178188,4.393041 0.5169,2.832401 -2.983123,2.813464 -1.421661,5.232452 1.561461,2.418987 2.985432,-0.778358 5.353743,0.858948 2.368305,1.637306 -0.119925,4.098848 2.694676,4.705208 2.814606,0.606361 1.560644,-2.661292 4.393041,-3.178187 2.832391,-0.516895 2.81346,2.983123 5.232452,1.421661 2.418978,-1.561461 -0.778357,-2.985432 0.858948,-5.353738 1.637297,-2.36831 4.098838,0.11992 4.705199,-2.694681 0.606361,-2.814601 -2.661438,-1.560644 -3.178333,-4.393041 -0.5169,-2.832396 2.983118,-2.813464 1.421661,-5.232452 -1.561461,-2.418982 -2.985277,0.778357 -5.353588,-0.858948 -2.36831,-1.637306 0.119925,-4.098843 -2.694681,-4.705204 -0.219889,-0.04737 -0.415052,-0.07116 -0.589161,-0.0744 z m -2.103261,7.101996 a 5.4696878,5.4696878 0 0 1 5.46977,5.46977 5.4696878,5.4696878 0 0 1 -5.46977,5.46962 5.4696878,5.4696878 0 0 1 -5.46962,-5.46962 5.4696878,5.4696878 0 0 1 5.46962,-5.46977 z"
           inkscape:export-filename="D:\ProMisac\freecad.png"
           inkscape:export-xdpi="300"
           inkscape:export-ydpi="300" /><path
           id="path44725"
           style="fill:url(#linearGradient44747);fill-opacity:1;stroke:#000000;stroke-width:0;stroke-miterlimit:4;stroke-dasharray:none"
           inkscape:transform-center-x="-0.2441834"
           inkscape:transform-center-y="-2.9095018"
           d="m 83.949113,49.927559 c -1.824271,-0.03395 -1.059079,2.464926 -3.377539,2.888032 -2.514937,0.458958 -2.498132,-2.64878 -4.645995,-1.262324 -2.147862,1.386455 0.690981,2.650826 -0.762815,4.753693 -1.453792,2.102866 -3.639311,-0.106478 -4.177711,2.392665 -0.5384,2.499137 2.363009,1.385722 2.821973,3.900664 0.458963,2.514943 -2.648775,2.498133 -1.262324,4.646 1.386455,2.147872 2.650831,-0.691117 4.753697,0.762679 2.102871,1.453797 -0.106486,3.639447 2.392661,4.177847 2.499142,0.5384 1.385727,-2.363013 3.900665,-2.821972 2.514942,-0.458964 2.498128,2.648769 4.645999,1.262319 2.147862,-1.386451 -0.691122,-2.650827 0.762675,-4.753698 1.453796,-2.102871 3.639452,0.106482 4.177842,-2.39266 0.538405,-2.499137 -2.36314,-1.385728 -2.822099,-3.900665 -0.458969,-2.514942 2.648765,-2.498133 1.262323,-4.645999 -1.386455,-2.147863 -2.650694,0.691121 -4.753566,-0.762675 -2.102866,-1.453801 0.106487,-3.639452 -2.39266,-4.177847 -0.195238,-0.04207 -0.368526,-0.06319 -0.523126,-0.06606 z m -1.867529,6.306002 a 4.8566458,4.8566458 0 0 1 4.856718,4.856719 4.8566458,4.8566458 0 0 1 -4.856718,4.856587 4.8566458,4.8566458 0 0 1 -4.856583,-4.856587 4.8566458,4.8566458 0 0 1 4.856583,-4.856719 z"
           inkscape:export-filename="D:\ProMisac\freecad.png"
           inkscape:export-xdpi="300"
           inkscape:export-ydpi="300" /><path
           style="color:#000000;fill:url(#linearGradient44749);fill-opacity:1;-inkscape-stroke:none"
           d="m 83.798522,49.774773 v 0.0625 c -0.38649,0.0349 -0.71975,0.14098 -0.92969,0.36524 -0.24478,0.26148 -0.39621,0.5968 -0.55859,0.93164 -0.32476,0.66968 -0.66057,1.33153 -1.76563,1.5332 -0.59935,0.10938 -1.02643,0.008 -1.38672,-0.18359 -0.36029,-0.19166 -0.65162,-0.48045 -0.94336,-0.75586 -0.29173,-0.27541 -0.5873,-0.5414 -0.97265,-0.64258 -0.38535,-0.10118 -0.8401,-0.0186 -1.39844,0.3418 -0.55834,0.36041 -0.82024,0.73998 -0.88672,1.13281 -0.0665,0.39284 0.0547,0.77113 0.18555,1.15039 0.13083,0.37927 0.27449,0.76462 0.30078,1.17188 0.0263,0.40725 -0.0578,0.83869 -0.4043,1.33984 -0.34646,0.50115 -0.7191,0.73232 -1.10937,0.85156 -0.39028,0.11925 -0.80211,0.11931 -1.20313,0.13086 -0.40102,0.0116 -0.7966,0.0315 -1.14062,0.23242 -0.34402,0.20095 -0.60809,0.58082 -0.74805,1.23047 -0.13996,0.64966 -0.0569,1.10491 0.17383,1.42969 0.23077,0.32478 0.58462,0.50598 0.94531,0.68164 0.3607,0.17566 0.73446,0.34586 1.04102,0.61524 0.30656,0.26937 0.55273,0.63306 0.66211,1.23242 0.10938,0.59935 0.008,1.02838 -0.1836,1.38867 -0.19165,0.36029 -0.4824,0.65162 -0.75781,0.94336 -0.27541,0.29174 -0.5414,0.58535 -0.64258,0.9707 -0.10118,0.38536 -0.0167,0.8401 0.34375,1.39844 0.36042,0.55834 0.73998,0.82025 1.13281,0.88672 0.39284,0.0665 0.76918,-0.0527 1.14844,-0.1836 0.37927,-0.13085 0.76462,-0.27643 1.17188,-0.30273 0.40725,-0.0263 0.83869,0.0578 1.33984,0.4043 0.50115,0.34646 0.73232,0.72104 0.85156,1.11132 0.11925,0.39029 0.12126,0.80014 0.13282,1.20118 0.0115,0.40103 0.0315,0.79854 0.23242,1.14257 0.20094,0.34404 0.58081,0.60614 1.23047,0.7461 0.64965,0.13996 1.10295,0.0569 1.42773,-0.17383 0.32478,-0.23077 0.50794,-0.58266 0.68359,-0.94336 0.17566,-0.36069 0.34392,-0.73641 0.61329,-1.04297 0.26937,-0.30656 0.63502,-0.55078 1.23437,-0.66015 0.59935,-0.10938 1.02643,-0.008 1.38672,0.18359 0.36029,0.19166 0.65162,0.48045 0.94336,0.75586 0.29174,0.2754 0.5873,0.5414 0.97266,0.64258 0.38535,0.10118 0.84009,0.0186 1.39843,-0.3418 0.55835,-0.36041 0.82025,-0.73998 0.88672,-1.13281 0.0665,-0.39284 -0.0547,-0.77113 -0.18555,-1.15039 -0.13085,-0.37927 -0.27447,-0.76462 -0.30078,-1.17188 -0.0263,-0.40725 0.0578,-0.83869 0.4043,-1.33984 0.34646,-0.50115 0.71909,-0.73232 1.10938,-0.85156 0.39029,-0.11925 0.80209,-0.11931 1.20312,-0.13086 0.40104,-0.0116 0.79659,-0.0315 1.14063,-0.23243 0.34403,-0.20094 0.60613,-0.58081 0.74609,-1.23046 0.13996,-0.64966 0.0589,-1.10491 -0.17188,-1.42969 -0.23078,-0.32478 -0.5846,-0.50599 -0.94531,-0.68164 -0.36071,-0.17566 -0.73444,-0.34586 -1.04101,-0.61524 -0.30658,-0.26937 -0.55274,-0.63307 -0.66211,-1.23242 -0.10938,-0.59935 -0.008,-1.02838 0.18359,-1.38867 0.19166,-0.36029 0.48241,-0.65162 0.75781,-0.94336 0.27541,-0.29174 0.5414,-0.58535 0.64258,-0.9707 0.10118,-0.38536 0.0167,-0.8401 -0.34375,-1.39844 -0.36041,-0.55834 -0.73999,-0.82025 -1.13281,-0.88672 -0.39283,-0.0665 -0.77114,0.0527 -1.15039,0.18359 -0.37925,0.13086 -0.76268,0.27644 -1.16992,0.30274 -0.40724,0.0263 -0.8387,-0.0578 -1.33985,-0.4043 -0.50115,-0.34646 -0.73231,-0.72104 -0.85156,-1.11133 -0.11925,-0.39029 -0.12126,-0.80013 -0.13281,-1.20117 -0.0115,-0.40103 -0.0315,-0.79854 -0.23242,-1.14258 -0.20095,-0.34403 -0.58082,-0.60613 -1.23047,-0.74609 -0.20303,-0.0438 -0.38465,-0.0672 -0.55078,-0.0703 z m 0.14844,0.30274 c 0.14306,0.003 0.30668,0.0221 0.49414,0.0625 0.59991,0.12924 0.8798,0.34284 1.0332,0.60547 0.1534,0.26263 0.182,0.60364 0.19336,0.99804 0.0114,0.39441 0.008,0.83603 0.14453,1.28125 0.13603,0.44523 0.41651,0.8891 0.9668,1.26954 0.55028,0.38043 1.06668,0.48703 1.53125,0.45703 0.46456,-0.03 0.87702,-0.18772 1.25,-0.31641 0.37297,-0.12869 0.70208,-0.22457 1.00195,-0.17383 0.29987,0.0507 0.59687,0.23832 0.92969,0.75391 0.33281,0.51559 0.38193,0.86598 0.30469,1.16016 -0.0772,0.29417 -0.29947,0.55488 -0.57032,0.84179 -0.27085,0.28691 -0.58605,0.59681 -0.80468,1.00781 -0.21864,0.41101 -0.333,0.92392 -0.2129,1.58204 0.12011,0.65811 0.40809,1.09701 0.75782,1.40429 0.34972,0.30729 0.75463,0.48741 1.10937,0.66016 0.35475,0.17275 0.65391,0.338 0.83008,0.58594 0.17618,0.24793 0.25424,0.59149 0.125,1.1914 -0.12924,0.59991 -0.34088,0.88176 -0.60352,1.03516 -0.26263,0.1534 -0.60559,0.18004 -1,0.19141 -0.3944,0.0114 -0.83602,0.008 -1.28125,0.14453 -0.44522,0.13603 -0.88909,0.41846 -1.26953,0.96875 -0.38043,0.55028 -0.48703,1.06472 -0.45703,1.52929 0.03,0.46458 0.18968,0.87701 0.31836,1.25 0.12869,0.373 0.22262,0.70207 0.17188,1.00196 -0.0507,0.29988 -0.23832,0.59882 -0.75391,0.93164 -0.51559,0.33281 -0.86403,0.38192 -1.1582,0.30468 -0.29418,-0.0772 -0.55489,-0.30141 -0.8418,-0.57226 -0.28691,-0.27085 -0.59876,-0.5841 -1.00977,-0.80274 -0.411,-0.21863 -0.92391,-0.33299 -1.58203,-0.21289 -0.65811,0.12011 -1.09701,0.40811 -1.40429,0.75782 -0.30729,0.34971 -0.48741,0.75269 -0.66016,1.10742 -0.17275,0.35473 -0.33801,0.65587 -0.58594,0.83203 -0.24793,0.17616 -0.59149,0.25424 -1.1914,0.125 -0.59992,-0.12924 -0.88176,-0.34284 -1.03516,-0.60547 -0.1534,-0.26263 -0.18004,-0.60364 -0.19141,-0.99805 -0.0114,-0.3944 -0.008,-0.83602 -0.14453,-1.28125 -0.13603,-0.44522 -0.41651,-0.88909 -0.96679,-1.26953 -0.55029,-0.38043 -1.06668,-0.48703 -1.53125,-0.45703 -0.46458,0.03 -0.87701,0.18772 -1.25,0.31641 -0.373,0.12869 -0.70207,0.22457 -1.00196,0.17383 -0.29988,-0.0507 -0.59687,-0.23832 -0.92968,-0.75391 -0.33282,-0.51559 -0.38193,-0.86598 -0.30469,-1.16016 0.0772,-0.29417 0.29946,-0.55488 0.57031,-0.84179 0.27085,-0.28691 0.5841,-0.59681 0.80273,-1.00782 0.21864,-0.411 0.33495,-0.92391 0.21485,-1.58203 -0.1201,-0.65811 -0.41006,-1.09701 -0.75977,-1.40429 -0.34971,-0.30729 -0.75269,-0.48741 -1.10742,-0.66016 -0.35473,-0.17275 -0.65391,-0.33801 -0.83008,-0.58594 -0.17616,-0.24793 -0.25424,-0.59149 -0.125,-1.1914 0.12924,-0.59992 0.3409,-0.88176 0.60352,-1.03516 0.26262,-0.1534 0.60366,-0.18004 0.99805,-0.19141 0.39438,-0.0114 0.83603,-0.008 1.28125,-0.14453 0.44521,-0.13603 0.89105,-0.41847 1.27148,-0.96875 0.38043,-0.55028 0.48702,-1.06472 0.45703,-1.52929 -0.03,-0.46458 -0.18969,-0.87701 -0.31836,-1.25 -0.12867,-0.373 -0.22458,-0.70207 -0.17383,-1.00196 0.0508,-0.29989 0.24028,-0.59882 0.75586,-0.93164 0.51559,-0.33281 0.86403,-0.38192 1.15821,-0.30469 0.29417,0.0772 0.55488,0.30142 0.84179,0.57227 0.28691,0.27085 0.59681,0.5841 1.00782,0.80273 0.411,0.21864 0.92586,0.333 1.58398,0.21289 1.2134,-0.22144 1.65214,-1.02021 1.98047,-1.69726 0.16416,-0.33853 0.31054,-0.64669 0.50781,-0.85742 0.19727,-0.21073 0.43734,-0.33795 0.85938,-0.33008 z"
           id="path44727" /><ellipse
           style="opacity:1;fill:none;fill-opacity:1;stroke:#729fcf;stroke-width:0.363889;stroke-miterlimit:4;stroke-dasharray:none;stroke-opacity:1"
           id="ellipse44729"
           cx="82.081207"
           cy="61.121166"
           rx="4.9193692"
           ry="4.7799945" /></g></g></g></svg>
