<?xml version="1.0" encoding="UTF-8" standalone="no"?>
<!-- Generator: Adobe Illustrator 17.1.0, SVG Export Plug-In . SVG Version: 6.00 Build 0)  -->

<svg
   version="1.1"
   id="Capa_1"
   x="0px"
   y="0px"
   viewBox="0 0 186.333 186.333"
   style="enable-background:new 0 0 186.333 186.333;"
   xml:space="preserve"
   sodipodi:docname="load_combinations_to_f2k.svg"
   inkscape:version="1.2-dev (8a200a5f, 2021-09-02)"
   xmlns:inkscape="http://www.inkscape.org/namespaces/inkscape"
   xmlns:sodipodi="http://sodipodi.sourceforge.net/DTD/sodipodi-0.dtd"
   xmlns:xlink="http://www.w3.org/1999/xlink"
   xmlns="http://www.w3.org/2000/svg"
   xmlns:svg="http://www.w3.org/2000/svg"><defs
   id="defs37"><rect
     x="11.845129"
     y="15.489784"
     width="102.9615"
     height="48.29168"
     id="rect5588" /><radialGradient
     inkscape:collect="always"
     xlink:href="#linearGradient18019"
     id="radialGradient18023"
     cx="62.261745"
     cy="32.149117"
     fx="62.261745"
     fy="32.149117"
     r="60.930099"
     gradientTransform="matrix(0.81458328,0,0,0.28906448,5.7264681,13.167267)"
     gradientUnits="userSpaceOnUse" /><linearGradient
     inkscape:collect="always"
     id="linearGradient18019"><stop
       style="stop-color:#d4085d;stop-opacity:1;"
       offset="0"
       id="stop18015" /><stop
       style="stop-color:#ff6f0f;stop-opacity:1;"
       offset="1"
       id="stop18017" /></linearGradient><radialGradient
     inkscape:collect="always"
     xlink:href="#linearGradient18019"
     id="radialGradient866"
     cx="62.261745"
     cy="32.149117"
     fx="62.261745"
     fy="32.149117"
     r="60.930099"
     gradientTransform="matrix(1,0,0,0.35486178,0,20.740625)"
     gradientUnits="userSpaceOnUse" /><radialGradient
     inkscape:collect="always"
     xlink:href="#linearGradient18019"
     id="radialGradient35931"
     cx="68.380241"
     cy="93.484375"
     fx="68.380241"
     fy="93.484375"
     r="41.359375"
     gradientTransform="matrix(1,0,0,0.56252361,-16.459056,28.40617)"
     gradientUnits="userSpaceOnUse" /><radialGradient
     inkscape:collect="always"
     xlink:href="#linearGradient18019"
     id="radialGradient1462"
     cx="68.380241"
     cy="93.484375"
     fx="68.380241"
     fy="93.484375"
     r="41.359375"
     gradientTransform="matrix(1,0,0,0.56252361,0,40.897207)"
     gradientUnits="userSpaceOnUse" /></defs><sodipodi:namedview
   id="namedview35"
   pagecolor="#ffffff"
   bordercolor="#666666"
   borderopacity="1.0"
   inkscape:pageshadow="2"
   inkscape:pageopacity="0.0"
   inkscape:pagecheckerboard="0"
   showgrid="false"
   inkscape:zoom="2.1949951"
   inkscape:cx="82.460321"
   inkscape:cy="55.353199"
   inkscape:window-width="1920"
   inkscape:window-height="1001"
   inkscape:window-x="-9"
   inkscape:window-y="-9"
   inkscape:window-maximized="1"
   inkscape:current-layer="g18852" />
















<g
   id="g18852"><path
     style="fill:#000002"
     d="M 183.833,182.13498 H 2.5 c -1.381,0 -2.5,-1.119 -2.5,-2.5 V 110.301 c 0,-1.381 1.119,-2.49999 2.5,-2.49999 h 127.671 l 38.407,-74.007968 c 0.635,-1.226 2.145,-1.705 3.37,-1.067 l 9.973,5.175 c 0.589,0.305 1.031,0.832 1.232,1.464 0.2,0.632 0.141,1.318 -0.165,1.906 l -34.525,66.529968 h 35.37 c 1.381,0 2.5,1.11899 2.5,2.49999 v 69.33398 c 0,1.381 -1.119,2.5 -2.5,2.5 z m -178.833,-5 h 176.333 v -64.33399 h -35.439 l -12.578,24.23399 c -0.103,0.281 -0.257,0.544 -0.457,0.776 l -15.829,18.264 c -0.758,0.874 -2.015,1.114 -3.041,0.581 -1.026,-0.532 -1.554,-1.699 -1.275,-2.821 l 5.781,-23.29 c 0.044,-0.244 0.124,-0.482 0.241,-0.707 l 8.841,-17.03699 H 5 Z m 117.621,-42.464 -2.544,10.253 6.919,-7.983 z m 4.472,-3.326 2.771,1.438 47.535,-91.596938 -5.535,-2.872 -37.795,72.829948 c -0.038,0.104 -0.082,0.208 -0.135,0.308 l -9.584,18.46999 z m -52.927,31.29 H 20.833 c -1.381,0 -2.5,-1.119 -2.5,-2.5 0,-1.381 1.119,-2.5 2.5,-2.5 h 53.333 c 1.381,0 2.5,1.119 2.5,2.5 0,1.381 -1.119,2.5 -2.5,2.5 z m 0,-15.584 H 20.833 c -1.381,0 -2.5,-1.119 -2.5,-2.5 0,-1.381 1.119,-2.5 2.5,-2.5 h 53.333 c 1.381,0 2.5,1.119 2.5,2.5 0,1.381 -1.119,2.5 -2.5,2.5 z m 0,-15.583 H 20.833 c -1.381,0 -2.5,-1.119 -2.5,-2.5 0,-1.381 1.119,-2.5 2.5,-2.5 h 53.333 c 1.381,0 2.5,1.119 2.5,2.5 0,1.381 -1.119,2.5 -2.5,2.5 z"
     id="path2" /><g
     id="g4">
</g><g
     id="g6">
</g><g
     id="g8">
</g><g
     id="g10">
</g><g
     id="g12">
</g><g
     id="g14">
</g><g
     id="g16">
</g><g
     id="g18">
</g><g
     id="g20">
</g><g
     id="g22">
</g><g
     id="g24">
</g><g
     id="g26">
</g><g
     id="g28">
</g><g
     id="g30">
</g><g
     id="g32">
</g><text
     xml:space="preserve"
     style="font-style:normal;font-weight:normal;font-size:48.4498px;line-height:1.25;font-family:sans-serif;fill:url(#radialGradient18023);fill-opacity:1;stroke:none;stroke-width:0.757029"
     x="2.0797853"
     y="40.073158"
     id="text4357"
     transform="scale(0.89637348,1.1156064)"><tspan
       sodipodi:role="line"
       id="tspan4355"
       x="2.0797853"
       y="40.073158"
       style="font-size:48.4498px;fill:url(#radialGradient18023);fill-opacity:1;stroke-width:0.757029">D+L+E</tspan></text><text
     xml:space="preserve"
     style="font-style:normal;font-weight:normal;font-size:64px;line-height:1.25;font-family:sans-serif;fill:#000000;fill-opacity:1;stroke:none"
     x="3.9993134"
     y="104.25896"
     id="text21199"><tspan
       sodipodi:role="line"
       id="tspan21197"
       x="3.9993134"
       y="104.25896"
       style="font-size:64px;fill:#000000;fill-opacity:1">F2K</tspan></text></g></svg>
