<?xml version="1.0" encoding="UTF-8" standalone="no"?>
<!-- Uploaded to: SVG Repo, www.svgrepo.com, Generator: SVG Repo Mixer Tools -->

<svg
   version="1.1"
   id="Layer_1"
   viewBox="0 0 512 512"
   xml:space="preserve"
   sodipodi:docname="property_editor.svg"
   inkscape:version="1.2.2 (732a01da63, 2022-12-09)"
   xmlns:inkscape="http://www.inkscape.org/namespaces/inkscape"
   xmlns:sodipodi="http://sodipodi.sourceforge.net/DTD/sodipodi-0.dtd"
   xmlns="http://www.w3.org/2000/svg"
   xmlns:svg="http://www.w3.org/2000/svg"><defs
   id="defs67" /><sodipodi:namedview
   id="namedview65"
   pagecolor="#ffffff"
   bordercolor="#000000"
   borderopacity="0.25"
   inkscape:showpageshadow="2"
   inkscape:pageopacity="0.0"
   inkscape:pagecheckerboard="0"
   inkscape:deskcolor="#d1d1d1"
   showgrid="false"
   inkscape:zoom="1.6269531"
   inkscape:cx="255.69268"
   inkscape:cy="256"
   inkscape:window-width="2400"
   inkscape:window-height="1321"
   inkscape:window-x="-9"
   inkscape:window-y="-9"
   inkscape:window-maximized="1"
   inkscape:current-layer="Layer_1" />
<path
   style="fill:#f2f2f2;stroke-width:1.10595"
   d="M 453.32225,44.350804 H 196.37628 c -14.75788,0 -26.76528,11.661374 -26.76528,25.996396 v 399.7653 c 0,14.33502 12.0074,25.99639 26.76528,25.99639 h 256.94597 c 14.75787,0 26.76527,-11.66137 26.76527,-25.99639 V 70.3472 c 0,-14.335022 -12.0074,-25.996396 -26.76527,-25.996396 z"
   id="path2" />
<path
   style="fill:#cccccc;stroke-width:1.10595"
   d="m 480.08752,70.3472 c 0,-14.335022 -12.0074,-25.996396 -26.76527,-25.996396 H 196.37628 c -14.75788,0 -26.76528,11.661374 -26.76528,25.996396 v 17.716046 h 310.47652 z"
   id="path4" />
<path
   style="fill:#e5e5e5;stroke-width:1.10595"
   d="M 169.611,88.063246 V 470.11359 c 0,14.33502 12.0074,25.99639 26.76528,25.99639 h 256.94597 c 14.75787,0 26.76527,-11.66137 26.76527,-25.99639 V 88.063246 Z"
   id="path6" />
<g
   id="g14"
   transform="matrix(1.1221867,0,0,1.0899499,3.963896,12)">
	<path
   style="fill:#fcb16b"
   d="m 302.907,0 h -33.921 c -4.392,0 -7.95,3.56 -7.95,7.95 v 80.563 c 0,4.391 3.559,7.95 7.95,7.95 h 33.921 c 4.392,0 7.95,-3.56 7.95,-7.95 V 7.95 c 0,-4.39 -3.558,-7.95 -7.95,-7.95 z"
   id="path8" />
	<path
   style="fill:#fcb16b"
   d="m 379.23,0 h -33.921 c -4.392,0 -7.95,3.56 -7.95,7.95 v 80.563 c 0,4.391 3.559,7.95 7.95,7.95 h 33.921 c 4.392,0 7.95,-3.56 7.95,-7.95 V 7.95 C 387.18,3.56 383.622,0 379.23,0 Z"
   id="path10" />
	<path
   style="fill:#fcb16b"
   d="m 226.584,0 h -33.921 c -4.392,0 -7.95,3.56 -7.95,7.95 v 80.563 c 0,4.391 3.559,7.95 7.95,7.95 h 33.921 c 4.392,0 7.95,-3.56 7.95,-7.95 V 7.95 c 0,-4.39 -3.558,-7.95 -7.95,-7.95 z"
   id="path12" />
</g>
<g
   id="g22"
   transform="matrix(1.1221867,0,0,1.0899499,3.963896,12)">
	<path
   style="fill:#fb9d46"
   d="M 268.986,88.513 V 7.95 c 0,-4.391 3.559,-7.95 7.95,-7.95 h -7.95 c -4.392,0 -7.95,3.56 -7.95,7.95 v 80.563 c 0,4.391 3.559,7.95 7.95,7.95 h 7.95 c -4.392,0.001 -7.95,-3.559 -7.95,-7.95 z"
   id="path16" />
	<path
   style="fill:#fb9d46"
   d="M 345.309,88.513 V 7.95 c 0,-4.391 3.559,-7.95 7.95,-7.95 h -7.95 c -4.392,0 -7.95,3.56 -7.95,7.95 v 80.563 c 0,4.391 3.559,7.95 7.95,7.95 h 7.95 c -4.392,0.001 -7.95,-3.559 -7.95,-7.95 z"
   id="path18" />
	<path
   style="fill:#fb9d46"
   d="M 192.663,88.513 V 7.95 c 0,-4.391 3.559,-7.95 7.95,-7.95 h -7.95 c -4.392,0 -7.95,3.56 -7.95,7.95 v 80.563 c 0,4.391 3.559,7.95 7.95,7.95 h 7.95 c -4.392,0.001 -7.95,-3.559 -7.95,-7.95 z"
   id="path20" />
</g>
<g
   id="g30"
   transform="matrix(1.1221867,0,0,1.0899499,3.963896,12)">
	<path
   style="fill:#808080"
   d="M 379.23,172.787 H 268.986 c -4.392,0 -7.95,-3.56 -7.95,-7.95 0,-4.39 3.559,-7.95 7.95,-7.95 H 379.23 c 4.392,0 7.95,3.56 7.95,7.95 0,4.39 -3.558,7.95 -7.95,7.95 z"
   id="path24" />
	<path
   style="fill:#808080"
   d="M 379.23,257.59 H 268.986 c -4.392,0 -7.95,-3.56 -7.95,-7.95 0,-4.39 3.559,-7.95 7.95,-7.95 H 379.23 c 4.392,0 7.95,3.56 7.95,7.95 0,4.39 -3.558,7.95 -7.95,7.95 z"
   id="path26" />
	<path
   style="fill:#808080"
   d="M 379.23,342.393 H 268.986 c -4.392,0 -7.95,-3.56 -7.95,-7.95 0,-4.391 3.559,-7.95 7.95,-7.95 H 379.23 c 4.392,0 7.95,3.56 7.95,7.95 0,4.391 -3.558,7.95 -7.95,7.95 z"
   id="path28" />
</g>
<g
   id="g38"
   transform="matrix(1.1221867,0,0,1.0899499,3.963896,12)">
	<path
   style="fill:#ff7452"
   d="m 226.584,189.747 h -33.921 c -4.392,0 -7.95,-3.56 -7.95,-7.95 v -33.921 c 0,-4.391 3.559,-7.95 7.95,-7.95 h 33.921 c 4.392,0 7.95,3.56 7.95,7.95 v 33.921 c 0,4.391 -3.558,7.95 -7.95,7.95 z m -25.971,-15.9 h 18.021 v -18.021 h -18.021 z"
   id="path32" />
	<path
   style="fill:#ff7452"
   d="m 226.584,274.551 h -33.921 c -4.392,0 -7.95,-3.56 -7.95,-7.95 V 232.68 c 0,-4.391 3.559,-7.95 7.95,-7.95 h 33.921 c 4.392,0 7.95,3.56 7.95,7.95 v 33.92 c 0,4.391 -3.558,7.951 -7.95,7.951 z M 200.613,258.65 h 18.021 v -18.021 h -18.021 z"
   id="path34" />
	<path
   style="fill:#ff7452"
   d="m 226.584,359.354 h -33.921 c -4.392,0 -7.95,-3.56 -7.95,-7.95 v -33.921 c 0,-4.391 3.559,-7.95 7.95,-7.95 h 33.921 c 4.392,0 7.95,3.56 7.95,7.95 v 33.921 c 0,4.39 -3.558,7.95 -7.95,7.95 z m -25.971,-15.901 h 18.021 v -18.021 h -18.021 z"
   id="path36" />
</g>




<path
   style="fill:#333333"
   d="m 36.576,202.468 c -4.392,0 -7.95,-3.56 -7.95,-7.95 V 62.012 c 0,-13.152 10.7,-23.851 23.851,-23.851 h 18.021 c 4.392,0 7.95,3.56 7.95,7.95 0,4.39 -3.559,7.95 -7.95,7.95 H 52.476 c -4.384,0 -7.95,3.566 -7.95,7.95 v 132.505 c 0,4.392 -3.559,7.952 -7.95,7.952 z"
   id="path48" />
<path
   style="fill:#458fde"
   d="M 146.29,41.872 C 146.29,18.784 127.506,0 104.418,0 81.33,0 62.547,18.784 62.547,41.872 v 152.999 h 83.743 z"
   id="path50" />
<path
   style="fill:#fb9d46"
   d="m 64.289,441.173 33.921,42.402 c 1.508,1.886 3.793,2.984 6.208,2.984 2.415,0 4.7,-1.098 6.208,-2.984 l 33.921,-42.402 c 1.127,-1.41 1.743,-3.161 1.743,-4.966 H 62.547 c 0,1.805 0.614,3.556 1.742,4.966 z"
   id="path52" />
<path
   style="fill:#4c4c4c"
   d="m 104.418,512 c -4.392,0 -7.95,-3.56 -7.95,-7.95 v -25.441 c 0,-4.391 3.559,-7.95 7.95,-7.95 4.391,0 7.95,3.56 7.95,7.95 v 25.441 c 0.001,4.39 -3.558,7.95 -7.95,7.95 z"
   id="path54" />
<rect
   x="62.546997"
   y="194.867"
   style="fill:#ffd652"
   width="83.742996"
   height="241.34"
   id="rect56" />
<path
   style="fill:#4f5aa8"
   d="M 120.054,3.04 C 115.219,1.087 109.944,0 104.418,0 81.331,0 62.547,18.784 62.547,41.872 V 194.871 H 93.818 V 41.872 c 0,-17.562 10.873,-32.623 26.236,-38.832 z"
   id="path58" />
<rect
   x="62.546997"
   y="194.867"
   style="fill:#fb9d46"
   width="31.271"
   height="241.34"
   id="rect60" />
<circle
   style="fill:#89dcfc"
   cx="111.839"
   cy="36.570999"
   r="11.66"
   id="circle62" />
</svg>
