<?xml version="1.0" ?><!-- Uploaded to: SVG Repo, www.svgrepo.com, Generator: SVG Repo Mixer Tools -->
<svg width="800px" height="800px" viewBox="0 0 64 64" data-name="Layer 1" id="Layer_1" xmlns="http://www.w3.org/2000/svg"><defs><style>.cls-1{fill:#838bc5;}.cls-2{fill:#65c8d0;}</style></defs><path class="cls-1" d="M32.92,18a6,6,0,0,1,1.47-1l1.45-2.45a4.65,4.65,0,0,0,.66-2.38,4.71,4.71,0,0,0-8.72-2.48l-2.35,3.81A9.36,9.36,0,0,1,32.92,18Z"/><path class="cls-2" d="M29.75,22.73l2.17-3.52c.1-.15.2-.29.31-.43a8.35,8.35,0,0,0-7.39-4.28h0l-2.49,4A9.49,9.49,0,0,1,29.75,22.73Z"/><path class="cls-1" d="M26.7,27.66l2.47-4a8.52,8.52,0,0,0-7.29-4.17h-.14l-2.48,4A9.52,9.52,0,0,1,26.7,27.66Z"/><path class="cls-2" d="M23.66,32.59l2.47-4a8.5,8.5,0,0,0-7.25-4.1h-.23l-2.48,4A9.5,9.5,0,0,1,23.66,32.59Z"/><path class="cls-1" d="M20.49,37.73l2.59-4.2a8.49,8.49,0,0,0-7.2-4h-.32l-3.48,5.63a6.47,6.47,0,0,1,8.41,2.59Z"/><path class="cls-1" d="M32.78,19.73l-2.34,3.79a9.53,9.53,0,0,1,7.94,5.25l2.46-4.18a4.65,4.65,0,0,0,.66-2.38,4.71,4.71,0,0,0-8.72-2.48Z"/><path class="cls-1" d="M34.78,34.89a8.55,8.55,0,0,0-7.9-5.39h-.14l-2.48,4a9.49,9.49,0,0,1,8.17,5.36Z"/><path class="cls-2" d="M15.08,46.49l4.79-7.76a5.45,5.45,0,0,0-5-3.23,5.5,5.5,0,0,0,0,11Z"/><path class="cls-2" d="M37.75,29.84a8.49,8.49,0,0,0-7.87-5.34h-.05l-2.48,4a9.54,9.54,0,0,1,8,5.3Z"/><path class="cls-2" d="M23.88,34.5h-.23l-2.47,4a9.52,9.52,0,0,1,8.28,5.42l2.34-4A8.52,8.52,0,0,0,23.88,34.5Z"/><path class="cls-2" d="M33.76,38.59,28.58,47.4a5.45,5.45,0,0,0,4.3,2.1,5.49,5.49,0,0,0,.88-10.91Z"/><path class="cls-1" d="M42.45,22.91a5.51,5.51,0,0,1-.75,2.18l-1.25,2.12a9.58,9.58,0,0,1,5,4.67l2.35-4A8.52,8.52,0,0,0,42.45,22.91Z"/><path class="cls-2" d="M39.94,28.08,37.5,32.23a9.64,9.64,0,0,1,5,4.7l2.34-4A8.56,8.56,0,0,0,39.94,28.08Z"/><path class="cls-2" d="M42.88,17.5h-.05l-1.12,1.82a5.72,5.72,0,0,1,.77,2.56,9.47,9.47,0,0,1,5.92,4.95l2.35-4A8.49,8.49,0,0,0,42.88,17.5Z"/><path class="cls-1" d="M49.78,10.5a4.73,4.73,0,0,0-4,2.23l-2.34,3.79a9.52,9.52,0,0,1,7.94,5.25l2.46-4.18a4.65,4.65,0,0,0,.66-2.38A4.72,4.72,0,0,0,49.78,10.5Z"/><path class="cls-1" d="M20.88,39.5h-.32l-3.48,5.63a6.43,6.43,0,0,1,2.8-.64,6.5,6.5,0,0,1,6.31,5L28.82,45A8.49,8.49,0,0,0,20.88,39.5Z"/><circle class="cls-2" cx="19.88" cy="51" r="5.5"/><path class="cls-1" d="M37,33.1l-2.68,4.56a6.47,6.47,0,0,1,4.88,4.82L41.82,38A8.55,8.55,0,0,0,37,33.1Z"/></svg>