<?xml version="1.0" encoding="iso-8859-1"?>
<!-- Uploaded to: SVG Repo, www.svgrepo.com, Generator: SVG Repo Mixer Tools -->
<svg height="800px" width="800px" version="1.1" id="Layer_1" xmlns="http://www.w3.org/2000/svg" xmlns:xlink="http://www.w3.org/1999/xlink" 
	 viewBox="0 0 506.4 506.4" xml:space="preserve">
<path style="fill:#13A289;" d="M502.4,253.2c0,137.6-111.6,249.2-249.2,249.2S4,390.8,4,253.2S115.6,4,253.2,4
	S502.4,115.6,502.4,253.2z"/>
<path style="fill:#54B265;" d="M427.6,104.4c34.4,40,54.8,92,54.8,148.8c0,126.8-102.8,229.6-229.6,229.6S23.6,380,23.6,253.2
	S126.4,24,253.2,24C310,24,362,44.4,402,78.8C402,78.4,417.6,92.8,427.6,104.4z"/>
<path style="fill:#F4EFEF;" d="M212.8,370c-17.2,12-31.6,4.4-31.6-16.8v-200c0-21.2,14.4-28.8,31.6-16.8l138,95.2
	c17.2,12,17.2,31.2,0,43.2L212.8,370z"/>
<path d="M195.2,379.6c-3.6,0-6.8-0.8-9.6-2.4c-7.6-4-12-12.8-12-24v-200c0-11.2,4.4-20,12-24c8-4,18-2.8,28,4l138.8,95.2
	c9.2,6.4,14.4,15.2,14.4,24.4c0,9.6-5.6,18.8-14.8,25.2l-138.8,95.2C207.2,377.6,200.8,379.6,195.2,379.6z M195.2,134.8
	c-2.4,0-4.4,0.4-6,1.6c-4.8,2.8-8,8.8-8,16.8v200c0,8,2.8,14.4,8,16.8c5.2,2.8,12.4,1.6,19.6-3.6l0,0l138.4-95.2
	c7.6-5.2,11.6-11.6,11.6-18.8c0-6.8-4-13.2-10.8-18l-139.2-95.2C204,136.4,199.2,134.8,195.2,134.8z"/>
<path d="M253.2,506.4C113.6,506.4,0,392.8,0,253.2S113.6,0,253.2,0s253.2,113.6,253.2,253.2S392.8,506.4,253.2,506.4z M253.2,8
	C118,8,8,118,8,253.2s110,245.2,245.2,245.2s245.2-110,245.2-245.2S388.4,8,253.2,8z"/>
</svg>