<?xml version="1.0" encoding="iso-8859-1"?>
<!-- Uploaded to: SVG Repo, www.svgrepo.com, Generator: SVG Repo Mixer Tools -->
<svg height="800px" width="800px" version="1.1" id="Layer_1" xmlns="http://www.w3.org/2000/svg" xmlns:xlink="http://www.w3.org/1999/xlink" 
	 viewBox="0 0 408.759 408.759" xml:space="preserve">
<g>
	<path style="fill:#FFBE00;" d="M204.383,408.759c-58.121,0-113.674-24.867-152.417-68.227
		C18.46,303.057,0.005,254.703,0.005,204.381C0.005,91.685,91.688,0,204.383,0c50.319,0,98.674,18.455,136.164,51.964
		c43.346,38.763,68.207,94.314,68.207,152.417C408.755,317.075,317.074,408.759,204.383,408.759"/>
	<path style="fill:#F4502A;" d="M377.752,204.377c0,5.64-0.27,11.209-0.8,16.71c-1.16,12.14-3.57,23.919-7.109,35.189
		c-20.39,65.09-78.11,113.66-148.081,120.61c-0.229,0.02-0.451,0.05-0.68,0.061c-5.501,0.539-11.059,0.809-16.701,0.809
		c-51.39,0-97.559-22.359-129.299-57.881c-0.26-0.29-0.521-0.589-0.79-0.879c-26.95-30.56-43.29-70.68-43.29-114.62
		c0-95.749,77.619-173.38,173.38-173.38c43.95,0,84.071,16.35,114.631,43.289c0.29,0.271,0.589,0.53,0.879,0.79
		C355.402,106.836,377.752,152.987,377.752,204.377"/>
	<path style="fill:#C29100;" d="M82.654,327.83c0.006,0.006,0.018,0.017,0.024,0.024C82.669,327.845,82.662,327.838,82.654,327.83
		 M74.417,319.132c2.611,2.954,5.322,5.819,8.125,8.588c-2.566-2.536-5.055-5.153-7.459-7.844
		C74.863,319.631,74.642,319.379,74.417,319.132 M102.959,63.742c-31.617,22.842-55.228,56.087-65.81,94.713
		C47.731,119.828,71.342,86.585,102.959,63.742"/>
	<path style="fill:#BA3D20;" d="M204.383,30.999c-37.874,0-72.906,12.139-101.424,32.742c-31.617,22.844-55.228,56.086-65.81,94.713
		c-4.006,14.624-6.145,30.019-6.145,45.915c0,44.012,16.392,84.191,43.413,114.762c0.226,0.247,0.446,0.499,0.666,0.744
		c2.404,2.691,4.894,5.308,7.459,7.844c0.039,0.038,0.073,0.072,0.112,0.11c0.008,0.008,0.016,0.016,0.024,0.024
		c3.147,3.101,6.41,6.081,9.785,8.936c-25.53-30.2-40.919-69.239-40.919-111.88c0-95.749,77.619-173.37,173.379-173.37
		c42.631,0,81.68,15.39,111.87,40.921C305.004,54.871,257.483,30.999,204.383,30.999"/>
	<path style="fill:#BA3D20;" d="M296.902,141.037l-20.63,10.612c2.279,4.34-46.89,112-46.89,112c-4.34,2.292-32,4-32,4
		c-4.761-1.481-41.659-16.708-46-19l-10.34,48.259l80.04,80.04c0.229-0.011,0.451-0.041,0.68-0.061
		c69.97-6.951,127.69-55.521,148.081-120.61c3.54-11.27,5.95-23.05,7.109-35.189L296.902,141.037"/>
	<path style="fill:#BA3D20;" d="M94.168,225.017l-0.004,0.001l28.862,28.862l26.356,6.769c-2.29-4.34-10.519-31.241-12-36
		L94.168,225.017"/>
	<path style="fill:#BA3D20;" d="M204.382,165.736c-21.34,0-38.639,17.301-38.639,38.641s17.299,38.641,38.639,38.641
		c21.341,0,38.641-17.301,38.641-38.641S225.723,165.736,204.382,165.736"/>
	<path style="fill:#BA3D20;" d="M225.018,94.165l0.003,0.085l-5.639,44.399c4.759,1.479,25.66,16.721,30,19l21.059-18.059
		L225.018,94.165"/>
	<path style="fill:#1CA4BA;" d="M314.592,225.017v-41.279l-32.65-3.47c-1.479-4.761-3.39-9.331-5.669-13.671l20.63-25.561
		l-29.18-29.178l-25.561,20.629c-4.34-2.279-8.91-4.19-13.669-5.669l-3.481-32.65h-41.27l-3.479,32.65
		c-4.761,1.479-9.32,3.39-13.661,5.669l-25.559-20.629l-29.19,29.178l20.64,25.561c-2.29,4.34-4.19,8.91-5.671,13.671l-32.659,3.47
		v41.279l32.659,3.481c1.481,4.759,3.381,9.32,5.671,13.659l-20.64,25.559l29.19,29.191l25.559-20.642
		c4.341,2.292,8.901,4.19,13.661,5.671l3.479,32.659h41.27l3.481-32.659c4.759-1.481,9.329-3.379,13.669-5.671l25.561,20.642
		l29.18-29.191l-20.63-25.559c2.279-4.34,4.19-8.901,5.669-13.659L314.592,225.017 M204.382,243.018
		c-21.34,0-38.639-17.301-38.639-38.641s17.299-38.641,38.639-38.641c21.341,0,38.641,17.301,38.641,38.641
		S225.723,243.018,204.382,243.018"/>
	<path style="fill:#317E8B;" d="M165.743,204.377L165.743,204.377c0-21.34,17.299-38.641,38.639-38.641
		c21.341,0,38.641,17.301,38.641,38.641l0,0l0,0c0,21.34-17.299,38.641-38.641,38.641
		C183.042,243.018,165.743,225.717,165.743,204.377L165.743,204.377 M204.382,146.437c-32,0-57.949,25.94-57.949,57.94
		s25.949,57.949,57.949,57.949s57.94-25.949,57.94-57.949S236.382,146.437,204.382,146.437"/>
</g>
</svg>