<?xml version="1.0" encoding="UTF-8" standalone="no"?>
<svg
   viewBox="0 0 50 50"
   version="1.1"
   id="svg4"
   sodipodi:docname="show_stiffness.svg"
   inkscape:version="1.2-dev (8a200a5f, 2021-09-02)"
   xmlns:inkscape="http://www.inkscape.org/namespaces/inkscape"
   xmlns:sodipodi="http://sodipodi.sourceforge.net/DTD/sodipodi-0.dtd"
   xmlns:xlink="http://www.w3.org/1999/xlink"
   xmlns="http://www.w3.org/2000/svg"
   xmlns:svg="http://www.w3.org/2000/svg">
  <defs
     id="defs8">
    <linearGradient
       inkscape:collect="always"
       id="linearGradient943">
      <stop
         style="stop-color:#d4085d;stop-opacity:0.88;"
         offset="0"
         id="stop939" />
      <stop
         style="stop-color:#ff6f0f;stop-opacity:1;"
         offset="1"
         id="stop941" />
    </linearGradient>
    <linearGradient
       inkscape:collect="always"
       id="linearGradient998">
      <stop
         style="stop-color:#d3085c;stop-opacity:0.88;"
         offset="0.7245509"
         id="stop994" />
      <stop
         style="stop-color:#ff6f0f;stop-opacity:1;"
         offset="1"
         id="stop996" />
    </linearGradient>
    <radialGradient
       inkscape:collect="always"
       xlink:href="#linearGradient998"
       id="radialGradient1000"
       cx="25"
       cy="25"
       fx="25"
       fy="25"
       r="20.5"
       gradientTransform="matrix(0.63011568,0,0,0.79326266,-1.1953009,13.50512)"
       gradientUnits="userSpaceOnUse" />
    <linearGradient
       inkscape:collect="always"
       xlink:href="#linearGradient1306"
       id="linearGradient1308"
       x1="351.34094"
       y1="512.00873"
       x2="672.63861"
       y2="512.00873"
       gradientUnits="userSpaceOnUse"
       gradientTransform="matrix(0.0464711,0,0,0.05118973,8.2862756,-13.465052)" />
    <linearGradient
       inkscape:collect="always"
       id="linearGradient1306">
      <stop
         style="stop-color:#d4085d;stop-opacity:0.88;"
         offset="0"
         id="stop1302" />
      <stop
         style="stop-color:#ff6f0f;stop-opacity:1;"
         offset="1"
         id="stop1304" />
    </linearGradient>
    <linearGradient
       inkscape:collect="always"
       xlink:href="#linearGradient943"
       id="linearGradient937"
       x1="14.830723"
       y1="12.744086"
       x2="49.32822"
       y2="12.744086"
       gradientUnits="userSpaceOnUse" />
  </defs>
  <sodipodi:namedview
     id="namedview6"
     pagecolor="#ffffff"
     bordercolor="#666666"
     borderopacity="1.0"
     inkscape:pageshadow="2"
     inkscape:pageopacity="0.0"
     inkscape:pagecheckerboard="false"
     showgrid="false"
     inkscape:zoom="10.832876"
     inkscape:cx="10.523521"
     inkscape:cy="22.754807"
     inkscape:window-width="1920"
     inkscape:window-height="1001"
     inkscape:window-x="-9"
     inkscape:window-y="-9"
     inkscape:window-maximized="1"
     inkscape:current-layer="svg4" />
  <path
     d="m 1.9552775,43.540223 c 0,0.909044 0.4352237,1.738991 1.1223936,2.431312 0.6871698,0.69232 1.6403534,1.289532 2.7764471,1.773662 2.272188,0.968257 5.3257498,1.534515 8.7034738,1.534515 3.377723,0 6.431285,-0.566258 8.703473,-1.534515 1.136093,-0.48413 2.089277,-1.081342 2.776447,-1.773662 0.687169,-0.692321 1.122393,-1.522268 1.122393,-2.431312 0,-0.909043 -0.435224,-1.73899 -1.122393,-2.431311 -0.68717,-0.692321 -1.640354,-1.289532 -2.776447,-1.773661 -2.272188,-0.968258 -5.32575,-1.534517 -8.703473,-1.534517 -3.377724,0 -6.4312858,0.566259 -8.7034738,1.534517 -1.1360937,0.484129 -2.0892773,1.08134 -2.7764471,1.773661 -0.6871699,0.692321 -1.1223936,1.522268 -1.1223936,2.431311 z m 0,-5.101767 c 0,0.733379 0.29962,1.432958 0.8270268,2.072593 0.2860725,-0.266567 0.6094794,-0.521337 0.9648646,-0.757294 -0.337742,-0.410054 -0.5316601,-0.849763 -0.5316601,-1.315299 0,-2.6306 5.9772778,-4.464047 11.3420832,-4.464047 5.364805,0 11.342082,1.833447 11.342082,4.464047 0,0.465536 -0.194548,0.905245 -0.53166,1.315299 0.354754,0.235957 0.678162,0.490727 0.964865,0.757294 0.526776,-0.639635 0.827026,-1.339214 0.827026,-2.072593 0,-3.218578 -5.535566,-5.739489 -12.602313,-5.739489 -7.0667482,0 -12.6023145,2.520911 -12.6023145,5.739489 z m 0,-5.101768 c 0,0.734654 0.2977296,1.432321 0.8270268,2.072592 0.2873328,-0.26848 0.6082191,-0.520061 0.9648646,-0.757292 -0.337742,-0.410055 -0.5316601,-0.849764 -0.5316601,-1.3153 0,-2.630599 5.9772778,-4.464047 11.3420832,-4.464047 5.364805,0 11.342082,1.833448 11.342082,4.464047 0,0.465536 -0.193918,0.905245 -0.53166,1.3153 0.356646,0.237231 0.677532,0.488812 0.964865,0.757292 0.529296,-0.640271 0.827026,-1.337938 0.827026,-2.072592 0,-3.218578 -5.535566,-5.739489 -12.602313,-5.739489 -7.0667482,0 -12.6023145,2.520911 -12.6023145,5.739489 z m 0,-5.101768 c 0,0.734654 0.2977296,1.432321 0.8270268,2.072593 0.2873328,-0.26848 0.6082191,-0.520062 0.9648646,-0.757294 -0.337742,-0.410055 -0.5316601,-0.849763 -0.5316601,-1.315299 0,-2.630599 5.9772778,-4.464047 11.3420832,-4.464047 5.364805,0 11.342082,1.833448 11.342082,4.464047 0,0.465536 -0.193918,0.905244 -0.53166,1.315299 0.356646,0.237232 0.677532,0.488814 0.964865,0.757294 0.529296,-0.640272 0.827026,-1.337939 0.827026,-2.072593 0,-3.218578 -5.535566,-5.73949 -12.602313,-5.73949 -7.0667482,0 -12.6023145,2.520912 -12.6023145,5.73949 z m 0,-5.101769 c 0,0.734656 0.2977296,1.432322 0.8270268,2.072594 0.2873328,-0.26848 0.6082191,-0.520061 0.9648646,-0.757294 -0.337742,-0.410054 -0.5316601,-0.849763 -0.5316601,-1.3153 0,-2.630599 5.9772778,-4.464047 11.3420832,-4.464047 0.347824,0 0.630115,-0.285699 0.630115,-0.637721 0,-0.352021 -0.282291,-0.63772 -0.630115,-0.63772 -7.0667482,0 -12.6023145,2.52091 -12.6023145,5.739488 z m 1.2602313,20.407072 c 0,-0.499771 0.2237798,-1.006102 0.7482624,-1.534516 0.5244826,-0.528413 1.3324863,-1.055548 2.3629336,-1.494658 2.0608963,-0.878219 4.9965482,-1.434872 8.2308872,-1.434872 3.234338,0 6.16999,0.556653 8.230886,1.434872 1.030447,0.43911 1.838451,0.966245 2.362933,1.494658 0.524483,0.528414 0.748263,1.034745 0.748263,1.534516 0,0.499771 -0.22378,1.006103 -0.748263,1.534516 -0.524482,0.528415 -1.332486,1.055549 -2.362933,1.49466 -2.060896,0.878218 -4.996548,1.434871 -8.230886,1.434871 -3.234339,0 -6.1699909,-0.556653 -8.2308872,-1.434871 C 5.2962575,46.130288 4.4882538,45.603154 3.9637712,45.074739 3.4392886,44.546326 3.2155088,44.039994 3.2155088,43.540223 Z m 1.5949804,-1.414944 c 2.2936211,1.266514 5.7805238,2.052665 9.7471028,2.052665 3.966578,0 7.453481,-0.786151 9.747102,-2.052665 -0.341523,-0.265928 -0.77079,-0.529148 -1.279923,-0.777222 -2.23313,0.97954 -5.443254,1.554445 -8.467179,1.554445 -3.023926,0 -6.2340501,-0.574905 -8.4671805,-1.554445 -0.5091333,0.248712 -0.9383998,0.511931 -1.2799223,0.777222 z m 0,-5.101767 c 0.7643303,0.421534 1.6564164,0.790614 2.6583003,1.096083 C 8.4152241,37.844737 9.4386891,37.618187 10.48153,37.461945 8.8495309,37.194102 7.321658,36.785802 6.0904115,36.246289 5.580018,36.495001 5.1520117,36.756944 4.8104892,37.023512 Z m 0,-5.101768 c 0.7643303,0.421533 1.6564164,0.790615 2.6583003,1.096083 C 8.4152241,32.742969 9.4386891,32.516418 10.48153,32.360178 8.8495309,32.092334 7.321658,31.684033 6.0904115,31.144522 5.580018,31.393233 5.1520117,31.655177 4.8104892,31.921744 Z m 0,-5.101767 C 5.5748195,27.24151 6.4669056,27.610591 7.4687895,27.916059 8.4152241,27.641201 9.4386891,27.414651 10.48153,27.25841 8.8495309,26.990567 7.321658,26.582266 6.0904115,26.042754 5.580018,26.291465 5.1520117,26.553409 4.8104892,26.819977 Z M 18.633653,37.461945 c 1.042841,0.156242 2.065676,0.382792 3.01274,0.65765 1.002514,-0.305469 1.89397,-0.674549 2.658301,-1.096083 -0.342153,-0.265929 -0.770159,-0.528511 -1.279923,-0.777223 -1.231246,0.539513 -2.758489,0.948451 -4.391118,1.215656 z m 0,-5.101767 c 1.042841,0.15624 2.065676,0.382791 3.01274,0.657649 1.002514,-0.305468 1.89397,-0.67455 2.658301,-1.096083 -0.342153,-0.265929 -0.770159,-0.528511 -1.279923,-0.777222 -1.231246,0.539511 -2.758489,0.948451 -4.391118,1.215656 z"
     id="path2"
     style="fill:#ff6600;stroke:url(#radialGradient1000);stroke-width:0.633967;stroke-linecap:square;stroke-miterlimit:4;stroke-dasharray:none;stroke-opacity:1" />
  <path
     d="m 32.079519,0.65351567 c -9.526197,0 -17.248796,8.63604173 -17.248796,12.09109533 0,3.454023 7.722656,12.090045 17.248796,12.090045 9.526147,0 17.248701,-8.636022 17.248701,-12.090045 0,-3.4550536 -7.722554,-12.09109533 -17.248701,-12.09109533 z m 0,22.45413333 c -8.659426,0 -15.680034,-7.402151 -15.680034,-10.363038 0,-2.9619285 7.020662,-10.3640878 15.680034,-10.3640878 8.660231,0 15.679941,7.4021593 15.679941,10.3640878 0,2.960834 -7.01971,10.363038 -15.679941,10.363038 z"
     id="path2-9"
     style="overflow:hidden;fill:url(#linearGradient937);fill-opacity:1.0;stroke:none;stroke-width:0.546264;stroke-miterlimit:4;stroke-dasharray:none" />
  <path
     d="m 32.079519,4.5214575 c -4.124083,0 -7.466052,3.681365 -7.466052,8.2231535 0,4.541802 3.34201,8.223005 7.466052,8.223005 4.123131,0 7.465012,-3.681259 7.465012,-8.223005 0,-4.5417885 -3.341881,-8.2231535 -7.465012,-8.2231535 z m 1.799927,9.7076365 c -1.919765,0 -3.475121,-1.712759 -3.475121,-3.827455 0,-2.1136471 1.555356,-3.8284455 3.475121,-3.8284455 1.919282,0 3.474635,1.7148515 3.474635,3.8284455 0,2.114696 -1.555353,3.827455 -3.474635,3.827455 z"
     id="path4"
     style="overflow:hidden;fill:url(#linearGradient1308);fill-opacity:1;stroke-width:0.0487732" />
</svg>
