<?xml version="1.0" encoding="UTF-8" standalone="no"?>
<svg
   version="1.1"
   id="Layer_1"
   x="0px"
   y="0px"
   viewBox="0 0 122.88 122.88"
   style="enable-background:new 0 0 122.88 122.88"
   xml:space="preserve"
   sodipodi:docname="show_weakness.svg"
   inkscape:version="1.2-dev (8a200a5f, 2021-09-02)"
   xmlns:inkscape="http://www.inkscape.org/namespaces/inkscape"
   xmlns:sodipodi="http://sodipodi.sourceforge.net/DTD/sodipodi-0.dtd"
   xmlns:xlink="http://www.w3.org/1999/xlink"
   xmlns="http://www.w3.org/2000/svg"
   xmlns:svg="http://www.w3.org/2000/svg"><defs
     id="defs11"><linearGradient
       inkscape:collect="always"
       id="linearGradient856"><stop
         style="stop-color:#d4075c;stop-opacity:0.88;"
         offset="0.002994"
         id="stop852" /><stop
         style="stop-color:#ff6f0f;stop-opacity:1;"
         offset="0.99401194"
         id="stop854" /></linearGradient><radialGradient
       inkscape:collect="always"
       xlink:href="#linearGradient856"
       id="radialGradient858"
       cx="61.435"
       cy="61.435"
       fx="61.435"
       fy="61.435"
       r="61.4375"
       gradientUnits="userSpaceOnUse"
       gradientTransform="matrix(0.4566794,0.39522947,-0.45052991,0.39809846,49.022189,37.816157)" /><linearGradient
       inkscape:collect="always"
       xlink:href="#linearGradient1306"
       id="linearGradient1308"
       x1="351.34094"
       y1="512.00873"
       x2="672.63861"
       y2="512.00873"
       gradientUnits="userSpaceOnUse"
       gradientTransform="matrix(0.09973609,0,0,0.11007854,33.33683,-28.530149)" /><linearGradient
       inkscape:collect="always"
       id="linearGradient1306"><stop
         style="stop-color:#d4085d;stop-opacity:0.88;"
         offset="0"
         id="stop1302" /><stop
         style="stop-color:#ff6f0f;stop-opacity:1;"
         offset="1"
         id="stop1304" /></linearGradient><linearGradient
       inkscape:collect="always"
       xlink:href="#linearGradient1306"
       id="linearGradient938"
       x1="47.382504"
       y1="27.830061"
       x2="121.42092"
       y2="27.830061"
       gradientUnits="userSpaceOnUse" /></defs><sodipodi:namedview
     id="namedview9"
     pagecolor="#ffffff"
     bordercolor="#666666"
     borderopacity="1.0"
     inkscape:pageshadow="2"
     inkscape:pageopacity="0.0"
     inkscape:pagecheckerboard="0"
     showgrid="false"
     inkscape:zoom="4.70714"
     inkscape:cx="64.58274"
     inkscape:cy="40.682878"
     inkscape:window-width="1920"
     inkscape:window-height="1001"
     inkscape:window-x="-9"
     inkscape:window-y="-9"
     inkscape:window-maximized="1"
     inkscape:current-layer="Layer_1" /><style
     type="text/css"
     id="style2">.st0{fill-rule:evenodd;clip-rule:evenodd;}</style><path
     class="st0"
     d="m 96.504712,83.795165 0.04046,5.220103 c 0.0508,6.560816 -6.049339,11.951072 -13.551951,11.974802 l -15.812658,0.05 c -5.919472,0.0227 -11.012217,-3.313089 -12.926054,-7.940185 l 27.996451,-0.08854 c 2.766988,-0.0088 5.01063,-1.991283 4.987369,-4.40695 l -0.03678,-4.736161 C 87.182886,81.44858 84.913098,79.48429 82.14611,79.49304 l -27.819549,0.08401 c 1.966112,-4.42913 6.881423,-7.598229 12.624058,-7.616389 l 15.82172,-0.05003 c 7.502619,-0.02373 13.681484,5.323724 13.732333,11.884541 z m -63.602035,32.109505 3.508311,1.99608 7.079528,-9.54648 -3.512757,-1.98414 z m 31.76487,-62.854159 3.584473,1.872865 -6.596854,9.783002 -3.602496,-1.856941 z m -16.332887,67.533709 4.17273,-0.0687 -0.283309,-11.38756 -4.177238,0.0727 z m 16.215236,-2.53843 3.596548,-1.83609 -6.581117,-9.8404 -3.605622,1.83608 z M 31.94921,54.93108 l 3.642402,-1.77275 6.404807,9.916421 -3.633145,1.796521 z m 15.447752,-4.991406 4.177729,-0.0092 0.08368,11.380304 -4.173102,0.02113 z M 2.254763,84.093237 2.295227,89.313334 c 0.050857,6.560823 6.2297286,11.908276 13.736916,11.888506 l 15.81266,-0.05 c 5.919573,-0.0148 10.960355,-3.382591 12.802364,-8.021564 l -27.996481,0.08854 c -2.76699,0.0088 -5.041253,-1.959492 -5.055441,-4.375191 l -0.03671,-4.736166 c -0.01875,-2.419654 2.224886,-4.402184 4.991874,-4.410934 l 27.819604,-0.08401 C 42.330763,75.192074 37.371131,72.05817 31.619424,72.076359 L 15.8022,72.122411 C 8.2995789,72.14614 2.2039044,77.532418 2.254763,84.093237 Z"
     id="path4"
     style="fill:#d4075d;fill-opacity:0.88;stroke:url(#radialGradient858);stroke-width:2.48824;stroke-miterlimit:4;stroke-dasharray:none" /><path
     d="m 84.401817,1.8304669 c -20.445085,0 -37.019313,18.5709391 -37.019313,26.0007291 0,7.427521 16.574321,25.99846 37.019313,25.99846 20.444983,0 37.019103,-18.570939 37.019103,-25.99846 0,-7.42979 -16.57412,-26.0007291 -37.019103,-26.0007291 z m 0,48.2854281 c -18.584825,0 -33.652448,-15.917611 -33.652448,-22.284699 0,-6.369357 15.067716,-22.2869683 33.652448,-22.2869683 18.586533,0 33.652233,15.9176113 33.652233,22.2869683 0,6.366969 -15.0657,22.284699 -33.652233,22.284699 z"
     id="path2"
     style="overflow:hidden;fill:url(#linearGradient938);fill-opacity:1.0;stroke:none;stroke-width:1.17353;stroke-miterlimit:4;stroke-dasharray:none" /><path
     d="m 84.401817,10.148103 c -8.851114,0 -16.023621,7.916395 -16.023621,17.683093 0,9.766682 7.172614,17.682737 16.023621,17.682737 8.849054,0 16.021363,-7.916173 16.021363,-17.682737 0,-9.766698 -7.172309,-17.683093 -16.021363,-17.683093 z M 88.2648,31.023415 c -4.120177,0 -7.458281,-3.683123 -7.458281,-8.230561 0,-4.545189 3.338104,-8.232713 7.458281,-8.232713 4.119172,0 7.457257,3.687625 7.457257,8.232713 0,4.547438 -3.338085,8.230561 -7.457257,8.230561 z"
     id="path4-0"
     style="overflow:hidden;fill:url(#linearGradient1308);fill-opacity:1;stroke-width:0.10478" /></svg>
