<?xml version="1.0" encoding="UTF-8" standalone="no"?>
<!-- Created with Inkscape (http://www.inkscape.org/) -->

<svg
   width="128"
   height="128"
   viewBox="0 0 128 128"
   version="1.1"
   id="SVGRoot"
   inkscape:export-filename="/home/ebi/python/civiltools/civilTools/images/upa.png"
   inkscape:export-xdpi="96"
   inkscape:export-ydpi="96"
   inkscape:version="1.2-dev (dc52390971, 2021-05-29)"
   sodipodi:docname="spec.svg"
   xmlns:inkscape="http://www.inkscape.org/namespaces/inkscape"
   xmlns:sodipodi="http://sodipodi.sourceforge.net/DTD/sodipodi-0.dtd"
   xmlns="http://www.w3.org/2000/svg"
   xmlns:svg="http://www.w3.org/2000/svg"
   xmlns:rdf="http://www.w3.org/1999/02/22-rdf-syntax-ns#"
   xmlns:cc="http://creativecommons.org/ns#"
   xmlns:dc="http://purl.org/dc/elements/1.1/">
  <sodipodi:namedview
     id="base"
     pagecolor="#ffffff"
     bordercolor="#666666"
     borderopacity="1.0"
     inkscape:pageopacity="0.0"
     inkscape:pageshadow="2"
     inkscape:zoom="5.2809667"
     inkscape:cx="52.168479"
     inkscape:cy="62.2992"
     inkscape:document-units="px"
     inkscape:current-layer="layer1"
     showgrid="false"
     inkscape:window-width="1920"
     inkscape:window-height="1015"
     inkscape:window-x="0"
     inkscape:window-y="1080"
     inkscape:window-maximized="1"
     inkscape:grid-bbox="true"
     inkscape:snap-text-baseline="true"
     inkscape:pagecheckerboard="false" />
  <defs
     id="defs2352">
    <inkscape:path-effect
       effect="spiro"
       id="path-effect52"
       is_visible="true"
       lpeversion="1" />
    <filter
       style="color-interpolation-filters:sRGB;"
       inkscape:label="Blur"
       id="filter22452"
       x="-0.11545255"
       y="-0.24691226"
       width="1.2309051"
       height="1.4938245">
      <feGaussianBlur
         stdDeviation="2 2"
         result="fbSourceGraphic"
         id="feGaussianBlur22450" />
      <feColorMatrix
         result="fbSourceGraphicAlpha"
         in="fbSourceGraphic"
         values="0 0 0 -1 0 0 0 0 -1 0 0 0 0 -1 0 0 0 0 1 0"
         id="feColorMatrix24196" />
      <feGaussianBlur
         id="feGaussianBlur24198"
         stdDeviation="1 1"
         result="blur"
         in="fbSourceGraphic" />
    </filter>
    <filter
       style="color-interpolation-filters:sRGB"
       inkscape:label="Blur"
       id="filter22452-3"
       x="-0.11545255"
       y="-0.24691226"
       width="1.2309051"
       height="1.4938245">
      <feGaussianBlur
         stdDeviation="2 2"
         result="fbSourceGraphic"
         id="feGaussianBlur22450-5" />
      <feColorMatrix
         result="fbSourceGraphicAlpha"
         in="fbSourceGraphic"
         values="0 0 0 -1 0 0 0 0 -1 0 0 0 0 -1 0 0 0 0 1 0"
         id="feColorMatrix24196-6" />
      <feGaussianBlur
         id="feGaussianBlur24198-2"
         stdDeviation="1 1"
         result="blur"
         in="fbSourceGraphic" />
    </filter>
    <filter
       style="color-interpolation-filters:sRGB;"
       inkscape:label="Brilliance"
       id="filter32892"
       x="-0.0029758544"
       y="-0.0073571075"
       width="1.0033685"
       height="1.0146332">
      <feColorMatrix
         values="2 -0.5 -0.5 0 0 -0.5 2 -0.5 0 0 -0.5 -0.5 2 0 0 0 0 0 1 0 "
         id="feColorMatrix32890"
         result="fbSourceGraphic" />
      <feColorMatrix
         result="fbSourceGraphicAlpha"
         in="fbSourceGraphic"
         values="0 0 0 -1 0 0 0 0 -1 0 0 0 0 -1 0 0 0 0 1 0"
         id="feColorMatrix32912" />
      <feColorMatrix
         id="feColorMatrix32914"
         values="2 -2.27597 -2.27597 0 0 -2.27597 2 -2.27597 0 0 -2.27597 -2.27597 2 0 0 0 0 0 1 0 "
         in="fbSourceGraphic" />
    </filter>
  </defs>
  <metadata
     id="metadata2355">
    <rdf:RDF>
      <cc:Work
         rdf:about="">
        <dc:format>image/svg+xml</dc:format>
        <dc:type
           rdf:resource="http://purl.org/dc/dcmitype/StillImage" />
      </cc:Work>
    </rdf:RDF>
  </metadata>
  <g
     id="layer1"
     inkscape:groupmode="layer"
     inkscape:label="Layer 1">
    <path
       style="fill:none;stroke:#000000;stroke-width:0.69785px;stroke-linecap:butt;stroke-linejoin:miter;stroke-opacity:1;filter:url(#filter32892)"
       d="M 14.172264,93.92571 29.562819,58.718608 53.51322,58.854346 c 13.016305,25.350537 38.950529,43.625114 67.20239,47.354224 0.29715,0.0392 0.5945,0.0769 0.89203,0.11314"
       id="path50"
       inkscape:path-effect="#path-effect52"
       inkscape:original-d="M 14.172264,93.92571 29.562819,58.718608 53.51322,58.854346 c 0,0 44.802644,31.570773 67.20239,47.354224 22.39974,15.78345 0.59573,0.0767 0.89203,0.11314"
       transform="matrix(1.0890003,0,0,1.885594,-8.1368061,-94.580894)"
       sodipodi:nodetypes="cccsc" />
    <path
       style="fill:#0000ff"
       id="path33742"
       d="m 13.575326,80.335425 c 0.266669,-1.818268 0.815845,-3.580977 1.310555,-5.346643 0.103831,-0.347326 0.214464,-0.69269 0.311492,-1.041977 0.103704,-0.373322 0.184285,-0.752876 0.290596,-1.125463 0.466373,-1.634494 1.015885,-3.250533 1.545704,-4.865271 0.595634,-2.091683 1.154542,-4.192801 1.741398,-6.287139 0.581284,-2.266689 1.323421,-4.484678 2.023791,-6.715789 0.476198,-1.76713 1.138653,-3.474603 1.700233,-5.214341 0.278459,-0.862649 0.538108,-1.731262 0.8109,-2.595719 0.755063,-2.491726 1.459004,-4.99849 2.185865,-7.498825 0.76423,-2.520619 1.388762,-5.079737 2.069546,-7.623796 0.708227,-2.557455 1.436584,-5.109308 2.204189,-7.649654 0.588627,-1.975183 1.006982,-3.994103 1.349812,-6.024582 0.205031,-1.292508 0.603974,-2.542991 0.904343,-3.81479 0.01814,-0.122699 0.03172,-0.246159 0.05442,-0.368096 0.08087,-0.434338 0.0617,-0.169939 0.132159,-0.599631 0.0506,-0.30855 0.05932,-0.623805 0.08121,-0.935181 0.0136,0.04942 0.04281,-0.422058 0.169605,-0.372059 0.144993,0.05717 0.479746,0.233073 0.346508,0.313939 -4.128505,2.50572 -8.422836,4.727709 -12.612114,7.130443 -0.09769,0.05603 0.214547,-0.08141 0.327122,-0.08446 0.170283,-0.0046 0.338184,0.04125 0.507276,0.06187 0.191869,0.03209 0.385175,0.05654 0.575606,0.09628 0.129249,0.02698 1.081232,0.273535 1.202853,0.301933 0.628386,0.146726 1.264829,0.25139 1.899891,0.363882 1.362976,0.221238 2.746044,0.262153 4.123351,0.313341 1.598017,0.02238 3.192872,0.143503 4.783595,0.291209 1.160127,0.179298 2.319627,0.344214 3.490492,0.434435 0.873956,0.02248 1.745721,0.109227 2.619898,0.118426 0.630559,0.0034 1.262248,-0.01456 1.89111,0.03796 0.385067,0.01736 0.75773,-0.09472 1.139877,-0.117026 0.87335,-0.05097 -0.272883,0.04818 0.564341,-0.02953 0.07052,-0.02371 0.141049,-0.04743 0.211573,-0.07114 0.03377,-0.04106 0.0517,-0.10405 0.101302,-0.123196 0.317302,-0.122488 0.877707,1.432822 0.953198,1.623018 0.628073,1.743226 1.232064,3.49352 1.88369,5.228417 0.719367,1.93215 1.575009,3.807633 2.403564,5.694038 0.961358,2.12593 1.956973,4.23601 2.882298,6.378039 1.174742,2.576504 2.396317,5.129755 3.607724,7.688966 1.280816,2.519556 2.488799,5.077403 3.82241,7.5696 1.230842,2.454526 2.724641,4.730102 4.196294,7.041079 1.239195,2.062796 2.65121,4.013563 4.004429,6.001415 1.256735,1.762191 2.590076,3.468022 3.94755,5.153213 1.493415,1.739887 3.009764,3.457417 4.63293,5.077632 1.112657,1.023289 2.182146,2.09454 3.293707,3.118861 0.469433,0.43259 0.955086,0.847263 1.429075,1.274856 1.295848,0.968175 2.574734,1.954687 3.785923,3.027886 1.02585,1.022533 2.196651,1.871503 3.3407,2.753078 1.301087,0.993382 2.656509,1.9127 4.004472,2.840638 1.283331,0.886949 2.576856,1.754784 3.794057,2.732233 1.159164,0.950652 2.280485,1.944781 3.476718,2.849189 1.256936,0.803873 2.493106,1.655303 3.816216,2.347781 1.2954,0.653756 2.63661,1.207426 3.97184,1.773266 1.3627,0.54692 2.70442,1.14402 4.07433,1.67294 0.84729,0.26499 1.67625,0.59375 2.52608,0.85058 0.36108,0.10913 0.72782,0.19872 1.09006,0.30396 0.67648,0.21919 1.35821,0.42338 2.03241,0.64953 0.51454,0.20259 0.97079,0.52348 1.45644,0.78459 0.52477,0.25591 1.08135,0.3974 1.63797,0.5653 0.50484,0.17963 0.99215,0.41219 1.51133,0.54654 0.55608,0.10585 1.0875,0.28996 1.61905,0.48494 0.24529,0.096 0.50089,0.15274 0.7508,0.23427 0,0 12.2365,-8.374773 12.2365,-8.374773 v 0 c -0.25501,-0.06471 -0.50023,-0.162556 -0.76324,-0.191043 -0.33482,-0.08162 -0.75042,-0.217466 -1.06897,-0.350301 -0.1067,-0.04449 -0.20529,-0.108402 -0.3147,-0.145748 -0.0825,-0.02815 -0.17117,-0.03288 -0.25676,-0.04932 -0.49565,-0.134912 -0.99965,-0.23656 -1.48321,-0.41714 -0.1091,-0.04432 -0.2182,-0.08864 -0.3273,-0.132962 -0.0978,-0.03053 -0.19828,-0.05358 -0.29344,-0.09158 -0.0985,-0.03934 -0.18526,-0.106237 -0.28589,-0.139778 -0.17649,-0.05882 -0.48489,-0.04326 -0.65578,-0.187041 -0.54309,-0.119447 -0.99228,-0.445252 -1.45898,-0.736259 -0.73161,-0.365403 -1.52042,-0.505779 -2.30421,-0.723365 -0.72388,-0.173387 -0.35996,-0.07593 -1.09135,-0.293867 -0.84157,-0.212136 -1.69846,-0.369569 -2.5093,-0.694681 -1.38049,-0.503703 -2.7788,-0.965183 -4.10421,-1.606873 -1.32007,-0.51277 -2.60863,-1.099298 -3.86812,-1.747411 -0.44884,-0.186237 -0.72367,-0.287405 -1.1552,-0.519874 -0.86746,-0.467308 -1.69355,-1.02036 -2.52414,-1.547654 -1.18071,-0.916215 -2.37228,-1.818434 -3.55181,-2.736231 -1.21731,-1.040334 -2.43671,-2.085489 -3.82819,-2.890067 -1.35266,-0.868805 -2.66252,-1.79421 -3.94022,-2.770053 -1.128618,-0.853281 -2.207296,-1.762207 -3.251149,-2.716879 -1.2673,-1.042006 -2.58804,-2.012159 -3.918219,-2.971916 -1.700482,-1.284553 -3.286693,-2.710291 -4.833651,-4.174716 -0.27603,-0.270509 -0.559535,-0.533596 -0.828091,-0.811527 -1.286935,-1.331864 -2.407238,-2.816898 -3.646123,-4.191886 -1.370982,-1.633152 -2.665309,-3.330451 -3.915987,-5.057194 -1.426844,-1.91681 -2.812946,-3.864281 -4.175521,-5.827239 -0.537531,-0.819589 -1.022808,-1.538784 -1.521943,-2.383348 -0.891697,-1.508802 -1.679676,-3.078868 -2.548606,-4.600592 -1.332048,-2.462516 -2.706135,-4.905948 -3.911987,-7.433438 -1.199034,-2.551108 -2.320311,-5.139385 -3.414592,-7.737158 -0.90713,-2.155599 -1.834067,-4.301909 -2.800753,-6.431559 -0.79965,-1.882534 -1.578451,-3.773478 -2.261632,-5.702062 -0.667445,-1.725271 -1.286208,-3.469835 -1.788725,-5.251176 -0.297871,-0.906191 -0.809612,-2.678677 -1.68208,-3.180546 -0.09833,-0.05656 -0.21986,-0.05594 -0.32979,-0.08391 -0.183415,0.02278 -0.363729,0.0676 -0.547374,0.08846 -0.374651,0.04255 -0.761147,-0.02745 -1.12741,0.09291 -0.598595,0.168092 -1.2462,0.0427 -1.861183,0.08477 -0.898696,0.0066 -1.797315,0.07358 -2.696325,0.0283 -1.18623,-0.03169 -2.370226,-0.108776 -3.544344,-0.289683 -0.254208,-0.03282 -0.50719,-0.07718 -0.762623,-0.09846 -0.544763,-0.04537 -1.092639,-0.04217 -1.638034,-0.07916 -1.198276,-0.08127 -0.493138,-0.04505 -1.667781,-0.150631 -0.245028,-0.02202 -0.490611,-0.03737 -0.735916,-0.05605 -1.335674,-0.08592 -2.679146,-0.04077 -4.010036,-0.209308 -1.203439,-0.161119 -2.422728,-0.326766 -3.562929,-0.762623 -0.154642,-0.04485 -0.31412,-0.07553 -0.463924,-0.134557 -0.151514,-0.0597 -0.291112,-0.294144 -0.436164,-0.220112 -19.517941,9.961586 -12.808676,2.124214 -13.098205,8.270738 -0.06784,0.585408 -0.201499,1.161667 -0.263112,1.748421 -0.159386,1.23998 -0.382708,2.469924 -0.586031,3.703257 -0.284937,1.944156 -0.658756,3.876224 -1.206714,5.765113 -0.674647,2.534441 -1.360323,5.065758 -2.068937,7.590921 -0.741835,2.53419 -1.369944,5.100546 -2.131803,7.629396 -0.754421,2.486721 -1.412553,5.00124 -2.186956,7.482122 -0.7883504,2.604384 -1.6942716,5.172323 -2.5016929,7.771059 -0.8066241,2.283161 -1.5742314,4.57938 -2.2331651,6.910258 -0.5219188,2.051307 -1.0366739,4.105015 -1.5946378,6.14667 -0.7239375,2.378928 -1.5513191,4.725248 -2.2288251,7.118168 -0.3010565,1.049162 -0.5942511,2.102844 -0.9392435,3.138732 -0.17671466,0.530611 -0.42135848,1.225359 -0.66796537,1.739975 -0.0920172,0.192021 -0.20834252,0.371416 -0.31251378,0.557123 0,0 13.44745255,-6.189897 13.44745255,-6.189897 z" />
    <path
       style="fill:none;stroke:#000000;stroke-width:1px;stroke-linecap:butt;stroke-linejoin:miter;stroke-opacity:1"
       d="m 40.271009,74.72715 c -0.191053,14.131071 -0.644481,29.55567 0.810937,42.85448"
       id="path34171" />
    <ellipse
       style="fill:#000000"
       id="path34195"
       cx="39.10471"
       cy="64.409111"
       rx="14.94215"
       ry="13.908949" />
    <path
       style="fill:none;stroke:#000000;stroke-width:1px;stroke-linecap:butt;stroke-linejoin:miter;stroke-opacity:1"
       d="m 35.203603,117.69698 c 11.391398,-0.10446 11.391398,-0.10446 11.391398,-0.10446"
       id="path34310" />
  </g>
</svg>
