<?xml version="1.0" encoding="UTF-8" standalone="no"?>
<svg
   viewBox="0 0 50 50"
   version="1.1"
   id="svg4"
   sodipodi:docname="stiffness.svg"
   inkscape:version="1.2-dev (8a200a5f, 2021-09-02)"
   xmlns:inkscape="http://www.inkscape.org/namespaces/inkscape"
   xmlns:sodipodi="http://sodipodi.sourceforge.net/DTD/sodipodi-0.dtd"
   xmlns:xlink="http://www.w3.org/1999/xlink"
   xmlns="http://www.w3.org/2000/svg"
   xmlns:svg="http://www.w3.org/2000/svg">
  <defs
     id="defs8">
    <linearGradient
       inkscape:collect="always"
       id="linearGradient998">
      <stop
         style="stop-color:#d3085c;stop-opacity:0.88;"
         offset="0.7245509"
         id="stop994" />
      <stop
         style="stop-color:#ff6f0f;stop-opacity:1;"
         offset="1"
         id="stop996" />
    </linearGradient>
    <radialGradient
       inkscape:collect="always"
       xlink:href="#linearGradient998"
       id="radialGradient1000"
       cx="25"
       cy="25"
       fx="25"
       fy="25"
       r="20.5"
       gradientTransform="matrix(0.99053621,0,0,1.2231175,0.04077233,-5.480028)"
       gradientUnits="userSpaceOnUse" />
  </defs>
  <sodipodi:namedview
     id="namedview6"
     pagecolor="#ffffff"
     bordercolor="#666666"
     borderopacity="1.0"
     inkscape:pageshadow="2"
     inkscape:pageopacity="0.0"
     inkscape:pagecheckerboard="false"
     showgrid="false"
     inkscape:zoom="7.66"
     inkscape:cx="-4.9608355"
     inkscape:cy="19.516971"
     inkscape:window-width="1920"
     inkscape:window-height="1001"
     inkscape:window-x="-9"
     inkscape:window-y="1341"
     inkscape:window-maximized="1"
     inkscape:current-layer="svg4" />
  <path
     d="m 4.9934534,40.830561 c 0,1.401638 0.6841677,2.681319 1.7643926,3.748796 1.0802249,1.067477 2.5786209,1.988307 4.36455,2.734777 3.571859,1.492939 8.37203,2.366043 13.681782,2.366043 5.309751,0 10.109922,-0.873104 13.681781,-2.366043 1.785929,-0.74647 3.284325,-1.6673 4.36455,-2.734777 1.080225,-1.067477 1.764393,-2.347158 1.764393,-3.748796 0,-1.401637 -0.684168,-2.681318 -1.764393,-3.748795 -1.080225,-1.067477 -2.578621,-1.988307 -4.36455,-2.734777 -3.571859,-1.492939 -8.37203,-2.366043 -13.681781,-2.366043 -5.309752,0 -10.109923,0.873104 -13.681782,2.366043 -1.7859291,0.74647 -3.2843251,1.6673 -4.36455,2.734777 -1.0802249,1.067477 -1.7643926,2.347158 -1.7643926,3.748795 z m 0,-7.866324 c 0,1.130784 0.4709999,2.209454 1.3000787,3.195694 0.4497035,-0.411015 0.9580962,-0.80384 1.5167586,-1.167657 -0.5309274,-0.632256 -0.8357649,-1.310235 -0.8357649,-2.028037 0,-4.056074 9.3962262,-6.883034 17.8296522,-6.883034 8.433425,0 17.829651,2.82696 17.829651,6.883034 0,0.717802 -0.305828,1.395781 -0.835765,2.028037 0.557672,0.363817 1.066065,0.756642 1.516759,1.167657 0.828088,-0.98624 1.300079,-2.06491 1.300079,-3.195694 0,-4.962668 -8.701861,-8.849616 -19.810724,-8.849616 -11.108864,0 -19.8107246,3.886948 -19.8107246,8.849616 z m 0,-7.866325 c 0,1.132751 0.4680283,2.208471 1.3000787,3.195694 0.4516846,-0.413965 0.9561151,-0.801873 1.5167586,-1.167657 -0.5309274,-0.632256 -0.8357649,-1.310235 -0.8357649,-2.028037 0,-4.056074 9.3962262,-6.883034 17.8296522,-6.883034 8.433425,0 17.829651,2.82696 17.829651,6.883034 0,0.717802 -0.304837,1.395781 -0.835765,2.028037 0.560644,0.365784 1.065074,0.753692 1.516759,1.167657 0.83205,-0.987223 1.300079,-2.062943 1.300079,-3.195694 0,-4.962668 -8.701861,-8.849615 -19.810724,-8.849615 -11.108864,0 -19.8107246,3.886947 -19.8107246,8.849615 z m 0,-7.866325 c 0,1.132751 0.4680283,2.208471 1.3000787,3.195695 0.4516846,-0.413966 0.9561151,-0.801874 1.5167586,-1.167658 -0.5309274,-0.632256 -0.8357649,-1.310235 -0.8357649,-2.028037 0,-4.056073 9.3962262,-6.883034 17.8296522,-6.883034 8.433425,0 17.829651,2.826961 17.829651,6.883034 0,0.717802 -0.304837,1.395781 -0.835765,2.028037 0.560644,0.365784 1.065074,0.753692 1.516759,1.167658 0.83205,-0.987224 1.300079,-2.062944 1.300079,-3.195695 0,-4.962667 -8.701861,-8.849616 -19.810724,-8.849616 -11.108864,0 -19.8107246,3.886949 -19.8107246,8.849616 z m 0,-7.8663254 c 0,1.1327514 0.4680283,2.2084714 1.3000787,3.1956954 0.4516846,-0.413965 0.9561151,-0.801873 1.5167586,-1.167658 -0.5309274,-0.632255 -0.8357649,-1.310234 -0.8357649,-2.0280374 0,-4.0560737 9.3962262,-6.8830341 17.8296522,-6.8830341 0.546776,0 0.990536,-0.4405142 0.990536,-0.9832906 0,-0.54277635 -0.44376,-0.98329031 -0.990536,-0.98329031 -11.108864,0 -19.8107246,3.88694741 -19.8107246,8.84961501 z M 6.9745258,40.830561 c 0,-0.770588 0.3517799,-1.551291 1.1762617,-2.366043 0.8244819,-0.814751 2.0946565,-1.627531 3.7145105,-2.304587 3.23971,-1.35411 7.854529,-2.212404 12.93888,-2.212404 5.084351,0 9.699169,0.858294 12.938879,2.212404 1.619854,0.677056 2.890029,1.489836 3.714511,2.304587 0.824481,0.814752 1.176261,1.595455 1.176261,2.366043 0,0.770588 -0.35178,1.551292 -1.176261,2.366043 -0.824482,0.814752 -2.094657,1.627532 -3.714511,2.304588 -3.23971,1.35411 -7.854528,2.212403 -12.938879,2.212403 -5.084351,0 -9.69917,-0.858293 -12.93888,-2.212403 C 10.245444,44.824136 8.9752694,44.011356 8.1507875,43.196604 7.3263057,42.381853 6.9745258,41.601149 6.9745258,40.830561 Z m 2.5072948,-2.181676 c 3.6055514,1.952815 9.0869314,3.164967 15.3223574,3.164967 6.235425,0 11.716805,-1.212152 15.322357,-3.164967 C 39.589664,38.238853 38.914861,37.833 38.114508,37.4505 c -3.51046,1.510334 -8.556747,2.396771 -13.31033,2.396771 -4.753584,0 -9.79987,-0.886437 -13.310331,-2.396771 -0.800353,0.383483 -1.475156,0.789336 -2.0120264,1.198385 z m 0,-7.866324 c 1.2015204,0.649955 2.6038724,1.219034 4.1788244,1.69003 1.487786,-0.423798 3.096664,-0.773112 4.736001,-1.014018 -2.565488,-0.412982 -4.967291,-1.042534 -6.902799,-1.874398 -0.802334,0.383484 -1.475156,0.78737 -2.0120264,1.198386 z m 0,-7.866325 c 1.2015204,0.649955 2.6038724,1.219035 4.1788244,1.690031 1.487786,-0.423799 3.096664,-0.773113 4.736001,-1.014019 -2.565488,-0.412982 -4.967291,-1.042534 -6.902799,-1.874397 -0.802334,0.383483 -1.475156,0.78737 -2.0120264,1.198385 z m 0,-7.866325 c 1.2015204,0.649955 2.6038724,1.219035 4.1788244,1.690031 1.487786,-0.423798 3.096664,-0.773112 4.736001,-1.014018 -2.565488,-0.412982 -4.967291,-1.042534 -6.902799,-1.874398 -0.802334,0.383483 -1.475156,0.78737 -2.0120264,1.198385 z M 31.211709,31.458573 c 1.639337,0.240906 3.247225,0.59022 4.736001,1.014018 1.575943,-0.470996 2.977304,-1.040075 4.178825,-1.69003 -0.537862,-0.410032 -1.210683,-0.814902 -2.012027,-1.198386 -1.935508,0.831864 -4.33632,1.462399 -6.902799,1.874398 z m 0,-7.866325 c 1.639337,0.240906 3.247225,0.59022 4.736001,1.014019 1.575943,-0.470996 2.977304,-1.040076 4.178825,-1.690031 -0.537862,-0.410032 -1.210683,-0.814902 -2.012027,-1.198385 -1.935508,0.831863 -4.33632,1.462399 -6.902799,1.874397 z"
     id="path2"
     style="fill:#ff6600;stroke:url(#radialGradient1000);stroke-width:0.987;stroke-opacity:1;stroke-miterlimit:4;stroke-dasharray:none;stroke-linecap:square" />
</svg>
