<?xml version="1.0" encoding="UTF-8" standalone="no"?>
<svg
   class="svg-icon"
   style="width: 1em; height: 1em;vertical-align: middle;fill: currentColor;overflow: hidden;"
   viewBox="0 0 1024 1024"
   version="1.1"
   id="svg4"
   sodipodi:docname="update_levels.svg"
   inkscape:version="1.2.2 (732a01da63, 2022-12-09)"
   xmlns:inkscape="http://www.inkscape.org/namespaces/inkscape"
   xmlns:sodipodi="http://sodipodi.sourceforge.net/DTD/sodipodi-0.dtd"
   xmlns="http://www.w3.org/2000/svg"
   xmlns:svg="http://www.w3.org/2000/svg">
  <defs
     id="defs8" />
  <sodipodi:namedview
     id="namedview6"
     pagecolor="#ffffff"
     bordercolor="#000000"
     borderopacity="0.25"
     inkscape:showpageshadow="2"
     inkscape:pageopacity="0.0"
     inkscape:pagecheckerboard="0"
     inkscape:deskcolor="#d1d1d1"
     showgrid="false"
     inkscape:zoom="0.78515625"
     inkscape:cx="494.16915"
     inkscape:cy="512.63682"
     inkscape:window-width="1920"
     inkscape:window-height="991"
     inkscape:window-x="-9"
     inkscape:window-y="-9"
     inkscape:window-maximized="1"
     inkscape:current-layer="svg4" />
  <path
     d="M258.197333 488.725333l213.546667 108.074667c13.333333 6.677333 29.354667 10.666667 46.698667 10.666667 16.021333 0 32.021333-4.010667 46.72-10.666667l213.525333-108.074667c12.010667-6.677333 20.032-20.010667 20.032-33.365333 0-14.677333-8.021333-26.688-20.032-33.365333l-213.525333-108.096a97.536 97.536 0 0 0-46.72-12.010667c-16 0-32.021333 4.010667-46.698667 10.666667l-213.546667 108.117333c-12.010667 8-20.032 20.010667-20.032 34.688 0 13.354667 8.021333 26.688 20.032 33.365333zM756.010667 556.8l-209.536 114.773333c-17.344 8-37.376 8-53.397334 0l-212.202666-114.773333c-13.354667-8-30.698667-2.666667-38.698667 10.666667-8 13.376-2.666667 30.677333 10.666667 38.72l213.525333 114.752a114.346667 114.346667 0 0 0 52.053333 12.032c17.344 0 34.730667-4.010667 53.397334-12.032l213.546666-114.752a28.16 28.16 0 0 0 9.344-38.72c-8.021333-13.333333-25.365333-18.666667-38.698666-10.666667zM216.298667 248.789333c0 34.368-27.093333 62.229333-60.48 62.229334-33.365333 0-60.458667-27.861333-60.458667-62.229334 0-34.346667 27.093333-62.208 60.458667-62.208 33.386667 0 60.48 27.84 60.48 62.208z m732.458666 484.16c0 34.368-27.093333 62.208-60.501333 62.208-33.365333 0-60.458667-27.84-60.458667-62.208 0-34.346667 27.093333-62.208 60.458667-62.208 33.408 0 60.501333 27.861333 60.501333 62.208zM338.88 128.938667a33.941333 33.941333 0 1 1-67.882667 0 33.941333 33.941333 0 0 1 67.882667 0zM286.677333 100.693333A476.16 476.16 0 0 1 523.306667 43.306667c126.528 2.901333 244.373333 54.4 331.882666 145.002666 87.488 90.624 134.08 209.429333 131.2 334.570667-1.706667 73.984-21.098667 146.005333-57.685333 214.037333-4.330667 11.050667-15.552 18.581333-28.757333 18.581334-18.048-0.384-31.744-14.72-31.381334-31.978667 0.085333-2.368 0.576-4.245333 0.96-5.632l0.042667-2.688 1.536-2.922667c31.978667-56.512 48.981333-119.701333 50.538667-187.84 2.474667-107.904-37.717333-210.325333-113.152-288.384-75.52-78.122667-177.365333-122.517333-286.784-125.034666a409.429333 409.429333 0 0 0-200.128 47.381333m-151.274667 136.490667a397.290667 397.290667 0 0 0-67.072 211.818666c-2.474667 107.946667 37.717333 210.346667 113.152 288.426667 75.52 78.101333 177.365333 122.496 286.762667 124.992 86.826667 2.261333 170.624-23.701333 244.117333-74.154667 5.056-5.482667 12.522667-8.469333 21.205333-8.469333 18.048 0.384 31.744 14.72 31.381334 31.978667a30.122667 30.122667 0 0 1-8.789334 20.821333c-83.136 59.562667-178.986667 90.538667-278.229333 90.538667-3.690667 0-7.381333-0.042667-11.093333-0.128-261.824-6.037333-470.037333-221.184-464.106667-479.616 2.026667-88.149333 29.333333-170.474667 74.88-240.32"
     fill="#347DFF"
     id="path2"
     style="fill:#df3600;fill-opacity:1" />
</svg>
