<?xml version="1.0" encoding="UTF-8" standalone="no"?>
<svg
   enable-background="new 0 0 24 24"
   height="24px"
   id="Layer_1"
   version="1.1"
   viewBox="0 0 24 24"
   width="24px"
   xml:space="preserve"
   sodipodi:docname="wall.svg"
   inkscape:version="1.2-dev (8a200a5f, 2021-09-02)"
   xmlns:inkscape="http://www.inkscape.org/namespaces/inkscape"
   xmlns:sodipodi="http://sodipodi.sourceforge.net/DTD/sodipodi-0.dtd"
   xmlns:xlink="http://www.w3.org/1999/xlink"
   xmlns="http://www.w3.org/2000/svg"
   xmlns:svg="http://www.w3.org/2000/svg"><defs
     id="defs7"><linearGradient
       inkscape:collect="always"
       id="linearGradient851"><stop
         style="stop-color:#d4085d;stop-opacity:1;"
         offset="0.41916168"
         id="stop847" /><stop
         style="stop-color:#ff6f0f;stop-opacity:1;"
         offset="1"
         id="stop849" /></linearGradient><radialGradient
       inkscape:collect="always"
       xlink:href="#linearGradient851"
       id="radialGradient853"
       cx="12"
       cy="12"
       fx="12"
       fy="12"
       r="12"
       gradientUnits="userSpaceOnUse" /></defs><sodipodi:namedview
     id="namedview5"
     pagecolor="#ffffff"
     bordercolor="#666666"
     borderopacity="1.0"
     inkscape:pageshadow="2"
     inkscape:pageopacity="0.0"
     inkscape:pagecheckerboard="0"
     showgrid="false"
     inkscape:zoom="17.041667"
     inkscape:cx="9.5061125"
     inkscape:cy="11.706601"
     inkscape:window-width="1920"
     inkscape:window-height="1001"
     inkscape:window-x="-9"
     inkscape:window-y="-9"
     inkscape:window-maximized="1"
     inkscape:current-layer="Layer_1" /><path
     d="M24,1c0-0.6-0.4-1-1-1H1C0.4,0,0,0.4,0,1v22c0,0.6,0.4,1,1,1h22c0.6,0,1-0.4,1-1V1z M2,2h13v6H2V2z M2,9h6v6H2V9z M2,22v-6  h13v6H2z M22,22h-6v-6h6V22z M22,15H9V9h13V15z M22,8h-6V2h6V8z"
     id="path2"
     style="fill-opacity:1;fill:url(#radialGradient853);stroke:#f4fb1f;stroke-opacity:1;stroke-width:0.2;stroke-miterlimit:4;stroke-dasharray:none" /></svg>
