<?xml version="1.0" encoding="UTF-8" standalone="no"?>
<svg
   version="1.1"
   id="Layer_1"
   x="0px"
   y="0px"
   viewBox="0 0 122.88 122.88"
   style="enable-background:new 0 0 122.88 122.88"
   xml:space="preserve"
   sodipodi:docname="weakness.svg"
   inkscape:version="1.2-dev (8a200a5f, 2021-09-02)"
   xmlns:inkscape="http://www.inkscape.org/namespaces/inkscape"
   xmlns:sodipodi="http://sodipodi.sourceforge.net/DTD/sodipodi-0.dtd"
   xmlns:xlink="http://www.w3.org/1999/xlink"
   xmlns="http://www.w3.org/2000/svg"
   xmlns:svg="http://www.w3.org/2000/svg"><defs
     id="defs11"><linearGradient
       inkscape:collect="always"
       id="linearGradient856"><stop
         style="stop-color:#d4075c;stop-opacity:0.88;"
         offset="0.002994"
         id="stop852" /><stop
         style="stop-color:#ff6f0f;stop-opacity:1;"
         offset="0.99401194"
         id="stop854" /></linearGradient><radialGradient
       inkscape:collect="always"
       xlink:href="#linearGradient856"
       id="radialGradient858"
       cx="61.435"
       cy="61.435"
       fx="61.435"
       fy="61.435"
       r="61.4375"
       gradientUnits="userSpaceOnUse"
       gradientTransform="matrix(0.56994081,0.5640231,-0.56226618,0.56811737,61.03776,-6.2425343)" /></defs><sodipodi:namedview
     id="namedview9"
     pagecolor="#ffffff"
     bordercolor="#666666"
     borderopacity="1.0"
     inkscape:pageshadow="2"
     inkscape:pageopacity="0.0"
     inkscape:pagecheckerboard="0"
     showgrid="false"
     inkscape:zoom="4.70714"
     inkscape:cx="42.913531"
     inkscape:cy="53.217028"
     inkscape:window-width="1920"
     inkscape:window-height="1001"
     inkscape:window-x="-9"
     inkscape:window-y="1341"
     inkscape:window-maximized="1"
     inkscape:current-layer="Layer_1" /><style
     type="text/css"
     id="style2">.st0{fill-rule:evenodd;clip-rule:evenodd;}</style><path
     class="st0"
     d="m 120.29646,59.373082 0.0505,7.449492 c 0.0634,9.362794 -7.54964,17.055103 -16.91298,17.08897 l -19.734368,0.07136 c -7.387565,0.03239 -13.743366,-4.72804 -16.131855,-11.331265 l 34.939873,-0.126358 c 3.45323,-0.01253 6.25332,-2.841715 6.22429,-6.289058 l -0.0459,-6.75887 c -0.0233,-3.453029 -2.85602,-6.256223 -6.30925,-6.243737 l -34.719097,0.11989 c 2.453729,-6.320712 8.58809,-10.843263 15.75496,-10.869179 l 19.745677,-0.0714 c 9.36335,-0.03386 17.07464,7.597367 17.1381,16.960161 z m -79.376026,45.822868 4.378411,2.84856 8.835327,-13.623643 -4.383959,-2.831552 z m 39.642901,-89.697872 4.473461,2.672723 -8.232946,13.961103 -4.495953,-2.649999 z m -20.383619,96.375952 5.207611,-0.0981 -0.353572,-16.250983 -5.213238,0.103759 z m 20.236789,-3.62254 4.488531,-2.62023 -8.213306,-14.043137 -4.499855,2.62026 z m -40.686007,-90.069695 4.545756,-2.529852 7.993269,14.151502 -4.534204,2.563775 z m 19.27896,-7.123123 5.213851,-0.01319 0.104432,16.240577 -5.208076,0.03015 z m -56.3379504,48.739783 0.0505,7.449483 c 0.06347,9.362802 7.7747684,16.994034 17.1438184,16.965816 l 19.73437,-0.07137 c 7.387691,-0.02105 13.678641,-4.827215 15.977489,-11.447389 l -34.93991,0.126352 c -3.453234,0.01249 -6.291539,-2.796346 -6.309245,-6.243736 l -0.04582,-6.758877 c -0.0234,-3.453033 2.776682,-6.282257 6.229913,-6.294745 l 34.719165,-0.11989 c -2.545,-6.308294 -8.734675,-10.780618 -15.912867,-10.754661 l -19.740066,0.06572 C 10.215503,42.749021 2.6080355,50.435657 2.6715076,59.798455 Z"
     id="path4"
     style="fill:#d4075d;fill-opacity:0.88;stroke:url(#radialGradient858);stroke-width:3.32066;stroke-miterlimit:4;stroke-dasharray:none" /></svg>
