<?xml version="1.0" encoding="iso-8859-1"?>
<!-- Uploaded to: SVG Repo, www.svgrepo.com, Generator: SVG Repo Mixer Tools -->
<svg version="1.1" id="Layer_1" xmlns="http://www.w3.org/2000/svg" xmlns:xlink="http://www.w3.org/1999/xlink" 
	 viewBox="0 0 512 512" xml:space="preserve">
<circle style="fill:#FF2746;" cx="256" cy="256" r="256"/>
<path style="fill:#940030;" d="M512,256c0-8.42-0.419-16.743-1.214-24.954l-56.475-57.099l-13.134,80.329l-64.503-5.172L124.983,256
	l-33.258,40.558v-38.26l-63.281,11.924l46.637,46.637L57.604,337.97L231.876,510.86c7.944,0.743,15.987,1.14,24.124,1.14
	C397.384,512,512,397.384,512,256z"/>
<rect x="28.444" y="241.778" style="fill:#FFFFFF;" width="455.111" height="28.444"/>
<rect x="254.569" y="241.778" style="fill:#FFEDB5;" width="228.986" height="28.444"/>
<rect x="142.222" y="241.778" style="fill:#FEE187;" width="56.889" height="28.444"/>
<rect x="312.889" y="241.778" style="fill:#FFC61B;" width="56.889" height="28.444"/>
<g>
	<path style="fill:#3F3F3F;" d="M70.789,341.333h-4.956c-6.485,0-11.743-5.258-11.743-11.743V182.412
		c0-6.485,5.258-11.743,11.743-11.743h4.956c6.485,0,11.743,5.258,11.743,11.743V329.59
		C82.532,336.075,77.274,341.333,70.789,341.333z"/>
	<path style="fill:#3F3F3F;" d="M102.25,341.333h-4.956c-6.485,0-11.743-5.258-11.743-11.743V182.412
		c0-6.485,5.258-11.743,11.743-11.743h4.956c6.485,0,11.743,5.258,11.743,11.743V329.59
		C113.993,336.075,108.735,341.333,102.25,341.333z"/>
	<path style="fill:#3F3F3F;" d="M133.28,341.333h-4.956c-6.485,0-11.743-5.258-11.743-11.743V182.412
		c0-6.485,5.258-11.743,11.743-11.743h4.956c6.485,0,11.743,5.258,11.743,11.743V329.59
		C145.024,336.075,139.766,341.333,133.28,341.333z"/>
</g>
<g>
	<path style="fill:#2B2B2B;" d="M383.678,341.333h-4.956c-6.485,0-11.743-5.258-11.743-11.743V182.412
		c0-6.485,5.258-11.743,11.743-11.743h4.956c6.485,0,11.743,5.258,11.743,11.743V329.59
		C395.421,336.075,390.163,341.333,383.678,341.333z"/>
	<path style="fill:#2B2B2B;" d="M415.139,341.333h-4.956c-6.485,0-11.743-5.258-11.743-11.743V182.412
		c0-6.485,5.258-11.743,11.743-11.743h4.956c6.485,0,11.743,5.258,11.743,11.743V329.59
		C426.882,336.075,421.624,341.333,415.139,341.333z"/>
	<path style="fill:#2B2B2B;" d="M446.169,341.333h-4.956c-6.485,0-11.743-5.258-11.743-11.743V182.412
		c0-6.485,5.258-11.743,11.743-11.743h4.956c6.485,0,11.743,5.258,11.743,11.743V329.59
		C457.912,336.075,452.655,341.333,446.169,341.333z"/>
</g>
</svg>