<?xml version="1.0" encoding="utf-8"?>
<!-- Uploaded to: SVG Repo, www.svgrepo.com, Generator: SVG Repo Mixer Tools -->
<svg width="800px" height="800px" viewBox="0 0 1024 1024" class="icon"  version="1.1" xmlns="http://www.w3.org/2000/svg"><path d="M214.192 770.757c-12.267 0-24.606-1.612-36.778-4.872-37.442-10.028-68.692-34.357-87.982-68.51l-6.396-11.333c-39.31-69.589-15.768-158.979 52.473-199.258L423.311 316.93c33.067-19.523 71.682-24.81 108.622-14.913 37.441 10.028 68.677 34.365 87.967 68.518l6.382 11.297c39.316 69.618 15.781 159.015-52.458 199.286l-25.467 15.024-30.368-51.444 25.466-15.032c40.411-23.848 54.231-76.977 30.813-118.445l-6.381-11.296c-11.348-20.084-29.601-34.357-51.415-40.199-21.354-5.725-43.649-2.633-62.792 8.65l-287.802 169.86c-40.411 23.848-54.231 76.977-30.82 118.438L141.453 668c11.334 20.064 29.596 34.336 51.415 40.178 21.354 5.71 43.655 2.654 62.785-8.657l64.28-37.939 30.368 51.445-64.28 37.937c-22.179 13.099-46.843 19.793-71.829 19.793z" fill="#FF3B30" /><path d="M528.854 726.86c-12.267 0-24.613-1.612-36.794-4.87-37.434-10.028-68.67-34.365-87.959-68.518l-6.39-11.312c-39.309-69.603-15.774-158.994 52.458-199.266l25.467-15.03c14.229-8.379 32.534-3.661 40.907 10.539 8.387 14.206 3.668 32.526-10.539 40.905l-25.467 15.031c-40.402 23.847-54.222 76.985-30.806 118.444l6.382 11.312c11.341 20.069 29.594 34.343 51.408 40.184 21.347 5.733 43.655 2.654 62.8-8.657L858.124 485.77c40.411-23.847 54.231-76.977 30.813-118.43l-6.396-11.332c-11.333-20.064-29.588-34.329-51.401-40.17-21.347-5.718-43.657-2.647-62.8 8.649l-64.28 37.937c-14.222 8.417-32.52 3.683-40.906-10.537-8.387-14.207-3.668-32.527 10.539-40.906l64.28-37.938c33.067-19.532 71.624-24.833 108.628-14.923 37.435 10.036 68.679 34.365 87.961 68.518l6.395 11.326c39.316 69.589 15.783 158.98-52.466 199.259l-287.8 169.852c-22.186 13.091-46.85 19.785-71.837 19.785z" fill="#152B3C" /></svg>